<svg xmlns="http://www.w3.org/2000/svg" xmlns:xlink="http://www.w3.org/1999/xlink" viewBox="0 0 1757 745.93"><defs><style>.cls-1{fill:none;}.cls-2{fill:#121472;}.cls-3{fill:#b71c1c;}.cls-4{fill:#b0bec5;}.cls-5{fill:#f44336;}.cls-6{fill:#616161;}.cls-7{fill:#b28b67;}.cls-10,.cls-11,.cls-12,.cls-13,.cls-14,.cls-7,.cls-8,.cls-9{fill-rule:evenodd;}.cls-8{fill:#191847;}.cls-9{fill:#3b4372;}.cls-10{fill:#997659;}.cls-11{fill:#5c63ab;}.cls-12{fill:#db2721;}.cls-13{fill:#dde3e9;}.cls-14{fill:#ff4133;}.cls-15{fill:#fff;}.cls-16{fill:#89b3f4;}.cls-17{fill:#78a9ef;}.cls-18{fill:#a1c3fc;}.cls-19{fill:#499bce;}.cls-20{fill:#55acee;}.cls-21{fill:#f1f2f2;}.cls-22{fill:#ddb545;}.cls-23{fill:#ceb95f;}.cls-24{fill:#c19b3d;}.cls-25{fill:#ffd44d;}.cls-26{clip-path:url(#clip-path);}.cls-27{opacity:0.12;}.cls-27,.cls-28,.cls-29{isolation:isolate;}.cls-28{opacity:0.05;}.cls-29{opacity:0.3;}.cls-30{fill:#fafbff;}.cls-31{fill:#e9eaf2;}.cls-32{fill:#384b7a;}.cls-33{fill:#475993;}.cls-34{fill:#db302c;}.cls-35{fill:#fafafa;}.cls-36{fill:#8e2fea;}.cls-37{fill:#a93bff;}</style><clipPath id="clip-path" transform="translate(-82 -237.07)"><path class="cls-1" d="M1660.12,574.19v57.3a3.27,3.27,0,0,0,.23,1.15,3.81,3.81,0,0,0,.32.68,4.42,4.42,0,0,0,1.67,1.71l84.25,44.53a1.61,1.61,0,0,0,1.68.08,1.12,1.12,0,0,0,.34-.38,1.8,1.8,0,0,0,.2-.88V621.07a3,3,0,0,0-.21-1.11,4.69,4.69,0,0,0-.33-.72,4.41,4.41,0,0,0-1.69-1.71L1662.35,573h0a1.63,1.63,0,0,0-1.68-.07,1.12,1.12,0,0,0-.34.38A1.79,1.79,0,0,0,1660.12,574.19Z"/></clipPath></defs><title>Amplify</title><g id="background"><rect class="cls-2" y="106.93" width="1757" height="553"/></g><g id="megaphone"><path class="cls-3" d="M976.69,488.36c-.64-2.62.72-8.41-1.39-17.05l12.92-3.16,5.06,20.69L982,491.59A4.43,4.43,0,0,1,976.69,488.36Z" transform="translate(-82 -237.07)"/><path class="cls-4" d="M891,424s47.59,12.35,67,7.61l1.26-.31,12,49.25-1.26.31c-19.43,4.74-56,37.66-56,37.66Z" transform="translate(-82 -237.07)"/><path class="cls-4" d="M981.24,517.93a4.31,4.31,0,0,1-2.81-5.18c2.77-11.39,4.87-22.19,4.6-35.1,0-1.23,0-2.79,0-2.79l22.64-5.53.64,2.62s1.14,17.74-2.78,43.82c-.45,2.37-1.74,4.23-3.78,4.32A54.41,54.41,0,0,1,981.24,517.93Z" transform="translate(-82 -237.07)"/><path class="cls-5" d="M958.16,431.54l40.32-9.86a4.1,4.1,0,0,1,1.11-.06,7.1,7.1,0,0,1,1.33.39l9.44,4.9a3.56,3.56,0,0,1,1.8,2.34l7,28.66a3.34,3.34,0,0,1-.62,2.93l-6.11,8.7a2.38,2.38,0,0,1-1,1,4.44,4.44,0,0,1-1,.46L970,480.84Z" transform="translate(-82 -237.07)"/><rect class="cls-3" x="998.35" y="422.22" width="2" height="50.7" transform="translate(-159.7 13.05) rotate(-13.74)"/><path class="cls-3" d="M1000.92,422l9.44,4.9a3.56,3.56,0,0,1,1.8,2.34l7,28.66a3.34,3.34,0,0,1-.62,2.93l-6.11,8.7a2.38,2.38,0,0,1-1,1L999.5,421.64A3.26,3.26,0,0,1,1000.92,422Z" transform="translate(-82 -237.07)"/><path class="cls-6" d="M908.19,522.71,883.8,423a4,4,0,0,1,7.77-1.9L916,520.81a4,4,0,1,1-7.77,1.9Z" transform="translate(-82 -237.07)"/></g><g id="activist"><g id="Head"><path class="cls-7" d="M1235.38,431.36h-42l7.11-50.33c-11.33,6.83-22.47,10.13-27.7,8.78-13.11-3.37-14.31-51.33-4.17-70.24s62.29-27.15,64.92,10.31c.91,13-4.55,24.61-12.62,34.08Z" transform="translate(-82 -237.07)"/></g><path id="hair" class="cls-8" d="M1168.44,310.63c-2.27,5.14-.83,11.41,8.69,10.85,9.65,11.56,23.66,19.48,25.28,19.61.12,0,6.32-8.41,12.22-4.87,6.84,4.12,5.58,11.7,1.88,17.61-1.93,3.08-4.91,7.75,0,11.31,7.75,5.61,27.69-6.87,31-17.56,6.14-19.79-2.42-46.75-24.22-50.7,1.3-3.73,6.54-5.23,10.12-5.95,8.6-1.75,17.62.06,26,1.87,10.33,2.22,20.83,5.54,31.47,5.62a46,46,0,0,0,16-2.88c5.36-2,9.55-5,14.23-8.14,4.42-2.95,9.23-2.32,14.12-.94a77.33,77.33,0,0,1,14.48,5.79c9.9,5.12,19,11.43,29.62,15.15a79.12,79.12,0,0,0,24.6,4.51c14.53.32,32-2.85,41.4-15.11,6.49-8.46,6.5-19,2.55-28.53-3.67-8.9-10.17-15.22-18-20.47-8.42-5.62-17.8-9.82-28-10.61-10.91-.85-21.45,2.83-30.68,8.46-9,5.49-17.08,11.28-27.76,12.93a67.51,67.51,0,0,1-31.37-3c-10.63-3.51-20.83-7.22-32.1-8.14-10.53-.85-21.61.11-31.4,4.32A43.63,43.63,0,0,0,1228,270.46a54.14,54.14,0,0,0-5.59,14.2c-.42,1.75-.84,3.51-1.13,5.29-.26,1.53,0,3.77-.8,5.09-1,1.61-2.94,1.21-4.7,1.21-2.75,0-17.66.62-23.2,1.53C1184.9,299,1170.71,305.5,1168.44,310.63Z" transform="translate(-82 -237.07)"/><path id="Leg" class="cls-7" d="M1171.62,577.11q-150.52,133-157.76,156.9-5,16.66,93.24,173l17.78-6.91q-64.08-147.62-63.29-150c1.18-3.56,204.51-130.38,207.67-173.46Z" transform="translate(-82 -237.07)"/><path id="Pant" class="cls-9" d="M1076.82,754.74c2.52-4.25,191-78.23,194.52-178H1167.59Q1014.76,704.37,1010.38,733.4c-4.38,29,19.61,86,80.8,155l29-10.56C1099.11,800.63,1074.3,759,1076.82,754.74Z" transform="translate(-82 -237.07)"/><polygon class="cls-10" points="1092.68 339.58 1322.48 740.87 1343.48 740.87 1254.46 557.03 1163.88 339.58 1092.68 339.58"/><path class="cls-11" d="M1271,576.65h-103.9c16.56,101.26,167.58,318.79,203.66,371.85l46.67-8.76C1383,885.81,1326.3,649.85,1271,576.65Z" transform="translate(-82 -237.07)"/><path id="Skin" class="cls-7" d="M1068.09,554.66l-47.5-36.42q-35.6-6.54-33-11.23c2.58-4.69,9.1-1.51,11.36-4.39s5-18.61,8.06-17.62c10.35,5.76,6.81,4.79,17.92,15.86l63.42,27.86Zm320.18,87.14c3.43,4.51,24.6,16.13,38.92,22.34,5.75,2.49,4.51,7.35,2.83,8.91-13.72,12.64-26.19,3.26-40.9-.39-16.11-4-11.09,15.17-23.83,12.2,2-8.76,7.53-25.39,1.64-34.47q-3.93-6-58-106.88l35.87-7.12Q1381.26,632.57,1388.27,641.8Z" transform="translate(-82 -237.07)"/><path id="Coat-Back" class="cls-12" d="M1159,577.15c-27.46,16.6-95.21-12.47-127-46.88l10.72-23.95c35,12.56,64.44,21.87,85.22,12.25,22-10.17,35.42-87,68.39-119l15.14,2.6C1213,455.86,1202.86,550.62,1159,577.15Z" transform="translate(-82 -237.07)"/><path id="Shirt" class="cls-13" d="M1228.07,392.85l-38.63,6.06c0,73.26-39.85,128.73-50.06,180.2-.89,4.46-2,13.29,4.08,13.29h133.93C1271.08,507.52,1260,444.24,1228.07,392.85Z" transform="translate(-82 -237.07)"/><path id="Coat-Front" class="cls-14" d="M1307.14,629.16H1186.59q-23.34-59,28.68-236.31h15.3q130,80.1,157.09,248.32l-28.07,5.5q-27.88-32.5-68.84-106.37C1299.12,570,1305.24,600.39,1307.14,629.16Z" transform="translate(-82 -237.07)"/><rect class="cls-15" x="1229" y="664.93" width="157" height="81"/></g><g id="Crowd"><path class="cls-16" d="M1313.88,817h-25a11.07,11.07,0,0,1-11.05-11v-7.72a5.83,5.83,0,0,1,5.82-5.82h30.22Zm-30.22-21.89a3.12,3.12,0,0,0-3.12,3.12V806a8.36,8.36,0,0,0,8.35,8.35h22.29V795.11Z" transform="translate(-82 -237.07)"/><ellipse class="cls-16" cx="308.19" cy="555.69" rx="49.73" ry="52.49"/><path class="cls-16" d="M545.46,708.62c2.67-8,10.09-14.87,17.86-17.47,3.46-1.16,5.93-2.79,9.15-4.67,2.69-1.58,9.71-10.47,12.8-9.35,9.29,3.36-9.94,21.37-12.8,23.11-3.62,2.21-7.54,4.08-11.21,6.09-4.81,2.63-7.44,4.69-13,2.95a16.18,16.18,0,0,0-2.65-.82C545.54,707.92,545.27,709.16,545.46,708.62Z" transform="translate(-82 -237.07)"/><path class="cls-17" d="M567.78,730.05a6.65,6.65,0,0,1-1.59-.19,6.75,6.75,0,0,1-5-8.15l29.62-122.84A6.75,6.75,0,0,1,604,602L574.34,724.87A6.77,6.77,0,0,1,567.78,730.05Z" transform="translate(-82 -237.07)"/><path class="cls-17" d="M598,601.74c23.12,17.84,46,20.08,75.63,14.63-4.55,17.71-16.16,68-16.16,68-29,4.69-56.18-2.1-75.91-20.33,0,0,12.45-45.42,13.82-62.91A2.31,2.31,0,0,1,598,601.74Z" transform="translate(-82 -237.07)"/><path class="cls-16" d="M534.51,731.84c6.41-3.28,6.57-20.81,12.77-28.1,6.79-8,13.21-2.44,18.69-1.22,8.73-4.26,21.22-20.58,29.09-14.38,3.47,2.74.58,10,.77,13.37,0,.55-1,9.84-1.22,11-.92,5.84.51,14.12-3.21,18.16-4.23,4.59-16,2.2-22.31,9s-7.49,17.51-16.22,21.86c-4.57-10.8-6-22.2-17.07-28.58C536,731.59,533.17,732.53,534.51,731.84Z" transform="translate(-82 -237.07)"/><path class="cls-18" d="M537.74,723.44c13.9,2.52,31,12.92,40.71,22.62C564.88,781.6,559,796.15,544.21,832c-12.28,29.73-58.69,48.74-65.26,51-8.83,3.1-28.47-23-36.19-28.43,14.37-27.34,42.52-27,56.22-56.21C511.75,771.11,521.49,748.44,537.74,723.44Z" transform="translate(-82 -237.07)"/><path class="cls-18" d="M353.66,740.84c5.53-22.7,37.87-17.35,53.65-10.29,10.59,4.74,20.88,15.38,26.55,21.92a6.47,6.47,0,0,1-1.2,9.56c-12.72,8.84-43.21,28.51-53.83,22.1C370.34,779,354.22,757,350.17,747,351.32,744.82,351.11,741.39,353.66,740.84Z" transform="translate(-82 -237.07)"/><path class="cls-18" d="M341,740c-34.77,25.14-14.18,73.82-2.53,108h0c27-5.88,64.76-4.82,91.09-12.15-5.19-21-12.22-71-27.49-86.57C379.08,725.91,352.33,731.86,341,740Z" transform="translate(-82 -237.07)"/><ellipse class="cls-16" cx="146.24" cy="577.39" rx="48.66" ry="51.36"/><path class="cls-18" d="M216.66,747.94c9.28-13.72,32.5-12.79,42.89,9.86,10.5,22.9-23,38.39-12.32,61.07,3.84,8.15,10.14,13.11,9.64,23.07-.51,10.32-8.6,22.89-17.91,28.48-17.26,10.33-44.79,13.15-60.93.76-12-9.21-16.58-25.1-1.85-35.21-37.39,9.43-45.46-50.58-6.93-52.79-7.56-12-4.3-26.52,7.41-35.33C190.83,737.19,216.66,747.94,216.66,747.94Z" transform="translate(-82 -237.07)"/><ellipse class="cls-16" cx="1020.22" cy="577.39" rx="48.66" ry="51.36"/><ellipse class="cls-16" cx="875.79" cy="547.41" rx="44.1" ry="46.55"/><ellipse class="cls-16" cx="589.48" cy="586.24" rx="51.36" ry="54.21"/><path class="cls-18" d="M594.13,816.39c3.65-88.3,87.33-33.78,104.89-64.78a5.56,5.56,0,0,1,9.53-.41c8.47,13,7.59,36.21,6.68,49.63-.84,12.39-3.39,15.22-9.26,27.28-2.21,4.56-9.78,7.26-12.51,12.23-2.23,4-.55,11.14-.56,15.71-.14,37.27-45.1,29.46-63,24.88C609.59,875.73,592.51,855.55,594.13,816.39Z" transform="translate(-82 -237.07)"/><ellipse class="cls-16" cx="1222.84" cy="576.24" rx="44.21" ry="46.66"/><path class="cls-18" d="M1387.59,792.76c0-60.72-59.23-51.26-96.08-47.54-4,.4-19.71,1.9-21.87,5.23-8,12.3,5.73,28.51,6.59,41.16.79,11.68,3.2,14.35,8.72,25.71,2.09,4.3,9.23,6.85,11.8,11.53,2.1,3.81.52,10.51.53,14.81.13,35.13,42.5,27.77,59.37,23.45C1375.8,862.21,1387.59,829.7,1387.59,792.76Z" transform="translate(-82 -237.07)"/><path class="cls-18" d="M1123.92,752.28c25-22.74,74.21,11.17,45.64,44.47C1196,797.33,1197,825.29,1196,837c-1.28,15.49-16.89,29.52-30.62,32.38-24,5-48.49,1.15-73.61-.21-.65-12.91.11-37.34-.55-50.24-55.59-1.8-51.81-49.51-24.13-52.23C1059.37,725.58,1123.67,724.29,1123.92,752.28Z" transform="translate(-82 -237.07)"/><path class="cls-18" d="M952.65,736.52c-26.38-7.26-49.48,13-53,38.23-3.05,21.68-28,90.56,51.53,90.56,77.37,0,52.92-77.81,52.7-87.86C1003.25,750.69,971.88,723.8,952.65,736.52Z" transform="translate(-82 -237.07)"/><path class="cls-18" d="M1481.71,734.52c-26.38-7.26-49.48,13-53,38.23-3.05,21.68-28,90.56,51.53,90.56,77.37,0,52.92-77.81,52.7-87.86C1532.31,748.69,1500.93,721.8,1481.71,734.52Z" transform="translate(-82 -237.07)"/><path class="cls-18" d="M1409.53,921.7v-8.92A58,58,0,0,0,1351.72,855h-50.25a58,58,0,0,0-57.82,57.82v8.92Z" transform="translate(-82 -237.07)"/><path class="cls-18" d="M1189.75,922.7a58.06,58.06,0,0,0-57.7-53.89h-39.16a57.56,57.56,0,0,0-38.24,14.6,69.52,69.52,0,0,0-53.12-24.76H912.18a69.88,69.88,0,0,0-69.41,64.05Z" transform="translate(-82 -237.07)"/><path class="cls-18" d="M1590,921.7a69.88,69.88,0,0,0-69.41-64.05h-89.35a69.88,69.88,0,0,0-69.41,64.05Z" transform="translate(-82 -237.07)"/><path class="cls-18" d="M332.36,921.14l1.16,1.56H483.94c1.17-.84,2.31-1.71,3.4-2.65,23.16-20,47.47-61.69,56.19-89.31-26.77-.32-122.06.33-136.53,1.75-18.09,1.77-33.48-1.77-50.77,4-21.84,7.28-36.15,29.15-33.86,51.86C323.66,901.19,324.75,910.82,332.36,921.14Z" transform="translate(-82 -237.07)"/><path class="cls-18" d="M786.22,922.7a77.14,77.14,0,0,0-71.91-49.83H615.73a77.12,77.12,0,0,0-71.9,49.83Z" transform="translate(-82 -237.07)"/><path class="cls-18" d="M302.52,922.7a58.06,58.06,0,0,0-57.71-53.89H205.66A58.07,58.07,0,0,0,148,922.7Z" transform="translate(-82 -237.07)"/><ellipse class="cls-16" cx="1618.45" cy="570.27" rx="48.66" ry="51.36"/><path class="cls-18" d="M1769,763c.85,6.2,3.68,19.7,9,23,13,8.1,7.76,35.77,7,45-1.28,15.49-9,27-21.4,31.3-18,3.75-36.22,2.53-54.79,1.1C1698,862.58,1685,856.82,1685,846c0-4.25-6-11.78-6-16,0-9.53,18.27-22.79,9-25-33.74-8-48.18-33-31.66-42.56,4.19-2.42,12.93-14.93,14.66-19.44C1680.5,718.22,1765.25,735.77,1769,763Z" transform="translate(-82 -237.07)"/><path class="cls-18" d="M1778.36,921.37v-8.91c0-31.74-18.46-57.7-41-57.7h-35.63c-22.56,0-41,26-41,57.7v8.91Z" transform="translate(-82 -237.07)"/></g><g id="twitter"><g id="Слой_2" data-name="Слой 2"><g id="Слой_1-2" data-name="Слой 1-2"><path class="cls-19" d="M860.51,683.76c0-28.14-19.73-62.25-44.06-76.3-12-6.9-22.79-7.57-30.73-3.3h0l-.27.16-.3.17-8.94,5.2,2.22,1c-3.83,5.33-6,12.83-6,22.2,0,28.14,19.73,62.25,44.05,76.29,7.38,4.27,14.34,6.25,20.45,6l-.25,3.39,10.94-6.25h.11l.16-.09h0C855.66,707.5,860.51,697.68,860.51,683.76Z" transform="translate(-82 -237.07)"/><ellipse class="cls-20" cx="806.49" cy="664.11" rx="35.97" ry="62.3" transform="translate(-306.01 255.15) rotate(-30)"/><path class="cls-21" d="M831.65,662.66a18.14,18.14,0,0,1-6-1.56,5.48,5.48,0,0,0,4.69-4.05,15.21,15.21,0,0,1-6.68-.93,21.82,21.82,0,0,0-7.69-8.27c-5.85-3.37-10.54-.65-10.54,6.07a15.88,15.88,0,0,0,.29,2.92c-8.76-5.55-16.51-14.88-21.7-25.23a9.07,9.07,0,0,0-1.43,5.29,22.77,22.77,0,0,0,4.69,12.83,19.62,19.62,0,0,1-4.76-4.28v.15a23.55,23.55,0,0,0,8.36,16.82,10.39,10.39,0,0,1-2.77-1.17,14.78,14.78,0,0,1-2-1.36A23.79,23.79,0,0,0,795.91,674c-3.6,1.17-8.14.5-13.07-2.36-.84-.48-1.69-1-2.52-1.56a56,56,0,0,0,16.15,14.77c19.36,11.19,30-1.22,30-17.29V666a10.17,10.17,0,0,0,5.25-3.25Z" transform="translate(-82 -237.07)"/></g></g></g><g id="mail"><g id="Слой_2-2" data-name="Слой 2"><g id="Слой_1-2-2" data-name="Слой 1-2"><path class="cls-22" d="M1662.91,571.88a.69.69,0,0,1,.28-.33,3.25,3.25,0,0,1,.82-.25l43-11.32,43,56.83a5.24,5.24,0,0,1,.76,1,4.69,4.69,0,0,1,.33.72,3,3,0,0,1,.21,1.11V677a1.87,1.87,0,0,1-.2.89,1.23,1.23,0,0,1-.35.37,1.62,1.62,0,0,1-1.67-.07l-84.26-44.54a4.64,4.64,0,0,1-2-2.39,3.27,3.27,0,0,1-.23-1.15V572.76A1.73,1.73,0,0,1,1662.91,571.88Z" transform="translate(-82 -237.07)"/><polygon class="cls-23" points="1581.31 334.42 1578.66 335.86 1582.36 338.34 1581.31 334.42"/><polygon class="cls-22" points="1666.14 442.64 1668.85 441.15 1664.68 438.39 1666.14 442.64"/><path class="cls-24" d="M1707.05,560l-2.58,1.42-43.81,11.52,2.18-1.18a16.67,16.67,0,0,1,2.6-.81Z" transform="translate(-82 -237.07)"/><path class="cls-25" d="M1660.12,574.19v57.3a3.27,3.27,0,0,0,.23,1.15,3.81,3.81,0,0,0,.32.68,4.42,4.42,0,0,0,1.67,1.71l84.25,44.53a1.61,1.61,0,0,0,1.68.08,1.12,1.12,0,0,0,.34-.38,1.8,1.8,0,0,0,.2-.88V621.07a3,3,0,0,0-.21-1.11,4.69,4.69,0,0,0-.33-.72,4.41,4.41,0,0,0-1.69-1.71L1662.35,573l1.44.91c-.67-.35-2.72-1.27-3.13-1a1.12,1.12,0,0,0-.34.38A1.84,1.84,0,0,0,1660.12,574.19Z" transform="translate(-82 -237.07)"/><g class="cls-26"><polygon class="cls-27" points="1666.27 442.57 1622.47 388.98 1578.56 396.08 1578.56 401.76 1666.82 448.41 1666.27 442.57"/><polygon class="cls-28" points="1622.47 388.98 1666.37 382.35 1670.4 381.16 1672.19 446.52 1666.27 442.57 1622.47 388.98"/><polygon class="cls-28" points="1622.56 388.9 1578.66 335.87 1574.63 330.42 1572.83 393.88 1578.66 396.01 1622.56 388.9"/></g><polygon class="cls-25" points="1666.28 382.17 1622.47 324.33 1578.66 335.86 1622.47 388.98 1666.28 382.17"/><polygon class="cls-29" points="1578.66 335.86 1588.58 347.88 1622.47 388.98 1656.35 383.71 1666.28 382.17 1656.35 369.07 1631.94 336.84 1622.47 324.33 1613 326.83 1588.58 333.25 1578.66 335.86"/><polygon class="cls-30" points="1588.58 313.92 1588.58 347.88 1622.47 388.98 1656.35 383.71 1656.35 349.74 1588.58 313.92"/><polygon class="cls-31" points="1633.81 364.67 1650.54 373.5 1650.54 355.83 1633.81 346.99 1633.81 364.67"/><polygon class="cls-31" points="1614.1 354.25 1630.83 363.09 1630.83 345.41 1614.1 336.56 1614.1 354.25"/><polygon class="cls-31" points="1594.39 343.83 1611.12 352.67 1611.12 334.99 1594.39 326.15 1594.39 343.83"/><polygon class="cls-31" points="1594.39 351.17 1650.54 380.84 1650.54 377.77 1594.39 348.09 1594.39 351.17"/><polygon class="cls-31" points="1602.76 359.14 1602.76 362.22 1646.13 385.15 1650.54 384.74 1650.54 384.4 1602.76 359.14"/><polygon class="cls-31" points="1611.12 369.72 1611.12 372.8 1636.69 386.31 1641.97 386.03 1611.12 369.72"/><polygon class="cls-31" points="1615.52 378.68 1615.52 380.56 1617.27 382.68 1627.69 388.19 1632.22 387.5 1615.52 378.68"/></g></g></g><g id="facebook"><path class="cls-32" d="M505,456.65l-67.82-39.18a9.17,9.17,0,0,0-8.14-1.2h-.1a6.1,6.1,0,0,0-1.11.63L417,423.1l7.67,10.66v69.17a27.68,27.68,0,0,0,12.51,21.73L470.61,544V505.7l-8.63-5a4.52,4.52,0,0,1-2-3.53V484.8c0-1.3.92-1.84,2-1.19l8.59,5v-11.9c0-13.85,7.33-17.16,18-11l8.78,5a4.51,4.51,0,0,1,2,3.56v10.4c0,1.3-.91,1.82-2,1.17L492,482.8c-5.82-3.35-6.94-.82-6.94,3.86V497l12.78,7.44a4.44,4.44,0,0,1,2,3.78l-1.27,11.71c-.12,1.12-1,1.5-2,.9l-11.45-6.69v38.26l13.95,8.06,2.45,11.37,12.26-7,.13-.08h.1c2.18-1.35,3.53-4.1,3.53-8V478.31A27.64,27.64,0,0,0,505,456.65Z" transform="translate(-82 -237.07)"/><path class="cls-15" d="M450.93,546,490.84,569l6.57-77.9-11.88-19.51-38.36-22.69L439,465.21s.63,36,1.67,43.47S450.93,546,450.93,546Z" transform="translate(-82 -237.07)"/><path class="cls-33" d="M493.42,463.33,425.6,424.16c-6.9-4-12.51-.75-12.51,7.22v78.28A27.68,27.68,0,0,0,425.6,531.4L459,550.71V512.44l-8.61-5a4.5,4.5,0,0,1-2-3.52V491.54c0-1.3.92-1.84,2-1.19l8.61,5V483.45c0-13.85,7.31-17.16,18-11l8.78,5a4.5,4.5,0,0,1,2,3.53v10.4c0,1.3-.92,1.82-2,1.17l-5.38-3.1c-5.82-3.34-6.94-.82-6.94,3.87v10.31l12.77,7.39a4.42,4.42,0,0,1,2,3.78L487,526.54c-.12,1.1-1,1.5-2,.9l-11.45-6.61v38.26l19.9,11.49c6.9,4,12.5.75,12.5-7.23V485A27.66,27.66,0,0,0,493.42,463.33Z" transform="translate(-82 -237.07)"/></g><g id="youtube"><path class="cls-34" d="M1573.16,487.39c-2.43-6.38-5.07-8.81-10.44-12.27s-18.84-11.46-30.51-18.2-25.19-14.38-30.54-17.05c-3.7-1.9-6.1-2.74-8-1.9h0l-.34.18-.2.11-11.2,6,6.49,4.85a124.16,124.16,0,0,0-1,17.45h0c0,15,1.29,24.42,3.8,30.8s5.08,8.83,10.43,12.4,18.85,11.46,30.55,18.2c8.65,5,18.3,10.46,24.88,14l1.37,11.45,12.66-6.72h0a6,6,0,0,0,2.06-2c2.52-3.47,3.79-11.37,3.79-26.34h0C1577,503.15,1575.69,493.84,1573.16,487.39Z" transform="translate(-82 -237.07)"/><path class="cls-5" d="M1561.14,493.85c-2.42-6.4-5.05-8.83-10.43-12.28s-18.84-11.47-30.51-18.21-25.19-14.36-30.54-17-8-3.35-10.46.23-3.78,11.37-3.78,26.48h0c0,15,1.29,24.42,3.78,30.8s5.1,8.83,10.45,12.4,18.85,11.46,30.55,18.22,25.15,14.3,30.53,17,8,3.3,10.42-.29,3.8-11.38,3.8-26.42h0C1565,509.61,1563.74,500.28,1561.14,493.85Z" transform="translate(-82 -237.07)"/><polygon class="cls-35" points="1427 274.74 1427 235.98 1454.97 271.51 1427 274.74"/></g><g id="instagram"><path class="cls-36" d="M295,606.6c0-23.78-16.7-52.69-37.29-64.59-10-5.74-19.12-6.46-25.82-2.89h0l-.21.12c-.39.21-.77.44-1.15.69l-7.75,4.59,2.15,1c-2.89,4.46-4.53,10.51-4.53,18,0,23.78,16.7,52.7,37.3,64.59a34.22,34.22,0,0,0,15.85,5.07l.4,3.14,9.47-5.24h0C290.58,627.32,295,618.83,295,606.6Z" transform="translate(-82 -237.07)"/><ellipse class="cls-15" cx="248.9" cy="589.55" rx="25.68" ry="44.48" transform="translate(-343.43 -33.63) rotate(-30)"/><path class="cls-37" d="M249.22,598.56c4.1,2.38,7.44.45,7.44-4.29a14.39,14.39,0,0,0-1.4-5.83,16.07,16.07,0,0,0-6-7.07c-2.49-1.43-4.69-1.28-6,.1a5.93,5.93,0,0,0-1.4,4.21A16.41,16.41,0,0,0,249.22,598.56Z" transform="translate(-82 -237.07)"/><polygon class="cls-37" points="183.48 351.79 183.48 344.58 183.48 343.5 182.55 342.97 176.31 339.39 176.33 347.69 183.48 351.79"/><path class="cls-37" d="M249.22,547c-20.51-11.84-37.2-2.2-37.2,21.48s16.69,52.58,37.2,64.42,37.19,2.21,37.19-21.47S269.74,558.88,249.22,547Zm21.16,50.16v20c0,5.21-3.67,7.33-8.18,4.73l-25.95-15a18.11,18.11,0,0,1-8.19-14.16v-30c0-5.21,3.68-7.33,8.19-4.73l26,15a18.07,18.07,0,0,1,8.18,14.16Z" transform="translate(-82 -237.07)"/><path class="cls-37" d="M260.8,596.66c0,7.37-5.2,10.33-11.58,6.69s-11.57-12.68-11.57-20.05a11.28,11.28,0,0,1,.85-4.52l-6.32-3.64v20a9,9,0,0,0,4.06,7l26,15c2.3,1.29,4.05.24,4.05-2.29V594.8L260,591.16A19.69,19.69,0,0,1,260.8,596.66Z" transform="translate(-82 -237.07)"/></g></svg>