<svg xmlns="http://www.w3.org/2000/svg" xmlns:xlink="http://www.w3.org/1999/xlink" viewBox="0 0 1757 962.64"><defs><style>.cls-1{fill:none;}.cls-2{fill:#f5bf6a;}.cls-3{fill:#69a1ac;}.cls-3,.cls-4,.cls-5,.cls-54,.cls-6,.cls-7,.cls-8{fill-rule:evenodd;}.cls-4{fill:#4c888c;}.cls-5{fill:#285960;}.cls-6{fill:#428689;}.cls-7{fill:#354e4f;}.cls-21,.cls-8{fill:#676767;}.cls-9{clip-path:url(#clip-path);}.cls-10{fill:#595d69;}.cls-11{fill:#616774;}.cls-12{fill:#323846;}.cls-13{fill:#9fa0a2;}.cls-14{fill:#a1a2a4;}.cls-15{fill:#f4f6f9;}.cls-16{fill:#d5d7e2;}.cls-17{opacity:0.8;}.cls-18{fill:#dfe1ea;}.cls-19{fill:#3a4151;}.cls-20{fill:#b28b67;}.cls-22{fill:#9c73ff;}.cls-23{fill:#291066;}.cls-24{fill:#f4f4f4;}.cls-25,.cls-54{fill:#191847;}.cls-26{fill:#ededed;}.cls-27{fill:#666;}.cls-28{fill:#d6d8e5;}.cls-29{fill:#b1b6c4;}.cls-30{fill:#c4c7d6;}.cls-31{fill:#38226d;}.cls-32{fill:#ffcea9;}.cls-33{fill:#451e5e;}.cls-34{fill:#e5e5e5;}.cls-35{fill:#bfbfbf;}.cls-36{fill:#3a2c6d;}.cls-37{fill:#dceeff;}.cls-38{fill:#dbdbdb;}.cls-39{fill:#1e3779;}.cls-40{fill:#031f60;}.cls-41{fill:#4d2363;}.cls-42{fill:#724731;}.cls-43{fill:#ba7676;}.cls-44{fill:#313131;}.cls-45{fill:#894741;}.cls-46{fill:#e26d6d;}.cls-47{fill:#98a8ea;}.cls-48{fill:#1f232b;}.cls-49{fill:#2d323e;}.cls-50{fill:#dadce5;}.cls-51{fill:#e6e9ef;}.cls-52{fill:#c1c4d3;}.cls-53{fill:#889ee5;}</style><clipPath id="clip-path" transform="translate(-82 -13.6)"><polyline class="cls-1" points="825.75 1000.63 825.75 92.88 1733.51 92.88 1733.51 1000.63"/></clipPath></defs><title>Learn</title><g id="background"><rect class="cls-2" y="330.4" width="1757" height="553"/></g><g id="objects"><g id="Plant-Left"><path id="Leaf" class="cls-3" d="M377.45,172.48c6-8.54,17.1-30.24,25.54-33.29,5.43-2,3.84,18.37,3.91,22.25.26,15-1.2,29.91-3,44.79C400.65,233.06,390,257,375.45,279.79c-7.5,11.75-16.3,23.64-28.48,31-5.61,3.38-12.36,3.94-17.89,6.85-6.45,3.39-2.94.65-5.85,7.37-4,9.33-5.33,21.37-7.19,31.33C307.46,402,286.7,643.64,290.3,690.14c.32,4.12-5.43,5.1-5.72.07-1.52-26.67,11.67-211.4,18.33-271.81s13.39-113.78,20.15-134.68c8.19-25.36,23-55.85,35.31-79.5A281.2,281.2,0,0,1,377.45,172.48Z" transform="translate(-82 -13.6)"/><path class="cls-4" d="M419.73,489.17c-3,3.64-5.77,7.43-8.45,10.64-8.16,9.77-15.88,19.78-23.26,30-15.31,21.28-28.44,43.75-42.17,65.82-13.55,21.78-27,43.66-39.26,66-10.4,18.92-24.27,41.18-27.83,61.92,5.4-44,25.91-86.27,50.32-125,24.22-38.46,52-80.46,89.51-110.81" transform="translate(-82 -13.6)"/><path class="cls-5" d="M126.1,361.5c8.72,1.7,23,21.44,30.17,28.95a283,283,0,0,1,23.6,28.44A480.25,480.25,0,0,1,221.64,487,633.61,633.61,0,0,1,268.12,608a499.89,499.89,0,0,1,14.1,79.34c.5,5,5.77,43.75-1.82,44.79-6.83.94-4.72-29.41-5-33.53C271.63,652,260.48,606.68,245,562.79c-3.38-9.57-6.52-21.28-11.92-29.88-3.89-6.2,0-4-6.86-6.38-5.87-2-12.56-1.53-18.57-4-13.06-5.36-23.52-15.76-32.69-26.21C157.12,476,143,454,135.65,428c-4.08-14.44-7.84-29-9.92-43.85C125.19,380.27,120.48,360.4,126.1,361.5Z" transform="translate(-82 -13.6)"/><path class="cls-6" d="M160.52,33.16c32.86,57,59.87,119.58,77.3,183,10.57,38.41,18,77.83,25.29,117,11.37,60.6,22.12,121.19,25.18,182.86,3.07,62,9.16,133.58-11.15,193.32,10.14-60.66.48-125.22-1.23-186.26-.81-29.13-3.18-58-6.29-86.95-3-28.1-7.94-56.06-12.53-83.94-2.23-13.58-4.58-27.14-7-40.69-.71-4-1-16-3.58-18.79s-15.75-3.92-19.88-6a107,107,0,0,1-23.09-16.11c-13.28-11.82-24.84-27.26-34-42.48-21.11-35.23-29.55-78.22-29.12-119,.08-7.92,12.82-93.21,7.71-94.39.3-.36.59-.73.87-1.12Q154.88,23.34,160.52,33.16Z" transform="translate(-82 -13.6)"/><path class="cls-7" d="M515.19,238.69c.51-.73,3.81-5.82,2.15-5.49,3.38-.67-4.66,5.61,3.77,1.76-4,3.78-1.69,8.69-1.63,13.78.08,8.26-1.3,16.45-2.86,24.53a168.19,168.19,0,0,1-11.43,37.09c-11.59,25.89-31.26,50.83-54.62,67-11.53,8-22.83,10.71-36,14.39-8.3,2.33-9,6.63-13.37,14.69C392,423.24,383,440,374.93,457.33c-9.67,20.72-19.05,41.46-27.9,62.55-29.82,71-54.09,144.62-66.84,220.78-.31-44.88,10.07-91.1,23.17-133.88,9.54-31.17,22-61.21,35.2-90.95,3.21-7.2,8.08-16.47,9.44-24.43,1-5.57-2-10.93-3.3-16.8-5.21-22.86-4.83-48.48-.26-71.46,5-25.35,19.63-37.11,44.3-40.7,9-1.32,20.49-.84,28.76-4.68,9-4.19,12.74-18,17.86-26.8a364.71,364.71,0,0,1,48.91-66.53A158.26,158.26,0,0,1,501,249C504.74,246.05,512.64,242.37,515.19,238.69Z" transform="translate(-82 -13.6)"/><path class="cls-8" d="M238.55,692.19H326.1a7.13,7.13,0,0,1,7.13,7.13,6,6,0,0,1-.08,1l-6.76,45.89a28.52,28.52,0,0,1-28.21,24.35H266.47a28.51,28.51,0,0,1-28.21-24.35l-6.77-45.89a7.16,7.16,0,0,1,7.06-8.17Z" transform="translate(-82 -13.6)"/></g></g><g id="teacher"><g class="cls-9"><path class="cls-10" d="M1244.05,410.59a5.32,5.32,0,0,1,.36-1.63v-.18c.18-.55.36-1.09.55-1.64h0a7.35,7.35,0,0,1,.9-1.63h0l1.09-1.64a.18.18,0,0,1,.19-.18c.36-.36.72-.9,1.08-1.27l.19-.18.9-.91c.19-.18.37-.18.37-.36a3.9,3.9,0,0,1,1.45-.91c.54-.18.91-.54,1.27-.54h.18a2.71,2.71,0,0,1,1.27-.18h1.27a2.55,2.55,0,0,1,1.09.36L1248,395h0c-.18,0-.18-.18-.36-.18s-.18-.18-.36-.18h-1.82a1.41,1.41,0,0,0-.73.18.56.56,0,0,0-.36.18h-.18c-.18,0-.18,0-.36.18l-1.09.54a6.56,6.56,0,0,0-1.45.91c-.19.18-.37.18-.37.37a2.48,2.48,0,0,1-.72.54l-.37.36-.18.18-.36.37c-.18.18-.36.54-.55.72l-.18.19-.18.18-.18.18c-.18.18-.36.36-.36.54-.19.19-.19.37-.37.55h0c-.18.18-.18.36-.36.54s-.18.37-.36.55c0,.18-.18.36-.18.54h0c-.19.18-.19.37-.19.73,0,.18-.18.54-.18.72s0,.19-.18.37v.36c0,.36-.18.55-.18.91v.91c0,.54-.18.9-.18,1.45,0,2.36.72,3.81,2.18,4.72l8.17,4.72c-1.28-.73-2.18-2.36-2.18-4.72a5,5,0,0,1,.18-1.63v-.37" transform="translate(-82 -13.6)"/></g><g class="cls-9"><path class="cls-11" d="M1251.13,399.88c4-2.36,7.26-.54,7.26,4.18,0,4.53-3.27,10.16-7.26,12.52s-7.26.55-7.26-4.17c0-4.54,3.27-10.17,7.26-12.53" transform="translate(-82 -13.6)"/></g><g class="cls-9"><path class="cls-12" d="M1438.67,527.33l-.36.36c.18,0,.18-.18.36-.36h0" transform="translate(-82 -13.6)"/></g><g class="cls-9"><path class="cls-12" d="M1438.85,527c0-.19.18-.19.18-.37h0a.67.67,0,0,1-.18.37" transform="translate(-82 -13.6)"/></g><g class="cls-9"><path class="cls-12" d="M1437.76,528.24h0l-.36.36c0-.18.18-.18.36-.36" transform="translate(-82 -13.6)"/></g><g class="cls-9"><path class="cls-12" d="M1426,526.24v.36c.18-.18.18-.18,0-.36" transform="translate(-82 -13.6)"/></g><g class="cls-9"><path class="cls-12" d="M1426.33,527c0,.18,0,.18.18.36-.18-.18-.18-.18-.18-.36" transform="translate(-82 -13.6)"/></g><g class="cls-9"><path class="cls-12" d="M1426.87,527.69l.18.18a.18.18,0,0,1-.18-.18" transform="translate(-82 -13.6)"/></g><g class="cls-9"><polygon class="cls-13" points="1569.45 320.56 1571.63 319.29 1570.72 620.66 1568.54 621.93 1569.45 320.56"/></g><g class="cls-9"><polygon class="cls-14" points="1176.57 93.62 1178.75 92.35 1571.63 319.29 1569.45 320.56 1176.57 93.62"/></g><g class="cls-9"><polygon class="cls-15" points="1569.45 320.56 1568.54 621.93 1175.66 394.99 1176.57 93.62 1569.45 320.56"/></g><g class="cls-9"><path class="cls-10" d="M1256.39,109.22a5.4,5.4,0,0,1,.37-1.64v-.18l.54-1.63h0a7.47,7.47,0,0,1,.91-1.64h0l1.09-1.63a.18.18,0,0,1,.18-.18c.36-.36.73-.91,1.09-1.27l.18-.18.91-.91c.18-.18.36-.18.36-.37a4,4,0,0,1,1.45-.9c.55-.18.91-.55,1.28-.55h.18a2.69,2.69,0,0,1,1.27-.18h1.27a2.64,2.64,0,0,1,1.09.36l-8.17-4.72h0c-.18,0-.18-.18-.36-.18s-.19-.18-.37-.18h-1.81a1.39,1.39,0,0,0-.73.18.56.56,0,0,0-.36.18h-.18c-.19,0-.19,0-.37.19l-1.09.54a6.29,6.29,0,0,0-1.45.91c-.18.18-.36.18-.36.36a2.75,2.75,0,0,1-.73.55l-.36.36-.18.18-.37.36c-.18.18-.36.55-.54.73L1251,98l-.18.18-.19.18c-.18.19-.36.37-.36.55-.18.18-.18.36-.36.54h0c-.18.18-.18.37-.36.55s-.19.36-.37.54c0,.18-.18.37-.18.55h0c-.18.18-.18.36-.18.72,0,.19-.18.55-.18.73s0,.18-.18.36v.37c0,.36-.19.54-.19.9V105c0,.55-.18.91-.18,1.45a5.38,5.38,0,0,0,2.18,4.72l8.17,4.72c-1.27-.72-2.18-2.36-2.18-4.72a5,5,0,0,1,.18-1.63v-.36" transform="translate(-82 -13.6)"/></g><g class="cls-9"><path class="cls-11" d="M1263.47,98.69c4-2.36,7.27-.55,7.27,4.17,0,4.54-3.27,10.17-7.27,12.53s-7.26.54-7.26-4.18,3.27-10.34,7.26-12.52" transform="translate(-82 -13.6)"/></g><g class="cls-9"><path class="cls-16" d="M1644.55,335.25l-381.26-220a6.79,6.79,0,1,1,6.72-11.8l381.26,220a6.81,6.81,0,0,1,2.54,9.26,6.9,6.9,0,0,1-9.26,2.54" transform="translate(-82 -13.6)"/></g><g class="cls-9"><path class="cls-11" d="M1651.45,337.79a5.32,5.32,0,0,1,.36-1.63V336c.18-.54.37-1.08.55-1.63h0a7.35,7.35,0,0,1,.9-1.63h0l1.09-1.64a.18.18,0,0,1,.19-.18c.36-.36.72-.91,1.08-1.27l.19-.18.9-.91c.19-.18.37-.18.37-.36a3.85,3.85,0,0,1,1.45-.91c.54-.18.91-.54,1.27-.54h.18a2.6,2.6,0,0,1,1.27-.19h1.27a2.57,2.57,0,0,1,1.09.37l-8.17-4.72h0c-.18,0-.18-.19-.36-.19s-.18-.18-.36-.18h-1.82a1.36,1.36,0,0,0-.72.18.56.56,0,0,0-.37.19h-.18c-.18,0-.18,0-.36.18l-1.09.54a6.21,6.21,0,0,0-1.45.91c-.19.18-.37.18-.37.36a2.33,2.33,0,0,1-.72.55l-.37.36-.18.18-.36.37c-.18.18-.36.54-.55.72l-.18.18s0,.19-.18.19l-.18.18c-.18.18-.36.36-.36.54-.19.18-.19.36-.37.55h0c-.18.18-.18.36-.36.54s-.18.36-.36.55a.66.66,0,0,0-.18.54h0c-.19.18-.19.36-.19.73,0,.18-.18.54-.18.72s0,.18-.18.37v.36c0,.36-.18.54-.18.91v.9c0,.55-.18.91-.18,1.46,0,2.36.72,3.81,2.18,4.72l8.17,4.72c-1.27-.73-2.18-2.36-2.18-4.72a5.1,5.1,0,0,1,.18-1.64v-.36" transform="translate(-82 -13.6)"/></g><g class="cls-9"><path class="cls-10" d="M1658.53,327.08c4-2.36,7.26-.55,7.26,4.17,0,4.54-3.27,10.17-7.26,12.53s-7.26.55-7.26-4.17c0-4.54,3.27-10.17,7.26-12.53" transform="translate(-82 -13.6)"/></g><g class="cls-9"><g class="cls-17"><path class="cls-18" d="M1410.71,319.09l-104-60.09c-6.17-3.45-11.07-.73-11.07,6.35V354c0,7.08,4.9,15.61,11.07,19.24l40.67,23.42,11.26,29.05,11.25-16,40.67,23.42c6.17,3.45,11.08.73,11.08-6.35v-88.6c.18-7.08-4.72-15.61-10.9-19.06" transform="translate(-82 -13.6)"/><polygon class="cls-19" points="1258.63 175.32 1258.63 208.9 1271.89 216.53 1271.89 224.15 1250.46 211.81 1250.65 170.6 1258.63 175.32"/><polygon class="cls-19" points="1297.49 197.65 1297.49 205.27 1284.78 197.83 1284.78 207.09 1296.58 213.81 1296.58 221.43 1284.78 214.53 1284.78 223.97 1298.21 231.78 1298.21 239.4 1276.61 226.88 1276.79 185.66 1297.49 197.65"/><path class="cls-19" d="M1398.37,221.42a55.54,55.54,0,0,1,4.9,3.26,36.58,36.58,0,0,1,4,3.45v8.54a12.26,12.26,0,0,0-2-2.36l-2.18-2.18a20.4,20.4,0,0,0-2.18-1.82,15.26,15.26,0,0,0-2.18-1.45,9.58,9.58,0,0,0-2.54-1.09,3.43,3.43,0,0,0-1.82-.18,1.67,1.67,0,0,0-1.27.54,2,2,0,0,0-.36,1.46,4.83,4.83,0,0,0,.54,2.17c.37.73.73,1.46,1.27,2.36a25.12,25.12,0,0,0,2.18,2.73c.91.91,1.82,2,2.91,3.08,1.45,1.46,2.72,3.09,3.81,4.36a30.62,30.62,0,0,1,2.91,4.36,22.14,22.14,0,0,1,1.81,4.36,19.82,19.82,0,0,1,.73,4.72,9.23,9.23,0,0,1-1.09,5.08,4.5,4.5,0,0,1-3.09,2,10.32,10.32,0,0,1-4.54-.55,24.18,24.18,0,0,1-5.44-2.54,38.14,38.14,0,0,1-5.63-3.81,34.66,34.66,0,0,1-4.54-4.36v-9.26a38.45,38.45,0,0,0,4.72,5.81,24.27,24.27,0,0,0,5.08,4,17.29,17.29,0,0,0,2.73,1.28,3.39,3.39,0,0,0,1.81.18,1.23,1.23,0,0,0,1.09-.73,3.44,3.44,0,0,0,.36-1.45,7.12,7.12,0,0,0-.54-2.54,10.94,10.94,0,0,0-1.63-2.73,18.85,18.85,0,0,0-2.55-2.9c-.9-1.09-2-2.18-3.08-3.27a34.64,34.64,0,0,1-6.18-8.53,17,17,0,0,1-2-8.17,8.87,8.87,0,0,1,1.09-4.9,4.43,4.43,0,0,1,3.08-2,10.27,10.27,0,0,1,4.54.36c1.82.55,3.27,1.64,5.27,2.73" transform="translate(-82 -13.6)"/><path class="cls-19" d="M1427.05,237.94a58.66,58.66,0,0,1,4.9,3.26,35.77,35.77,0,0,1,4,3.45v8.54a12.31,12.31,0,0,0-2-2.36l-2.18-2.18a18.61,18.61,0,0,0-2.18-1.82,15.19,15.19,0,0,0-2.17-1.45,9.83,9.83,0,0,0-2.55-1.09,3.39,3.39,0,0,0-1.81-.18,1.64,1.64,0,0,0-1.27.54,2,2,0,0,0-.37,1.46,4.92,4.92,0,0,0,.55,2.18c.36.72.72,1.45,1.27,2.36a23.71,23.71,0,0,0,2.18,2.72c.91.91,1.81,2,2.9,3.09,1.46,1.45,2.73,3.08,3.82,4.35a31.39,31.39,0,0,1,2.9,4.36,14.9,14.9,0,0,1,1.82,4.36,19.82,19.82,0,0,1,.72,4.72,9.15,9.15,0,0,1-1.09,5.08,4.43,4.43,0,0,1-3.08,2,10.58,10.58,0,0,1-4.54-.55,24.25,24.25,0,0,1-5.45-2.54,38.68,38.68,0,0,1-5.63-3.81,36,36,0,0,1-4.54-4.36v-9.26a39.06,39.06,0,0,0,4.72,5.81,24.38,24.38,0,0,0,5.09,4,12,12,0,0,0,2.72,1.27,3.43,3.43,0,0,0,1.82.18,1.23,1.23,0,0,0,1.09-.73,3.44,3.44,0,0,0,.36-1.45,7,7,0,0,0-.55-2.54,10.65,10.65,0,0,0-1.63-2.73,18.76,18.76,0,0,0-2.54-2.9c-.91-1.09-2-2.18-3.09-3.27a34.58,34.58,0,0,1-6.17-8.53,17,17,0,0,1-2-8.17,9,9,0,0,1,1.09-4.9,4.47,4.47,0,0,1,3.09-2,10.28,10.28,0,0,1,4.54.36c1.63.91,3.45,1.64,5.26,2.73" transform="translate(-82 -13.6)"/><path class="cls-19" d="M1471.71,269.53a36.85,36.85,0,0,1,4.72,18c0,6.54-1.63,10.71-4.9,12.89-3.27,2-7.62,1.63-12.89-1.45a33.56,33.56,0,0,1-12.53-13.07,35.15,35.15,0,0,1-4.9-17.8c0-6.53,1.64-10.89,4.9-12.89,3.27-2.17,7.63-1.63,13.08,1.46,5.26,2.9,9.26,7.26,12.52,12.89m-6.35,21.78c1.63-1.45,2.54-4.17,2.54-8.17a25.8,25.8,0,0,0-2.36-11.43,16.1,16.1,0,0,0-6.53-7.27c-2.91-1.63-5.09-1.63-6.72-.18s-2.54,4.18-2.54,8.17a22.13,22.13,0,0,0,2.54,11.08,16.07,16.07,0,0,0,6.53,7.26c2.73,1.81,4.91,2,6.54.54" transform="translate(-82 -13.6)"/><path class="cls-19" d="M1514.74,289.32l-.18,41.21-8.17-4.72-14.71-34.5a46.15,46.15,0,0,1-1.81-4.54c0,1.46.18,3.82,0,6.72v22.7l-7.63-4.36.19-41.21,8.71,5.08,14.16,33.4a45.88,45.88,0,0,1,1.82,4.36V285Z" transform="translate(-82 -13.6)"/><polygon class="cls-19" points="1470.5 296.77 1470.32 331.63 1477.77 335.81 1477.77 343.07 1455.07 329.82 1455.07 322.74 1462.52 327.09 1462.52 301.31 1454.89 298.77 1454.89 291.51 1470.5 296.77"/><polygon class="cls-16" points="1481.94 487.4 1481.94 497.75 1376.28 436.75 1376.28 426.4 1481.94 487.4"/><polygon class="cls-16" points="1499.91 477.96 1499.91 488.49 1376.28 416.96 1376.28 406.61 1499.91 477.96"/><polygon class="cls-16" points="1519.34 449.82 1519.34 460.17 1376.46 377.56 1376.46 367.21 1519.34 449.82"/><polygon class="cls-16" points="1519.52 412.79 1519.52 433.48 1376.46 350.88 1376.46 330.18 1519.52 412.79"/><polygon class="cls-16" points="1519.34 469.43 1519.34 479.78 1376.28 397.35 1376.46 387 1519.34 469.43"/></g></g><g class="cls-9"><path class="cls-20" d="M1169.43,355.76c6.9,7.63,13.8,15.25,20.7,22.7,7.26,8,14.89,16.34,25,20.33,16.89,6.9,36.31.55,52.65-7.44,6.72-3.27,13.26-6.72,19.61-10.53,7.26-4.36,6.72-4.72,13.62-9.44,4.35-2.91,8.71-5.81,13.25-8.35,4.36-2.36,9.8-4.18,13.07-7.81a33.45,33.45,0,0,0,4.54-7.81c3.09-6.72,7.62-15.07,5.81-22.69a13.92,13.92,0,0,1-.55-2.91c0-1.63.73-3.08.91-4.72,0-1.63-1.27-3.63-2.9-2.9a3.76,3.76,0,0,0-1.46,1.45,25.14,25.14,0,0,1-6.53,5.08,149.83,149.83,0,0,0-26.33,21.43c-12,12-17.42,16.7-33.22,23.05-10.35,4.18-8.35,2.73-19.43,3.64s-22.87-1.82-31-9.26c-4.18-3.82-7.26-8.72-10.17-13.62l-13.43-21.79Z" transform="translate(-82 -13.6)"/></g><g class="cls-9"><path class="cls-21" d="M1091.55,734.48c6.89,5.63,17.06.54,17.61.91,7.08,7.08,17.61,15.07,25.41,21.06,4.36,3.45,10.9,7.8,9.81,14.34-2.18,11.62-20.7,8-27.78,4.54-6.9-3.45-12.71-9.44-19.43-13.62-4.72-2.9-9.44-4.54-10.16-10.35-.37-3.45,3.26-17.06,4.54-16.88" transform="translate(-82 -13.6)"/></g><g class="cls-9"><path class="cls-22" d="M1087.19,749.18c.91,5.63,5.45,7.27,10.17,10.17,6.71,4.18,12.7,10.17,19.6,13.8,6.54,3.27,22.7,6.54,27.24-1.82-2.55,11.26-20.7,7.63-27.6,4.18s-12.71-9.44-19.43-13.62c-4.72-2.9-9.44-4.54-10.16-10.35a12.19,12.19,0,0,1,.18-2.36" transform="translate(-82 -13.6)"/></g><g class="cls-9"><path class="cls-21" d="M1151.28,712.33c6.9,5.63,18.88-.54,19.42,0a268.1,268.1,0,0,0,22.7,20.51c4.35,3.45,10.89,7.81,9.8,14.35-2.18,11.62-20.7,8-27.78,4.54-6.9-3.45-12.71-9.44-19.42-13.62-4.72-2.9-9.44-4.54-10.17-10.35-.36-3.63,4.18-15.61,5.45-15.43" transform="translate(-82 -13.6)"/></g><g class="cls-9"><path class="cls-22" d="M1146.19,726.13c.91,5.63,5.45,7.26,10.17,10.16,6.72,4.18,12.71,10.17,19.61,13.8,6.53,3.27,22.69,6.54,27.23-1.81-2.54,11.25-20.7,7.62-27.6,4.17s-12.7-9.44-19.42-13.61c-4.72-2.91-9.44-4.54-10.17-10.35a12.14,12.14,0,0,1,.18-2.36" transform="translate(-82 -13.6)"/></g><g class="cls-9"><path class="cls-23" d="M1091.18,480.49c.37,10.35,3.63,55.55,5.09,79.52s1.81,53.19,1.81,53.19-4.17,17.43-6.72,37.95c-2.72,20.51,0,85.14,0,85.14s7.81,5.81,17.61,0c0,0,11.08-51.74,16.16-75s6-36.67,8.72-51.19c3.27-17.43,10.16-98.95,10.16-98.95l2.73.18,7.44,92s-2.9,7.62-4.72,20.88c-2,15.07,2.18,90.41,2.18,90.41s8.53,5.63,19.06-.73c0,0,18.34-99.85,18.34-115.1,0-10-1.64-142.7-1.64-142.7Z" transform="translate(-82 -13.6)"/></g><g class="cls-9"><path class="cls-20" d="M1116.06,279.51s1.08,22.7.72,24.69c-.54,2-10.35,8.72-13.25,11.08s15.61,20.69,24.69,24.87,37.58-6.72,38.12-20.88c.55-14-4.9-25.78-9.25-26.5-4.54-.55-41-13.26-41-13.26" transform="translate(-82 -13.6)"/></g><g class="cls-9"><path class="cls-24" d="M1113.51,308s16.52,24.5,39.4,26.87c7.26-7.09,8-32.5-2.18-40.67,0,0,9.26-7.45,15.43-6a31.9,31.9,0,0,1,14.16,18.15c4.18,12.89,8.54,28.51,8.17,52.47-.36,24.15,0,97.67,0,97.67s-3.26,15.62-24,27.06c-20.7,11.61-36.13,12.7-50.29,9.44-11.62-2.73-21.24-6.9-25.24-15.25,1.09-16.89,8.54-60.82,5.81-82.07s-7.26-37-8.53-54.28c-1.09-17.06,2.18-16.88,10.89-22.87,11.62-8.17,16.34-10.53,16.34-10.53" transform="translate(-82 -13.6)"/></g><g class="cls-9"><path class="cls-20" d="M1127.31,498.83c-3.63-2.18-6.35-5.27-11.8-7.81-4.72-2.36-8.17-3.27-11.44-6.9-3.63-4-7.44-18.7-11.07-32.68-4.18-16.7-3.63-38.85-2-48.29,3.27-19.25,12-45.93,14.53-57s-.73-15.79-5.63-20.15c-5.81-5.27-14.35-3.63-19.79,11.62-5.63,15.25-12.53,43.39-14.53,65.54a148.84,148.84,0,0,0,4.36,49.38c3.63,14.89,9.08,26,16.16,39.76,1.81,3.81,2.36,7.08,5.08,14.52,2.73,7.63,7.81,15.62,13.07,20s7.81,5.09,9.08,4.36c1.64-.91,1.45-2.54-.72-4.9-2.18-2.18-6.18-5.63-9.08-11.62,0,0,4.54,5.08,7.44,8a35,35,0,0,0,8.72,6.35c3.08,1.64,7.8-.72,5.62-3.08s-4.35-3.45-8.71-7.81a34.71,34.71,0,0,1-6-7.44,82.17,82.17,0,0,0,9.62,7.26c4.72,2.9,7.44,3.08,9.08,3.08s4-2.17.91-4.72c-2.73-2.17-7.08-4-11.62-9.07-3.27-3.63-5.09-6.72-4-6.72.91,0,2.73,2.36,6.72,3.81,3.81,1.45,8.53.73,9.08-1.45.72-2.36.54-1.82-3.09-4" transform="translate(-82 -13.6)"/></g><g class="cls-9"><path class="cls-20" d="M1167.43,245.74h0c-2.72-17.61-15.43-30.86-33.58-30a35.08,35.08,0,0,0-33,36.85,34.61,34.61,0,0,0,15.26,26.87s1.63,6.36,2.72,7.63c6.35,7.44,25.78,12.16,31.41,11.43,7.08-1.08,11.07-4,14.52-11.8,6-14,4.18-32.31,2.72-41" transform="translate(-82 -13.6)"/></g><g class="cls-9"><path class="cls-25" d="M1116.06,279.51h0l1.63-15.43s-12.53-32.5,17.06-26.32c19.61,4.17,24.51,6,30.51-7.27,6-13.07-15.07-24.87-40-21.6s-31.59,25.23-30.86,35c.55,9.62,3.27,29.23,21.61,35.58" transform="translate(-82 -13.6)"/></g><g class="cls-9"><path class="cls-26" d="M1065.22,367.75s16.16,16.15,35.4,11.43c2.73-1.81,9.26-39.57,9.26-39.57s0-20.88-16-20.34-28.69,48.48-28.69,48.48" transform="translate(-82 -13.6)"/></g><g class="cls-9"><path class="cls-26" d="M1187.59,336.52s8.53-.36,12-5.27c-.73-8.35-11.44-40.48-33-42.84,0,0,9.44,6.17,13.61,16.34,3.63,9.62,7.45,31.77,7.45,31.77" transform="translate(-82 -13.6)"/></g><g class="cls-9"><polygon class="cls-27" points="1227.59 353.6 1232.13 343.98 1237.57 346.16 1234.49 356.14 1227.59 353.6"/></g><g class="cls-9"><polygon class="cls-27" points="1243.75 312.2 1277.33 227.24 1280.06 228.33 1250.46 314.75 1243.75 312.2"/></g><g class="cls-9"><path class="cls-16" d="M1644.55,642.61,1252.4,416.22a6.79,6.79,0,1,1,6.72-11.8l392.15,226.39a6.81,6.81,0,0,1,2.54,9.26c-2,3.27-6.17,4.54-9.26,2.54" transform="translate(-82 -13.6)"/></g><g class="cls-9"><path class="cls-11" d="M1651.45,645.16a5.38,5.38,0,0,1,.36-1.64v-.18l.55-1.63h0a7.41,7.41,0,0,1,.9-1.64h0c.37-.54.73-1.09,1.09-1.63l.19-.18c.36-.37.72-.91,1.08-1.27l.19-.19.9-.9c.19-.18.37-.18.37-.37a4,4,0,0,1,1.45-.9c.54-.19.91-.55,1.27-.55h.18a2.73,2.73,0,0,1,1.27-.18h1.27a2.55,2.55,0,0,1,1.09.36l-8.17-4.72h0c-.18,0-.18-.18-.36-.18s-.18-.18-.36-.18h-1.82a1.36,1.36,0,0,0-.72.18.57.57,0,0,0-.37.18h-.18c-.18,0-.18,0-.36.18l-1.09.55a5.9,5.9,0,0,0-1.45.91c-.19.18-.37.18-.37.36a2.48,2.48,0,0,1-.72.54l-.37.37-.18.18-.36.36c-.18.18-.36.55-.55.73l-.18.18-.18.18-.18.18c-.18.18-.36.37-.36.55-.19.18-.19.36-.37.54h0c-.18.18-.18.37-.36.55s-.18.36-.36.54a.67.67,0,0,0-.18.55h0c-.19.18-.19.36-.19.72,0,.18-.18.55-.18.73s0,.18-.18.36v.36c0,.37-.18.55-.18.91V641c0,.54-.18.91-.18,1.45,0,2.36.72,3.82,2.18,4.72l8.17,4.72c-1.27-.72-2.18-2.36-2.18-4.72a5,5,0,0,1,.18-1.63v-.36" transform="translate(-82 -13.6)"/></g><g class="cls-9"><path class="cls-10" d="M1658.53,634.63c4-2.36,7.26-.55,7.26,4.17,0,4.54-3.27,10.17-7.26,12.53s-7.26.54-7.26-4.18,3.27-10.35,7.26-12.52" transform="translate(-82 -13.6)"/></g></g><g id="student1"><polygon class="cls-28" points="652.67 833.18 540.21 768.09 652.67 703.36 764.77 768.09 652.67 833.18"/><polygon class="cls-29" points="652.67 962.64 540.21 897.91 540.21 768.09 652.67 833.18 652.67 962.64"/><polygon class="cls-30" points="764.77 897.91 652.67 962.64 652.67 833.18 764.77 768.09 764.77 897.91"/><g id="Men_5" data-name="Men 5"><path class="cls-31" d="M885.47,870.65A38.4,38.4,0,0,0,914.4,867c6.87.36,44.84-15.91,49.9-2.53,4.34,11.93-11.93,23.14-20.61,25-19.17,4.7-33.27,14.1-40.87,15.91-5.78,1.09-13,2.17-17.71-2.53C879.68,897.77,880,877.88,885.47,870.65Z" transform="translate(-82 -13.6)"/><path class="cls-22" d="M902.82,902.11c7.6-1.81,21.7-11.21,40.87-15.91,7.23-1.81,19.89-9.77,21.33-19.53,1.81,10.85-13,20.61-21.33,22.78-19.17,4.7-33.27,14.1-40.87,15.91-5.78,1.09-13,2.17-17.71-2.53a12,12,0,0,1-2.54-4.7A21.73,21.73,0,0,0,902.82,902.11Z" transform="translate(-82 -13.6)"/><path class="cls-31" d="M817.48,834.48a38.35,38.35,0,0,0,28.93-3.61c6.87.36,44.84-15.91,49.91-2.53,4.33,11.93-11.94,22.78-20.62,24.95-19.16,4.7-33.27,14.46-40.86,15.91-5.79,1.09-13,1.81-17.72-2.53C811.33,861.24,812.06,841.36,817.48,834.48Z" transform="translate(-82 -13.6)"/><path class="cls-22" d="M834.84,866c7.59-1.81,21.7-11.21,40.86-15.92,7.24-1.8,19.89-9.76,21.34-19.52,1.81,10.85-13,20.61-21.34,22.78-19.16,4.7-33.27,14.1-40.86,15.55-5.79,1.08-13,1.81-17.72-2.53a12,12,0,0,1-2.53-4.7A21,21,0,0,0,834.84,866Z" transform="translate(-82 -13.6)"/><path class="cls-21" d="M711.17,787.11c29.65,13,57.13,14.83,79.91,2.9l23.51-13.75c1.45,30.38,2.89,59.67,2.89,59.67s18.08,13.74,32.19,1.45c0,0,2.89-42.67,5.78-84.62L880,738.66c-.72,2.17-.72,4.7-1.08,6.87.36,8,5.78,126.2,5.78,126.2s18.08,10.85,32.19-1.44c0,0,9.4-137.06,11.57-159.12,2.53-24.59-25-36.88-42.31-30.37-4,1.44-13.74,5.06-26.4,9.76.72-6.87,1.09-12.3,1.45-15.19,2.53-24.59-25-36.88-42.31-30.37C803,650.78,696.7,690.56,696.7,690.56a288.48,288.48,0,0,0,3.62,30.38l-42-3.62C656.2,757.46,681.51,774.09,711.17,787.11Zm73.4-68,28.21-16.28a32,32,0,0,0-.72,6.15Z" transform="translate(-82 -13.6)"/><path class="cls-32" d="M635.59,598s3.61,52.43,10.48,59.66,29.66,12.66,29.66,12.66l18.08,29.29s-16.28-93.66-19.89-95.83S635.59,598,635.59,598Z" transform="translate(-82 -13.6)"/><path id="_Контур_" data-name=" Контур " class="cls-33" d="M669.94,539.76a19.21,19.21,0,0,0-25,7.6c-6.51,10.85-13.38,48.09-14.1,54.6,0,0,9.4,12.66,23.14,10.49Z" transform="translate(-82 -13.6)"/><path id="_Контур_2" data-name=" Контур 2" class="cls-32" d="M676.09,540.49c9,.36,15.91,2.89,17,0a94.09,94.09,0,0,0,2.17-14.11,41.64,41.64,0,0,1-1.8-5.42c-11.21-6.87-14.83-19.17-16.28-33.63-2.53-24.59,10.49-45.93,35.08-48.46,22.78-2.53,39.78,13.74,44.48,35.8,2.53,10.85,7.23,31.46.72,49.54-3.61,10.13-8.31,18.09-13,19.53a88.35,88.35,0,0,1-13.74-1.08h0s-1.08,6.87-2.17,11.21-.36,6.51,8,11.93-13,16.27-27.12,15.19-30.38-9.76-34.72-18.81C669.58,552.06,669.94,540.13,676.09,540.49Z" transform="translate(-82 -13.6)"/><g id="_Группа_" data-name=" Группа "><g id="_Группа_2" data-name=" Группа 2"><g id="_Группа_3" data-name=" Группа 3"><path id="_Контур_3" data-name=" Контур 3" class="cls-34" d="M905,700.32h0a8.07,8.07,0,0,1-3.61,6.51l-69.07,39.78a6.55,6.55,0,0,1-7.23,0l-96.92-55.69a7.59,7.59,0,0,1-3.61-6.51v-.36Z" transform="translate(-82 -13.6)"/><path id="_Контур_4" data-name=" Контур 4" class="cls-34" d="M901.38,706.83l-69.07,39.78a6.15,6.15,0,0,1-3.62,1.09v-47H905A6.69,6.69,0,0,1,901.38,706.83Z" transform="translate(-82 -13.6)"/><g id="_Группа_4" data-name=" Группа 4"><path id="_Контур_5" data-name=" Контур 5" class="cls-24" d="M831.59,743a6.14,6.14,0,0,1-5.07,0L726,685.14a1.4,1.4,0,0,1,0-2.54l74.13-42.67,105.24,60.76Z" transform="translate(-82 -13.6)"/></g><g id="_Группа_5" data-name=" Группа 5"><polygon id="_Контур_6" data-name=" Контур 6" class="cls-35" points="685.22 686.72 685.58 687.08 717.76 705.53 735.48 695.4 735.84 695.04 703.3 676.24 685.22 686.72"/><polygon id="_Контур_7" data-name=" Контур 7" class="cls-34" points="685.58 687.08 717.76 705.53 735.48 695.4 703.3 676.96 685.58 687.08"/></g><path class="cls-36" d="M877.87,703.22l4.7,2.53a1.11,1.11,0,0,0,1.45,0l4.34-2.53c.36-.37.36-.73,0-.73l-4.7-2.53a1.11,1.11,0,0,0-1.45,0l-4.34,2.53C877.51,702.85,877.51,703.22,877.87,703.22Z" transform="translate(-82 -13.6)"/><path class="cls-36" d="M871.36,699.6l4.7,2.53a1.11,1.11,0,0,0,1.45,0l4.34-2.53c.36-.36.36-.72,0-.72l-4.7-2.53a1.09,1.09,0,0,0-1.45,0l-4.34,2.53C871,698.88,871,699.24,871.36,699.6Z" transform="translate(-82 -13.6)"/><path class="cls-36" d="M864.85,695.62l4.71,2.53a1.07,1.07,0,0,0,1.44,0l4.34-2.53c.36-.36.36-.72,0-.72l-4.7-2.53a1.11,1.11,0,0,0-1.45,0l-4.34,2.53C864.49,695.26,864.49,695.62,864.85,695.62Z" transform="translate(-82 -13.6)"/><path class="cls-36" d="M858.35,692l4.7,2.53a1.09,1.09,0,0,0,1.44,0l4.34-2.53c.36-.37.36-.73,0-.73l-4.34-2.89a1.1,1.1,0,0,0-1.44,0l-4.34,2.53C858,691.28,857.62,691.64,858.35,692Z" transform="translate(-82 -13.6)"/><path class="cls-36" d="M851.47,688.39l4.71,2.53a1.09,1.09,0,0,0,1.44,0l4.34-2.53c.36-.36.36-.72,0-.72l-4.7-2.9a1.11,1.11,0,0,0-1.45,0l-4.34,2.54C851.47,687.67,851.11,688,851.47,688.39Z" transform="translate(-82 -13.6)"/><path class="cls-36" d="M845,684.41l4.7,2.53a1.07,1.07,0,0,0,1.44,0l4.34-2.53c.36-.36.36-.72,0-.72l-4.7-2.53a1.11,1.11,0,0,0-1.45,0L845,683.69C844.6,683.69,844.6,684.05,845,684.41Z" transform="translate(-82 -13.6)"/><path class="cls-36" d="M838.46,680.8l4.7,2.89a1.1,1.1,0,0,0,1.44,0l4.34-2.53c.36-.36.36-.73,0-.73l-4.7-2.89a1.1,1.1,0,0,0-1.44,0l-4.34,2.53C838.09,680.07,838.09,680.43,838.46,680.8Z" transform="translate(-82 -13.6)"/><path class="cls-36" d="M832,676.82l4.7,2.53a1.09,1.09,0,0,0,1.44,0l4.34-2.53c.37-.36.37-.73,0-.73l-4.7-2.53a1.1,1.1,0,0,0-1.44,0L832,676.09C831.59,676.1,831.59,676.82,832,676.82Z" transform="translate(-82 -13.6)"/><path class="cls-36" d="M825.44,673.2l4.7,2.53a1.09,1.09,0,0,0,1.45,0l4.33-2.53c.37-.36.37-.72,0-.72l-4.7-2.89a1.07,1.07,0,0,0-1.44,0l-4.34,2.53A.67.67,0,0,0,825.44,673.2Z" transform="translate(-82 -13.6)"/><path class="cls-36" d="M818.93,669.22l4.7,2.54a1.11,1.11,0,0,0,1.45,0l4.34-2.54c.36-.36.36-.72,0-.72L824.71,666a1.1,1.1,0,0,0-1.44,0l-4.34,2.53C818.57,668.5,818.57,668.86,818.93,669.22Z" transform="translate(-82 -13.6)"/><path class="cls-36" d="M812.06,665.61l4.7,2.53a1.11,1.11,0,0,0,1.45,0l4.33-2.53c.37-.36.37-.73,0-.73l-4.7-2.53a1.09,1.09,0,0,0-1.44,0l-4.34,2.53A.51.51,0,0,0,812.06,665.61Z" transform="translate(-82 -13.6)"/><path class="cls-36" d="M805.55,661.63l4.7,2.53a1.11,1.11,0,0,0,1.45,0l4.34-2.53c.36-.36.36-.72,0-.72l-4.71-2.53a1.07,1.07,0,0,0-1.44,0l-4.34,2.53C805.19,661.27,805.19,661.27,805.55,661.63Z" transform="translate(-82 -13.6)"/><path class="cls-36" d="M799,658l4.7,2.54a1.11,1.11,0,0,0,1.45,0l4.34-2.54c.36-.36.36-.72,0-.72l-4.7-2.53a1.11,1.11,0,0,0-1.45,0L799,657.29C798.68,657.29,798.68,657.65,799,658Z" transform="translate(-82 -13.6)"/><path class="cls-36" d="M789.28,652.23l8,4.34a1.11,1.11,0,0,0,1.45,0L803,654c.36-.37.36-.73,0-.73l-8-4.7a1.1,1.1,0,0,0-1.44,0l-4.34,2.53C788.91,651.5,788.91,652.23,789.28,652.23Z" transform="translate(-82 -13.6)"/><path class="cls-36" d="M861.6,701.41l4.7,2.53a1.11,1.11,0,0,0,1.45,0l4.34-2.53c.36-.36.36-.72,0-.72l-4.7-2.54a1.11,1.11,0,0,0-1.45,0l-4.34,2.54A.5.5,0,0,0,861.6,701.41Z" transform="translate(-82 -13.6)"/><path class="cls-36" d="M855.09,697.79l4.7,2.53a1.09,1.09,0,0,0,1.45,0l4.34-2.53c.36-.36.36-.72,0-.72l-4.7-2.53a1.11,1.11,0,0,0-1.45,0l-4.34,2.53C854.73,697.07,854.73,697.43,855.09,697.79Z" transform="translate(-82 -13.6)"/><path class="cls-36" d="M848.58,693.81l4.7,2.54a1.11,1.11,0,0,0,1.45,0l4.34-2.54c.36-.36.36-.72,0-.72l-4.7-2.53a1.11,1.11,0,0,0-1.45,0l-4.34,2.53C848.22,693.09,848.22,693.81,848.58,693.81Z" transform="translate(-82 -13.6)"/><path class="cls-36" d="M842.07,690.2l4.7,2.53a1.11,1.11,0,0,0,1.45,0l4.34-2.53c.36-.36.36-.73,0-.73l-4.7-2.53a1.11,1.11,0,0,0-1.45,0l-4.34,2.53C841.71,689.47,841.71,689.84,842.07,690.2Z" transform="translate(-82 -13.6)"/><path class="cls-36" d="M835.56,686.22l4.7,2.53a1.11,1.11,0,0,0,1.45,0l4.34-2.53c.36-.36.36-.72,0-.72l-4.7-2.9a1.11,1.11,0,0,0-1.45,0l-4.34,2.54C835.2,685.5,835.2,686.22,835.56,686.22Z" transform="translate(-82 -13.6)"/><path class="cls-36" d="M829.05,682.6l4.7,2.54a1.11,1.11,0,0,0,1.45,0l4.34-2.54c.36-.36.36-.72,0-.72l-4.7-2.89a1.11,1.11,0,0,0-1.45,0l-4.34,2.53A.68.68,0,0,0,829.05,682.6Z" transform="translate(-82 -13.6)"/><path class="cls-36" d="M822.18,678.63l4.7,2.53a1.11,1.11,0,0,0,1.45,0l4.34-2.53c.36-.37.36-.73,0-.73l-4.7-2.53a1.11,1.11,0,0,0-1.45,0l-4.34,2.53A.51.51,0,0,0,822.18,678.63Z" transform="translate(-82 -13.6)"/><path class="cls-36" d="M815.67,675l4.7,2.53a1.11,1.11,0,0,0,1.45,0l4.34-2.53c.36-.36.36-.72,0-.72l-4.7-2.53a1.09,1.09,0,0,0-1.45,0l-4.34,2.53C815.31,674.29,815.31,674.65,815.67,675Z" transform="translate(-82 -13.6)"/><path class="cls-36" d="M809.16,671l4.71,2.53a1.07,1.07,0,0,0,1.44,0l4.34-2.53c.36-.36.36-.72,0-.72l-4.7-2.53a1.11,1.11,0,0,0-1.45,0l-4.34,2.53C808.8,670.31,808.8,670.67,809.16,671Z" transform="translate(-82 -13.6)"/><path class="cls-36" d="M802.66,667.42l4.7,2.53a1.09,1.09,0,0,0,1.44,0l4.34-2.53c.36-.37.36-.73,0-.73l-4.7-2.53a1.11,1.11,0,0,0-1.45,0l-4.33,2.53C802.29,666.69,802.29,667.05,802.66,667.42Z" transform="translate(-82 -13.6)"/><path class="cls-36" d="M796.15,663.44l4.7,2.53a1.09,1.09,0,0,0,1.44,0l4.34-2.53c.36-.36.36-.72,0-.72l-4.7-2.54a1.1,1.1,0,0,0-1.44,0l-4.34,2.54C795.78,663.08,795.78,663.08,796.15,663.44Z" transform="translate(-82 -13.6)"/><path class="cls-36" d="M789.64,659.82l4.7,2.53a1.07,1.07,0,0,0,1.44,0l4.34-2.53c.37-.36.37-.72,0-.72l-4.7-2.53a1.09,1.09,0,0,0-1.44,0l-4.34,2.53C789.28,659.1,788.91,659.46,789.64,659.82Z" transform="translate(-82 -13.6)"/><path class="cls-36" d="M868.47,705.39l8,4.34a1.09,1.09,0,0,0,1.44,0l4.34-2.54c.36-.36.36-.72,0-.72l-8-4.34a1.11,1.11,0,0,0-1.45,0l-4.34,2.53C868.11,704.66,868.11,705,868.47,705.39Z" transform="translate(-82 -13.6)"/><path class="cls-36" d="M788.91,652.59l4.71,2.53c.36.36.36.72,0,.72l-4.71,2.9a1.09,1.09,0,0,1-1.44,0l-.36-.36c-.37-.37-.73-.37-1.45,0l-5.06,2.89a1.11,1.11,0,0,1-1.45,0l-2.89-1.81c-.36,0-.36-.36-.36-.72l.36-.36,4.7-2.54,1.08-.36.73-.36.72-.36,4-2.17A1.09,1.09,0,0,1,788.91,652.59Z" transform="translate(-82 -13.6)"/><path class="cls-36" d="M852.56,718l4.7,2.53a1.09,1.09,0,0,0,1.45,0l4.34-2.53c.36-.36.36-.72,0-.72l-4.7-2.53a1.11,1.11,0,0,0-1.45,0l-4.34,2.53C852.2,717.32,852.2,717.68,852.56,718Z" transform="translate(-82 -13.6)"/><path class="cls-36" d="M845.69,714.43l4.7,2.53a1.11,1.11,0,0,0,1.45,0l4.34-2.53c.36-.36.36-.73,0-.73l-4.71-2.53a1.1,1.1,0,0,0-1.44,0l-4.34,2.53A.51.51,0,0,0,845.69,714.43Z" transform="translate(-82 -13.6)"/><path class="cls-36" d="M839.18,710.45l4.7,2.53a1.11,1.11,0,0,0,1.45,0l4.34-2.53c.36-.36.36-.72,0-.72l-4.7-2.54a1.11,1.11,0,0,0-1.45,0l-4.34,2.54C838.82,710.09,838.82,710.45,839.18,710.45Z" transform="translate(-82 -13.6)"/><path class="cls-36" d="M783.49,678.26l4.7,2.54a1.11,1.11,0,0,0,1.45,0l4.34-2.54c.36-.36.36-.72,0-.72l-4.7-2.53a1.11,1.11,0,0,0-1.45,0l-4.34,2.53C783.13,677.54,783.13,677.9,783.49,678.26Z" transform="translate(-82 -13.6)"/><path class="cls-36" d="M777,674.65l4.7,2.53a1.11,1.11,0,0,0,1.45,0l4.34-2.53c.36-.36.36-.72,0-.72l-4.7-2.54a1.11,1.11,0,0,0-1.45,0L777,673.93C776.62,673.93,776.62,674.29,777,674.65Z" transform="translate(-82 -13.6)"/><path class="cls-36" d="M770.47,670.67l4.7,2.53a1.11,1.11,0,0,0,1.45,0l4.34-2.53c.36-.36.36-.72,0-.72l-4.7-2.53a1.09,1.09,0,0,0-1.45,0L770.47,670C770.11,670.31,770.11,670.67,770.47,670.67Z" transform="translate(-82 -13.6)"/><path class="cls-36" d="M764,667.05l4.7,2.9a1.11,1.11,0,0,0,1.45,0l4.34-2.53c.36-.37.36-.73,0-.73l-4.7-2.89a1.11,1.11,0,0,0-1.45,0L764,666.33C763.6,666.33,763.6,666.69,764,667.05Z" transform="translate(-82 -13.6)"/><path class="cls-36" d="M831.22,705.75l6.51,3.61a1.09,1.09,0,0,0,1.45,0l4.34-2.53c.36-.36.36-.72,0-.72L837,702.49a1.11,1.11,0,0,0-1.45,0L831.22,705C830.86,705,830.5,705.39,831.22,705.75Z" transform="translate(-82 -13.6)"/><path class="cls-36" d="M790,682.24l6.51,3.62a1.09,1.09,0,0,0,1.44,0l4.34-2.53c.37-.36.37-.73,0-.73L795.78,679a1.1,1.1,0,0,0-1.44,0L790,681.52C789.64,681.52,789.64,681.88,790,682.24Z" transform="translate(-82 -13.6)"/><path class="cls-36" d="M798.32,686.94l30.73,17.72a1.11,1.11,0,0,0,1.45,0l4.34-2.53c.36-.36.36-.72,0-.72L804.1,683.69a1.1,1.1,0,0,0-1.44,0l-4.34,2.53C798,686.22,798,686.58,798.32,686.94Z" transform="translate(-82 -13.6)"/><path class="cls-36" d="M853.64,703.94l4.71,2.53a1.09,1.09,0,0,0,1.44,0l4.34-2.53c.36-.36.36-.72,0-.72l-4.7-2.53a1.09,1.09,0,0,0-1.45,0l-4.34,2.53C853.28,703.58,853.28,703.94,853.64,703.94Z" transform="translate(-82 -13.6)"/><path class="cls-36" d="M847.13,700.32l4.71,2.53a1.07,1.07,0,0,0,1.44,0l4.34-2.53c.36-.36.36-.72,0-.72l-4.7-2.89a1.11,1.11,0,0,0-1.45,0l-4.34,2.53A.67.67,0,0,0,847.13,700.32Z" transform="translate(-82 -13.6)"/><path class="cls-36" d="M840.63,696.35l4.7,2.53a1.1,1.1,0,0,0,1.44,0l4.34-2.53c.36-.37.36-.73,0-.73l-4.7-2.53a1.09,1.09,0,0,0-1.44,0l-4.34,2.53C840.26,696,840.26,696.35,840.63,696.35Z" transform="translate(-82 -13.6)"/><path class="cls-36" d="M834.12,692.73l4.7,2.53a1.09,1.09,0,0,0,1.44,0l4.34-2.53c.37-.36.37-.72,0-.72l-4.7-2.54a1.09,1.09,0,0,0-1.44,0L834.12,692C833.75,692,833.75,692.37,834.12,692.73Z" transform="translate(-82 -13.6)"/><path class="cls-36" d="M827.25,688.75l4.7,2.53a1.1,1.1,0,0,0,1.44,0l4.34-2.53c.36-.36.36-.72,0-.72L833,685.5a1.1,1.1,0,0,0-1.44,0L827.25,688C826.88,688.39,826.88,688.75,827.25,688.75Z" transform="translate(-82 -13.6)"/><path class="cls-36" d="M820.74,685.14l4.7,2.53a1.1,1.1,0,0,0,1.44,0l4.34-2.53c.37-.37.37-.73,0-.73l-4.7-2.53a1.09,1.09,0,0,0-1.44,0l-4.34,2.53C820.37,684.41,820.37,684.77,820.74,685.14Z" transform="translate(-82 -13.6)"/><path class="cls-36" d="M814.23,681.16l4.7,2.53a1.09,1.09,0,0,0,1.44,0l4.34-2.53c.37-.36.37-.73,0-.73l-4.34-2.89a1.1,1.1,0,0,0-1.44,0l-4.34,2.53C813.87,680.8,813.87,681.16,814.23,681.16Z" transform="translate(-82 -13.6)"/><path class="cls-36" d="M807.72,677.54l4.7,2.53a1.11,1.11,0,0,0,1.45,0l4.34-2.53c.36-.36.36-.72,0-.72l-4.71-2.53a1.1,1.1,0,0,0-1.44,0l-4.34,2.53C807.36,676.82,807.36,677.54,807.72,677.54Z" transform="translate(-82 -13.6)"/><path class="cls-36" d="M801.21,673.93l4.7,2.53a1.11,1.11,0,0,0,1.45,0l4.34-2.53c.36-.37.36-.73,0-.73L807,670.31a1.1,1.1,0,0,0-1.44,0l-4.34,2.53A.69.69,0,0,0,801.21,673.93Z" transform="translate(-82 -13.6)"/><path class="cls-36" d="M794.7,670l4.7,2.53a1.11,1.11,0,0,0,1.45,0l4.34-2.53c.36-.36.36-.73,0-.73l-4.34-2.53a1.11,1.11,0,0,0-1.45,0l-4.34,2.53C794.34,669.59,794.34,670,794.7,670Z" transform="translate(-82 -13.6)"/><path class="cls-36" d="M787.83,666.33l4.7,2.53a1.11,1.11,0,0,0,1.45,0l4.34-2.53c.36-.36.36-.72,0-.72l-4.7-2.53a1.09,1.09,0,0,0-1.45,0l-4.34,2.53Z" transform="translate(-82 -13.6)"/><path class="cls-36" d="M781.32,662.35l4.7,2.53a1.09,1.09,0,0,0,1.45,0l4.34-2.53c.36-.36.36-.72,0-.72l-4.7-2.53a1.11,1.11,0,0,0-1.45,0l-4.34,2.53S781,662.35,781.32,662.35Z" transform="translate(-82 -13.6)"/><path class="cls-36" d="M860.15,707.92l9.77,5.42a1.09,1.09,0,0,0,1.44,0l4.34-2.53c.36-.36.36-.72,0-.72l-9.76-5.43a1.11,1.11,0,0,0-1.45,0l-4.34,2.53C859.79,707.19,859.79,707.56,860.15,707.92Z" transform="translate(-82 -13.6)"/><path class="cls-36" d="M850.39,709.73l4.7,2.89a1.11,1.11,0,0,0,1.45,0l4.34-2.53c.36-.36.36-.73,0-.73l-4.34-2.89a1.11,1.11,0,0,0-1.45,0L850.75,709C850,709,850,709.36,850.39,709.73Z" transform="translate(-82 -13.6)"/><path class="cls-36" d="M843.88,705.75l4.7,2.53a1.11,1.11,0,0,0,1.45,0l4.34-2.53c.36-.36.36-.73,0-.73l-4.7-2.53a1.11,1.11,0,0,0-1.45,0L843.88,705C843.52,705.39,843.52,705.75,843.88,705.75Z" transform="translate(-82 -13.6)"/><path class="cls-36" d="M837.37,702.13l4.7,2.53a1.11,1.11,0,0,0,1.45,0l4.34-2.53c.36-.36.36-.72,0-.72l-4.7-2.53a1.11,1.11,0,0,0-1.45,0l-4.34,2.53C837,701.41,837,701.77,837.37,702.13Z" transform="translate(-82 -13.6)"/><path class="cls-36" d="M830.86,698.15l4.7,2.54a1.11,1.11,0,0,0,1.45,0l4.34-2.54c.36-.36.36-.72,0-.72l-4.7-2.53a1.11,1.11,0,0,0-1.45,0l-4.34,2.53C830.5,697.79,830.5,698.15,830.86,698.15Z" transform="translate(-82 -13.6)"/><path class="cls-36" d="M824.35,694.54l4.7,2.53a1.11,1.11,0,0,0,1.45,0l4.34-2.53c.36-.36.36-.73,0-.73l-4.7-2.53a1.11,1.11,0,0,0-1.45,0l-4.34,2.53C824,693.81,824,694.18,824.35,694.54Z" transform="translate(-82 -13.6)"/><path class="cls-36" d="M817.84,690.56l4.7,2.53a1.11,1.11,0,0,0,1.45,0l4.34-2.53c.36-.36.36-.72,0-.72l-4.7-2.53a1.09,1.09,0,0,0-1.45,0l-4.34,2.53C817.48,690.2,817.48,690.56,817.84,690.56Z" transform="translate(-82 -13.6)"/><path class="cls-36" d="M811.33,686.94l4.71,2.54a1.09,1.09,0,0,0,1.44,0l4.34-2.54c.36-.36.36-.72,0-.72l-4.7-2.53a1.11,1.11,0,0,0-1.45,0l-4.34,2.53C811,686.22,810.61,686.58,811.33,686.94Z" transform="translate(-82 -13.6)"/><path class="cls-36" d="M804.46,683l4.7,2.53a1.11,1.11,0,0,0,1.45,0L815,683c.36-.37.36-.73,0-.73l-4.7-2.53a1.11,1.11,0,0,0-1.45,0l-4.34,2.53C804.1,682.6,804.1,683,804.46,683Z" transform="translate(-82 -13.6)"/><path class="cls-36" d="M798,679.35l4.71,2.53a1.1,1.1,0,0,0,1.44,0l4.34-2.53c.36-.36.36-.72,0-.72l-4.7-2.54a1.11,1.11,0,0,0-1.45,0L798,678.63C797.59,678.63,797.59,679,798,679.35Z" transform="translate(-82 -13.6)"/><path class="cls-36" d="M791.45,675.73l4.7,2.53a1.07,1.07,0,0,0,1.44,0l4.34-2.53c.36-.36.36-.72,0-.72l-4.7-2.53a1.11,1.11,0,0,0-1.45,0L791.45,675C791.08,675,791.08,675.37,791.45,675.73Z" transform="translate(-82 -13.6)"/><path class="cls-36" d="M784.94,671.76l4.7,2.53a1.09,1.09,0,0,0,1.44,0l4.34-2.53c.36-.37.36-.73,0-.73l-4.7-2.53a1.1,1.1,0,0,0-1.44,0L784.94,671C784.57,671,784.57,671.39,784.94,671.76Z" transform="translate(-82 -13.6)"/><path class="cls-36" d="M770.11,663.44l12.66,7.23a1.09,1.09,0,0,0,1.44,0l4.34-2.53c.36-.36.36-.72,0-.72l-12.65-7.24a1.11,1.11,0,0,0-1.45,0l-4.34,2.54C769.75,662.72,769.75,663.08,770.11,663.44Z" transform="translate(-82 -13.6)"/><path class="cls-36" d="M857.26,713.34l6.51,3.62a1.11,1.11,0,0,0,1.45,0l4.34-2.53c.36-.36.36-.73,0-.73l-6.51-3.61a1.11,1.11,0,0,0-1.45,0l-4.34,2.53C856.9,713,856.54,713.34,857.26,713.34Z" transform="translate(-82 -13.6)"/></g><g id="_Группа_6" data-name=" Группа 6"><g id="_Группа_7" data-name=" Группа 7"><g id="_Группа_8" data-name=" Группа 8"><path id="_Контур_8" data-name=" Контур 8" class="cls-34" d="M905,700.32h0L799.76,639.57V556.76l.73-1.81.72-.36h0a6.55,6.55,0,0,1,7.23,0l96.19,55.69a7.47,7.47,0,0,1,3.62,6.15v77.75C908.25,698.15,907.53,699.24,905,700.32Z" transform="translate(-82 -13.6)"/><path id="_Контур_9" data-name=" Контур 9" class="cls-34" d="M895.59,620l-95.47-60.75V556.4l.73-1.81.72-.36a6.55,6.55,0,0,1,7.23,0L905,609.92a11.07,11.07,0,0,1,2.9,2.89Z" transform="translate(-82 -13.6)"/><path id="_Контур_10" data-name=" Контур 10" class="cls-37" d="M802.29,555l101.26,58.22a3.82,3.82,0,0,1,1.81,3.26v83.89L800.12,639.57V556.4c0-.72.73-1.81,1.45-1.81C801.93,554.59,801.93,555,802.29,555Z" transform="translate(-82 -13.6)"/><path id="_Контур_11" data-name=" Контур 11" class="cls-24" d="M802.29,555l101.26,58.22a3.82,3.82,0,0,1,1.81,3.26v83.89L800.12,639.57V556.4c0-.72.73-1.81,1.45-1.81C801.93,554.59,801.93,555,802.29,555Z" transform="translate(-82 -13.6)"/><polygon id="_Контур_12" data-name=" Контур 12" class="cls-38" points="822.99 686.72 822.99 683.83 717.76 623.08 717.76 625.97 822.99 686.72"/></g><polygon id="_Контур_13" data-name=" Контур 13" class="cls-39" points="720.66 621.63 720.66 545.69 722.1 546.41 722.1 620.91 720.66 621.63"/><polygon id="_Контур_14" data-name=" Контур 14" class="cls-36" points="722.1 546.41 722.1 620.91 819.74 677.32 819.74 602.83 722.1 546.41"/><polygon id="_Контур_15" data-name=" Контур 15" class="cls-40" points="720.66 621.63 819.74 678.77 819.74 677.32 722.1 620.91 720.66 621.63"/></g></g></g></g><path id="_Контур_16" data-name=" Контур 16" class="cls-41" d="M689.11,541.93c-2.53,6.15,4,13.75,21,19.17s18.44-1.45,18.44-1.45a354.78,354.78,0,0,1,32.91,17c10.13,7.23,14.83,27.84,15.91,62.56,1.45,40.14,1.81,100.17.36,110.29,0,0-19.16,18.81-43.39,17S668.86,743,659.09,726.36c.36-35.44,4.34-41.22-1.44-61.48-13-46.64-19.89-65.45-13.75-96.55,5.07-25.31,12.66-28.57,22.79-28.57A112.86,112.86,0,0,1,689.11,541.93Z" transform="translate(-82 -13.6)"/><path id="_Контур_17" data-name=" Контур 17" class="cls-32" d="M817.84,682.24c-19.89,5.07-24.59-7.59-27.12-18.08-6.15-25.31-9.76-48.09-14.46-62.56-5.43-17-11.57-19.53-19.53-22.78-9.76-4-18.08,4.34-14.83,25.67,3.62,25.32,8.68,43.4,18.45,73.41,2.53,8,7.95,21.7,16.27,28.57,10.49,8.32,26,8,49.54,2.17,10.13-2.53,21-8.68,39.78-17.36,5.06-2.17,9-4,18.8-8.68a66.13,66.13,0,0,0,25-19.52c5.06-7.24,5.78-10.85,4.7-12.66s-3.62-1.81-6.51,1.45a56.57,56.57,0,0,1-14.47,13.38s6.15-6.51,9.77-10.85a55.33,55.33,0,0,0,7.95-12.3c1.81-4.34-1.81-10.12-4.7-7.23s-4.34,6.15-9.4,12.3a53.77,53.77,0,0,1-9.4,8.67,111.24,111.24,0,0,0,8.68-13.74,24.1,24.1,0,0,0,3.25-12.29c0-2.17-3.25-5.06-6.51-.73s-4.34,9.77-10.85,16.28c-4.7,4.7-8.32,7.59-8.68,6.15s2.9-4,4.34-9.41,0-11.21-2.89-11.93-2.53-.36-4.7,4.7-6.15,9-9,16.64a31.24,31.24,0,0,1-8.32,14.1C847.5,671.76,836.65,677.54,817.84,682.24Z" transform="translate(-82 -13.6)"/><path id="_Контур_18" data-name=" Контур 18" class="cls-33" d="M748.77,575.2c13.38-1.81,22.79,4,28.57,24.23s10.13,36.89,10.13,36.89a36.58,36.58,0,0,1-22.42,14.82c-15.91,4-21.7-3.61-21.7-3.61s-4.34-21.34-7.23-35.8S732.5,577.73,748.77,575.2Z" transform="translate(-82 -13.6)"/><path class="cls-42" d="M755.28,471.78s21-32.18-24.59-38.69c-32.9-4.7-54.24,16.27-56.41,39.41-2.17,22.06,11.21,44.84,21,53.88,4.71,1.81,14.83,2.54,28.57-3.61a149.85,149.85,0,0,0,.73-18.08C724.18,504.69,708.27,471.06,755.28,471.78Z" transform="translate(-82 -13.6)"/></g><polygon class="cls-30" points="764.77 863.92 764.77 767.73 688.47 812.2 717.76 873.32 764.77 863.92"/><polygon class="cls-28" points="714.87 773.15 744.16 756.15 764.77 768.09 734.4 785.44 714.87 773.15"/></g><g id="student2"><polygon class="cls-28" points="388.78 624.51 291.58 568.25 388.78 512.3 485.67 568.25 388.78 624.51"/><polygon class="cls-29" points="388.78 736.4 291.58 680.45 291.58 568.25 388.78 624.51 388.78 736.4"/><polygon class="cls-30" points="485.67 680.45 388.78 736.4 388.78 624.51 485.67 568.25 485.67 680.45"/><polygon class="cls-30" points="485.67 651.07 485.67 567.94 419.73 606.38 445.04 659.2 485.67 651.07"/><polygon class="cls-28" points="442.54 572.62 467.86 557.93 485.67 568.25 459.42 583.25 442.54 572.62"/><path class="cls-43" d="M521,512.29c8.26,12.61,17,21.09,28.06,31.68,1.59,1.49,5.63.2,7.38-.27,3.15-.85,5-2,8.39-.75a53.45,53.45,0,0,1,5.55,2.81,34.89,34.89,0,0,0,8.8,3.17,48.41,48.41,0,0,0-3.23-5c-5.06-6.79-12.46-11.53-18.19-17.87A181.87,181.87,0,0,1,541,504.7c-7-13.24-14.61-35.28-17.76-44C517.82,446,512.79,424.17,508.94,414s-10.76-13.76-17.57-14.88c-8.07-1.31-12.94.92-11,9.6C483.73,424,500.09,483,521,512.29Z" transform="translate(-82 -13.6)"/><path class="cls-44" d="M502.16,747.69c6.78,5,16.77.45,17.28.92a304.45,304.45,0,0,0,25,19.16c4.22,3.08,10.76,7.17,9.61,13-2.13,10.51-20.4,7.29-27.29,4.07s-12.54-8.56-19.05-12.4c-4.66-2.68-9.23-4-10-9.47C497.29,759.86,501,747.47,502.16,747.69Z" transform="translate(-82 -13.6)"/><path class="cls-45" d="M497.83,761c.89,5.18,5.38,6.62,10,9.25,6.62,3.82,12.46,9.27,19.35,12.4,6.37,3,22.28,5.92,26.74-1.59-2.42,10.14-20.39,7-27.2,3.77s-12.54-8.55-19.05-12.4c-4.66-2.68-9.23-4-10-9.47A9.2,9.2,0,0,1,497.83,761Z" transform="translate(-82 -13.6)"/><path class="cls-44" d="M570.89,711.22c6.76,5.08,18.62-.47,19.13,0a248.14,248.14,0,0,0,22.34,18.59c4.22,3.05,10.76,7.14,9.61,13-2.13,10.52-20.4,7.27-27.32,4.07s-12.51-8.55-19-12.4c-4.66-2.65-9.23-4-10-9.44C565.21,721.9,569.68,711.1,570.89,711.22Z" transform="translate(-82 -13.6)"/><path class="cls-45" d="M565.86,723.71c.89,5.21,5.38,6.62,10,9.28,6.62,3.79,12.46,9.27,19.34,12.39,6.38,3,22.29,5.93,26.75-1.58-2.45,10.14-20.4,7-27.2,3.79s-12.54-8.55-19.06-12.4c-4.65-2.65-9.23-4-10-9.44A9.3,9.3,0,0,1,565.86,723.71Z" transform="translate(-82 -13.6)"/><path class="cls-46" d="M411.59,547.64C404.08,590.85,425,607,452,616.17c19.48,6.59,47.33,16.76,47.33,16.76s-.37,9.49-.59,30.76c-.19,18.75,2.48,87.2,2.48,87.2s11.22,5.35,20.75-.23c0,0,10.92-52.43,13.23-76.06,3.15-32.08,8.48-53.05,6.71-60-1.57-6.1-39.62-23.33-51.67-32.55l79.68,24.62a118.77,118.77,0,0,0-2.29,24.15c.73,25.43,2.23,80.5,2.23,80.5s11,7.29,20.27.15c0,0,20-109.09,17.62-123.47-2.31-13.71-72.65-41.7-84.9-51.34a21.19,21.19,0,0,0-15.63-3.87Z" transform="translate(-82 -13.6)"/><path class="cls-43" d="M439.33,385s1.13,20.58.64,22.32-10.25,7.85-13.1,9.91,15.45,18.79,24.22,22.54,37.05-6.13,37.67-18.89-4.84-23.46-9.15-24S439.33,385,439.33,385Z" transform="translate(-82 -13.6)"/><path class="cls-47" d="M436.83,410.91s16.14,22.31,38.83,24.35c7.13-6.47,7.77-29.53-2.1-36.9,0,0,9.07-6.74,15.28-5.42a29.91,29.91,0,0,1,14,16.41A125,125,0,0,1,510.88,457c-.37,21.85,0,77.06,0,77.06s-3.39,21.1-23.81,31.61a79.3,79.3,0,0,1-53.82,6.82c-11.47-2.48-15.72-8.38-19.67-16,1-15.3,7.61-46.81,4.84-66s-7.18-33.62-8.34-49.19,2.23-15.22,10.76-20.77A134.14,134.14,0,0,1,436.83,410.91Z" transform="translate(-82 -13.6)"/><polygon class="cls-48" points="349.61 582.58 349.63 585.33 424.87 625.62 424.87 622.87 349.61 582.58"/><polygon class="cls-49" points="424.87 622.87 424.87 625.62 541.88 563.39 541.85 560.64 424.87 622.87"/><polygon class="cls-12" points="349.61 582.58 424.87 622.87 541.85 560.64 466.61 520.35 349.61 582.58"/><polygon class="cls-50" points="357.6 573.26 426.35 610.08 477.24 585.75 406.04 547.45 357.6 573.26"/><path class="cls-15" d="M492.07,562.44l-1.37,5.48,71.15,35.5,53.42-36.67-68.73-36.81L497,556.29A9.65,9.65,0,0,0,492.07,562.44Z" transform="translate(-82 -13.6)"/><polygon class="cls-50" points="408.43 548.91 408.46 557.14 475.7 591.31 477.16 585.71 408.43 548.91"/><path class="cls-51" d="M508.35,623.68v8.25L561.8,603.5h0a5,5,0,0,0-5.14-4.8,5.47,5.47,0,0,0-2.64.66Z" transform="translate(-82 -13.6)"/><path class="cls-51" d="M561.85,599.6v3.82L615.29,575v-8.26L566,593A7.58,7.58,0,0,0,561.85,599.6Z" transform="translate(-82 -13.6)"/><polygon class="cls-52" points="431.52 551.37 432.78 552.04 473.18 530.57 472.53 530.22 471.91 529.87 431.52 551.37"/><polygon class="cls-52" points="423.77 547.2 425.03 547.9 465.43 526.4 464.81 526.08 464.16 525.73 423.77 547.2"/><polygon class="cls-52" points="439.24 555.51 440.56 556.2 480.95 534.71 480.28 534.36 479.63 534.01 439.24 555.51"/><polygon class="cls-52" points="446.99 559.65 448.28 560.34 488.68 538.85 488.06 538.52 487.41 538.18 446.99 559.65"/><polygon class="cls-52" points="454.74 563.79 456.03 564.48 496.43 543.01 495.78 542.66 495.13 542.32 454.74 563.79"/><polygon class="cls-52" points="462.49 567.95 463.78 568.65 504.2 547.15 503.53 546.81 502.88 546.46 462.49 567.95"/><polygon class="cls-52" points="470.24 572.09 471.53 572.79 511.93 551.29 511.28 550.95 510.63 550.62 470.24 572.09"/><polygon class="cls-52" points="477.99 576.23 479.28 576.95 519.68 555.46 519.03 555.11 518.38 554.76 477.99 576.23"/><polygon class="cls-52" points="372 575.64 373.29 576.31 413.65 554.84 413 554.49 412.36 554.17 372 575.64"/><polygon class="cls-52" points="379.72 579.78 381.04 580.47 421.4 559 420.75 558.66 420.11 558.31 379.72 579.78"/><polygon class="cls-52" points="387.5 583.92 388.76 584.61 429.15 563.14 428.5 562.8 427.86 562.45 387.5 583.92"/><polygon class="cls-52" points="395.25 588.09 396.51 588.75 436.9 567.28 436.23 566.94 435.61 566.62 395.25 588.09"/><polygon class="cls-52" points="410.75 596.37 412.01 597.06 452.37 575.59 451.75 575.24 451.11 574.89 410.75 596.37"/><polygon class="cls-52" points="402.97 592.23 404.29 592.92 444.65 571.45 444 571.1 443.36 570.75 402.97 592.23"/><polygon class="cls-52" points="418.5 600.53 419.76 601.23 460.15 579.73 459.5 579.38 458.86 579.06 418.5 600.53"/><polygon class="cls-52" points="426.22 604.67 427.54 605.37 467.9 583.89 467.25 583.55 466.58 583.2 426.22 604.67"/><polygon class="cls-52" points="357.6 573.26 357.6 581.51 426.22 618.33 426.22 610.08 357.6 573.26"/><path class="cls-43" d="M462.82,588.27c-4-1.81-6.89-4.56-12.7-6.71a27.2,27.2,0,0,1-10.76-6c-4-3.6-10.47-17.16-15.13-30.4a125.61,125.61,0,0,1-5.38-45.94c2-18.57,9.23-44.63,11.06-55.19s-1.91-14.87-7.29-18.86c-6.33-4.62-15.07-2.48-19.73,12.39a266.5,266.5,0,0,0-10.41,63.37,134.18,134.18,0,0,0,7.88,46.83c4.87,14,11.22,24.13,19.38,36.8,2.21,3.44,2.93,6.52,6.32,13.56a48.2,48.2,0,0,0,14.86,18.17c5.67,3.77,8.37,4.29,9.68,3.57s1.35-2.48-1.05-4.56a41.14,41.14,0,0,1-10.11-10.46s4.95,4.58,8.2,7.09a42.52,42.52,0,0,0,9.5,5.57c3.31,1.34,7.94-1.23,5.57-3.32s-4.76-3-9.5-6.84a39.32,39.32,0,0,1-6.72-6.74A79.47,79.47,0,0,0,457,606.84a18.6,18.6,0,0,0,9.61,2.48c1.74,0,3.87-2.3.59-4.51s-7.59-3.32-12.57-7.91c-3.63-3.32-5.68-6.12-4.65-6.2s3,2,7.23,3.28,8.83,0,9.37-2S466.8,590.08,462.82,588.27Z" transform="translate(-82 -13.6)"/><path class="cls-43" d="M489.89,354.26h0c-2.69-16-15.17-28.09-33-27.27-19,1-33.61,16-32.55,33.53a1.15,1.15,0,0,1,0,.19,31,31,0,0,0,15,24.32,30.51,30.51,0,0,0,2.69,7c6.32,6.82,25.43,11,31,10.31,7-.94,10.76-3.64,14.23-10.76C493.2,378.93,491.21,362.17,489.89,354.26Z" transform="translate(-82 -13.6)"/><path class="cls-53" d="M389.33,465s15.93,14.6,34.79,10.39c2.7-1.69,9.18-35.83,9.18-35.83s0-18.92-15.74-18.42S389.33,465,389.33,465Z" transform="translate(-82 -13.6)"/><path class="cls-53" d="M509.7,436.62s8.31-.37,11.76-5c-.62-7.64-11.25-36.67-32.62-38.82a37.38,37.38,0,0,1,13.46,14.87C506.09,416.54,509.7,436.62,509.7,436.62Z" transform="translate(-82 -13.6)"/><path id="hair" class="cls-54" d="M493.19,313.19a7.68,7.68,0,0,0-5.95-4.57,6.71,6.71,0,0,0-1.9.07c-.23.05-.28.12-.41,0a1.87,1.87,0,0,1-.2-.53,10.58,10.58,0,0,0-3.71-4.67,12.81,12.81,0,0,0-8.09-2.58,10.7,10.7,0,0,0-4.39,1.27,17.57,17.57,0,0,0-2,1.27c-.2.14-.8.78-1,.77s-.82-.54-1-.66a13.27,13.27,0,0,0-8.7-1.41c-3.33.5-6.51,1.12-8.95,3.61a19.17,19.17,0,0,0-1.44,1.67c-.24.31-.46.63-.68,1s-.25.4-.36.6c-.2.35-.14.44-.53.28a6.93,6.93,0,0,0-4.63-.4,9.63,9.63,0,0,0-2.55,1.16c-.27.17-.86.78-1.18.83a6.19,6.19,0,0,1-1.39-.41,10.53,10.53,0,0,0-5.46.25,13.47,13.47,0,0,0-4.91,2.88,7.18,7.18,0,0,0-1.65,2.1,10.64,10.64,0,0,1-.53,1.07c-.13.2-.4.43-.44.66a11.8,11.8,0,0,0-2.4-.69,5.36,5.36,0,0,0-3.13.56,12.27,12.27,0,0,0-4.35,4.33,14.63,14.63,0,0,0-1.87,4.23,6.17,6.17,0,0,1-.19.74c-.13.28-.24.3-.53.45a9.52,9.52,0,0,0-3.65,3.42,9.71,9.71,0,0,0-1.35,4.95,2.28,2.28,0,0,1,0,.58c-.07.09-.39.1-.51.13a9.93,9.93,0,0,0-1.2.4,9.83,9.83,0,0,0-2,1.11,11.39,11.39,0,0,0-4.43,7.63,14.55,14.55,0,0,0,1.8,9.47,9.13,9.13,0,0,0,.92,1.29c.21.25.26.25.2.55s-.23.67-.32,1a13.61,13.61,0,0,0-.45,3.31,15.27,15.27,0,0,0,.75,5.52,8.42,8.42,0,0,0,1.22,2.29,7,7,0,0,0,.91,1c.17.16.35.3.53.44a1.94,1.94,0,0,1,.33.23c.23.22.23,0,.2.39a15.28,15.28,0,0,1-.38,1.59q-.17.8-.27,1.62a24.62,24.62,0,0,0-.23,3.33,10.76,10.76,0,0,0,1.74,6.16,6.72,6.72,0,0,0,2.08,1.86,6.6,6.6,0,0,0,1.25.55c.22.07.49.08.62.27s.06.66.07.91a15.67,15.67,0,0,0,1.25,6.44,9.35,9.35,0,0,0,4.24,4.26,10.9,10.9,0,0,0,12.87-3.23c2.26,2.27,6,1.66,8.59.55a11.69,11.69,0,0,0,6.49-7.5c2.55,2.35,6.84.86,7.83-2.21a7.22,7.22,0,0,0,.3-2.36c0-.42-.12-.83-.15-1.24a6.59,6.59,0,0,1,.33-1.61,8.49,8.49,0,0,0,.11-3.14,15.22,15.22,0,0,0-.38-1.62,5.92,5.92,0,0,1-.08-1.46,6.31,6.31,0,0,1-2.77,0,5.55,5.55,0,0,1-2.34-1.22,13,13,0,0,1-3.48-4.68c-1.86-3.84-2.18-8.72,1.38-11.48,1.65-1.28,7.13-2.05,9.39-1.86s5.84,5,6,5.5c.12.29.15.67.45.84.67.35,1.52-.55,1.89-1a7.89,7.89,0,0,0,1.36-2.66,30.39,30.39,0,0,0,1.4-6.42c.17-1.69.18-3.4.49-5.06a7.28,7.28,0,0,1,2.27-4.28,24.6,24.6,0,0,1,4.67-2.8,12.19,12.19,0,0,0,4.21-3.28,6.52,6.52,0,0,0,.64-1c.14-.29.24-.81.49-1s1.13.26,1.54.45a17.73,17.73,0,0,1,5.41,4.06,31.07,31.07,0,0,1,4,5.17c.86,1.43,1.57,3.3,2.85,4.39.57.48,4.18.31,5.25-.33a6.39,6.39,0,0,0,2.41-2.92,4,4,0,0,0-.1-2.61c-.19-.51-.47-1-.67-1.45A4.91,4.91,0,0,0,494,339a3.1,3.1,0,0,0-2.08-1.23,8.63,8.63,0,0,0,1.51-3,11.73,11.73,0,0,0,.42-3.73,4.54,4.54,0,0,0-1-2.71,7.59,7.59,0,0,0-2.65-1.65,14.8,14.8,0,0,0,2.63-4.07C494.09,319.72,494.6,316.23,493.19,313.19Z" transform="translate(-82 -13.6)"/></g></svg>