<svg xmlns="http://www.w3.org/2000/svg" xmlns:xlink="http://www.w3.org/1999/xlink" viewBox="0 0 1757 731.28"><defs><style>.cls-1{fill:#789b78;}.cls-2{fill:#dd990e;}.cls-3{fill:#f9cb07;}.cls-4{fill:#cc8b09;}.cls-5{fill:#e8a30a;}.cls-6{fill:#f9ca06;}.cls-7{fill:#b1b4c4;}.cls-8{fill:#616e84;}.cls-9{fill:#757b89;}.cls-10{fill:#20232d;}.cls-11,.cls-14{fill:#fff;}.cls-12,.cls-21,.cls-25{opacity:0.5;}.cls-12,.cls-14,.cls-18,.cls-21,.cls-25,.cls-26{isolation:isolate;}.cls-12{fill:url(#linear-gradient);}.cls-13{fill:#2b303f;}.cls-14{opacity:0.1;}.cls-15{fill:#e9eaf2;}.cls-16{fill:#f95d9c;}.cls-17{fill:#ff7bac;}.cls-18,.cls-23,.cls-26{fill:#d6d8e5;}.cls-18{opacity:0.3;}.cls-19,.cls-21{fill:#dadce5;}.cls-20{fill:#f8f9ff;}.cls-22{fill:#e4e7f2;}.cls-24{fill:#1e212d;}.cls-25{fill:url(#linear-gradient-2);}.cls-26{opacity:0.4;}.cls-27{fill:#c3c6d1;}.cls-28{fill:#e4e6ef;}.cls-29{fill:#28221c;}.cls-30{fill:#99b524;}.cls-31{fill:#a6ce28;}</style><linearGradient id="linear-gradient" x1="585.27" y1="265.87" x2="585.27" y2="469.02" gradientTransform="matrix(1, 0, 0, -1, 0, 1082)" gradientUnits="userSpaceOnUse"><stop offset="0.21" stop-color="#fff" stop-opacity="0"/><stop offset="1" stop-color="#fff" stop-opacity="0.2"/></linearGradient><linearGradient id="linear-gradient-2" x1="911.8" y1="-1120.83" x2="911.8" y2="-864.32" gradientTransform="matrix(0.87, 0.5, 0, -1.15, 512.17, -1056.89)" xlink:href="#linear-gradient"/></defs><title>Give</title><g id="background"><polyline class="cls-1" points="0 64.08 1757 64.08 1757 617.08 0 617.08"/></g><g id="misc_coins" data-name="misc coins"><g id="Coin-5"><ellipse class="cls-2" cx="869.88" cy="345.29" rx="35.12" ry="20.27"/><polygon class="cls-2" points="834.78 345.6 834.78 336.36 841.71 342.54 834.78 345.6"/><polygon class="cls-2" points="905 336.6 905 345.29 901.45 349.06 899.72 339.11 905 336.6"/><ellipse class="cls-3" cx="869.88" cy="336.6" rx="35.12" ry="20.27"/><path class="cls-4" d="M977,617.15c-.35,3.42-2.79,6.78-7.31,9.4-9.83,5.66-25.74,5.66-35.57,0-4.52-2.62-7-6-7.3-9.4-.43-4,2-8.08,7.3-11.13,9.83-5.67,25.74-5.67,35.57,0C975,609.07,977.4,613.16,977,617.15Z" transform="translate(-82 -279.92)"/><path class="cls-5" d="M977,617.15c-.35,3.42-2.79,6.78-7.31,9.4-9.83,5.66-25.74,5.66-35.57,0-4.52-2.62-7-6-7.3-9.4.35-3.41,2.78-6.78,7.3-9.39,9.83-5.68,25.74-5.68,35.57,0C974.19,610.37,976.63,613.74,977,617.15Z" transform="translate(-82 -279.92)"/><path class="cls-4" d="M951.51,612.4a7.26,7.26,0,0,0-.92.07c-.41.06-.87.15-1.38.26a15.71,15.71,0,0,0-1.6.41,12.48,12.48,0,0,0-1.58.59l4,2.34.72-.26c1-.34,2-.63,2.87-.87a13.65,13.65,0,0,1,2.62-.43,8.81,8.81,0,0,1,2.4.17,7.33,7.33,0,0,1,2.3.89,4.58,4.58,0,0,1,1.74,1.53,2.07,2.07,0,0,1,.26,1.57,3.58,3.58,0,0,1-1,1.57,9.77,9.77,0,0,1-1.84,1.43l2.61,1.5-1.44.81-2.59-1.49a21.21,21.21,0,0,1-3.85,1.43,24.5,24.5,0,0,1-4.25.8l-1.36-2.43c.38,0,.76,0,1.14-.08.57-.07,1.13-.17,1.69-.29s1.28-.3,2-.51a13.76,13.76,0,0,0,2-.72l-4-2.32-.53.18-.54.17c-1,.34-1.94.59-2.78.78a11.85,11.85,0,0,1-2.37.32,7.73,7.73,0,0,1-2.09-.2,7,7,0,0,1-1.93-.77,5,5,0,0,1-1.69-1.44,2.45,2.45,0,0,1-.45-1.55,3,3,0,0,1,.66-1.58A7.64,7.64,0,0,1,942,612.8l-2.38-1.38,1.41-.8,2.36,1.36a16.31,16.31,0,0,1,3.46-1.27,24,24,0,0,1,3.47-.63Zm-6.86,4.23a2.89,2.89,0,0,0,1.75.38,11.06,11.06,0,0,0,2.41-.54L945,614.32C943.64,615.2,943.52,616,944.65,616.63Zm13.27,1.11a3.06,3.06,0,0,0-1.9-.34,16,16,0,0,0-2.64.58l3.76,2.16Q959.54,618.68,957.92,617.74Z" transform="translate(-82 -279.92)"/><path class="cls-4" d="M949.34,622.31a12.3,12.3,0,0,0,0-1.36l1.55,1-.67,1Z" transform="translate(-82 -279.92)"/><polygon class="cls-4" points="880.79 343.25 880.79 341.89 877.45 342.14 879.37 343.45 880.79 343.25"/><polygon class="cls-4" points="881.07 338.25 881.07 336.88 878.57 337.78 881.07 338.25"/><path class="cls-4" d="M952.73,618.1l.83-.8,2.94,2-.19.6s-2.16-.92-2.26-1Z" transform="translate(-82 -279.92)"/><path class="cls-4" d="M945,613.81l3.89,2.2.8-.57s-.49-.56-.52-.62a5.34,5.34,0,0,0-1.22-1c-.29,0-2.16-.88-2.16-.88Z" transform="translate(-82 -279.92)"/><polygon class="cls-4" points="869.51 332.48 869.51 331.12 867.73 330.54 867.34 331.6 867.44 332.09 869.51 332.48"/><polygon class="cls-4" points="857.63 331.5 857.63 330.14 859.71 330.36 859.03 331.68 857.63 331.5"/><path class="cls-4" d="M939.71,616V614.6h2.38l-.58,1.27-1,1.15Z" transform="translate(-82 -279.92)"/><path class="cls-6" d="M951.51,611a4.84,4.84,0,0,0-.92.08q-.62.07-1.38.24c-.51.11-1.05.25-1.6.42a12.48,12.48,0,0,0-1.58.59l4,2.31.72-.25c1-.34,2-.63,2.87-.87a13.65,13.65,0,0,1,2.62-.43,9.21,9.21,0,0,1,2.4.16,7.6,7.6,0,0,1,2.3.9,4.58,4.58,0,0,1,1.74,1.53,2.06,2.06,0,0,1,.26,1.57,3.46,3.46,0,0,1-1,1.56,10.25,10.25,0,0,1-1.84,1.44l2.57,1.48-1.4.82-2.59-1.49a22,22,0,0,1-3.85,1.44,26.52,26.52,0,0,1-4.25.79l-1.36-2.43a10.92,10.92,0,0,0,1.14-.08,16.16,16.16,0,0,0,1.69-.3c.63-.13,1.28-.3,2-.5a13.76,13.76,0,0,0,2-.72l-4-2.32-.53.18-.54.17a26.64,26.64,0,0,1-2.78.78,12.63,12.63,0,0,1-2.37.32,8.66,8.66,0,0,1-2.09-.19,7.07,7.07,0,0,1-1.93-.79,4.78,4.78,0,0,1-1.69-1.44,2.46,2.46,0,0,1-.45-1.56,3,3,0,0,1,.66-1.57A7.64,7.64,0,0,1,942,611.4L939.6,610l1.41-.81,2.36,1.36a16.9,16.9,0,0,1,3.46-1.28,27.11,27.11,0,0,1,3.47-.62Zm-6.86,4.23a2.89,2.89,0,0,0,1.75.38,11.06,11.06,0,0,0,2.41-.54L945,613C943.64,613.84,943.52,614.62,944.65,615.27Zm13.27,1.11A3.13,3.13,0,0,0,956,616a16.18,16.18,0,0,0-2.64.58l3.76,2.16q2.4-1.46.78-2.4Z" transform="translate(-82 -279.92)"/></g><g id="Coin-6"><ellipse class="cls-2" cx="856.22" cy="336.08" rx="35.12" ry="20.27"/><polygon class="cls-2" points="821.11 336.38 821.11 327.14 828.04 333.32 821.11 336.38"/><polygon class="cls-2" points="891.34 327.38 891.34 336.08 887.79 339.84 886.06 329.89 891.34 327.38"/><ellipse class="cls-3" cx="856.22" cy="327.38" rx="35.12" ry="20.27"/><path class="cls-4" d="M963.32,607.94c-.36,3.41-2.79,6.77-7.32,9.39-9.82,5.67-25.74,5.67-35.56,0-4.53-2.62-7-6-7.31-9.39-.42-4,2-8.09,7.31-11.14,9.82-5.67,25.74-5.67,35.56,0C961.3,599.85,963.73,603.94,963.32,607.94Z" transform="translate(-82 -279.92)"/><path class="cls-5" d="M963.32,607.94c-.36,3.41-2.79,6.77-7.32,9.39-9.82,5.67-25.74,5.67-35.56,0-4.53-2.62-7-6-7.31-9.39.35-3.42,2.78-6.79,7.31-9.4,9.82-5.67,25.74-5.67,35.56,0C960.53,601.15,963,604.52,963.32,607.94Z" transform="translate(-82 -279.92)"/><path class="cls-4" d="M937.85,603.18a4.69,4.69,0,0,0-.92.07c-.41.06-.88.14-1.39.25s-1,.24-1.6.41a11.16,11.16,0,0,0-1.58.6l4,2.33.72-.26c1-.33,2-.62,2.88-.87a14.36,14.36,0,0,1,2.61-.43,9.72,9.72,0,0,1,2.41.17,7.3,7.3,0,0,1,2.29.9,4.42,4.42,0,0,1,1.74,1.52,2,2,0,0,1,.26,1.58,3.33,3.33,0,0,1-.9,1.56,9.14,9.14,0,0,1-1.84,1.44l2.56,1.51-1.43.8-2.59-1.49a21.31,21.31,0,0,1-3.86,1.43,24.57,24.57,0,0,1-4.24.8l-1.36-2.42a10.54,10.54,0,0,0,1.13-.09c.57-.07,1.14-.17,1.7-.29s1.28-.3,2-.51a15.43,15.43,0,0,0,2-.71l-4-2.33-.52.19-.55.16a28.27,28.27,0,0,1-2.77.79,12.72,12.72,0,0,1-2.38.31,8.06,8.06,0,0,1-2.08-.19,7.58,7.58,0,0,1-1.94-.78,4.86,4.86,0,0,1-1.68-1.44,2.35,2.35,0,0,1-.45-1.56,2.76,2.76,0,0,1,.66-1.56,6.75,6.75,0,0,1,1.63-1.48l-2.38-1.39,1.4-.8,2.36,1.36a16.6,16.6,0,0,1,3.47-1.27,23.92,23.92,0,0,1,3.46-.63ZM931,607.41a2.89,2.89,0,0,0,1.75.38,11.19,11.19,0,0,0,2.41-.54l-3.79-2.16c-1.39.89-1.51,1.68-.37,2.33Zm13.26,1.1a3.1,3.1,0,0,0-1.89-.34,16.81,16.81,0,0,0-2.64.59l3.75,2.15q2.41-1.44.78-2.39Z" transform="translate(-82 -279.92)"/><path class="cls-4" d="M935.68,613.09c0-.1,0-1.36,0-1.36l1.54,1-.67,1Z" transform="translate(-82 -279.92)"/><polygon class="cls-4" points="867.13 334.03 867.13 332.67 863.78 332.93 865.7 334.23 867.13 334.03"/><polygon class="cls-4" points="867.41 329.03 867.41 327.66 864.9 328.56 867.41 329.03"/><path class="cls-4" d="M939.06,608.88l.84-.79,2.93,2-.18.59-2.26-1C940.29,609.68,939.06,608.88,939.06,608.88Z" transform="translate(-82 -279.92)"/><path class="cls-4" d="M931.38,604.61l3.89,2.21.8-.58-.53-.61a5.37,5.37,0,0,0-1.21-1c-.29-.05-2.16-.88-2.16-.88Z" transform="translate(-82 -279.92)"/><polygon class="cls-4" points="855.85 323.26 855.85 321.9 854.07 321.32 853.68 322.39 853.77 322.88 855.85 323.26"/><polygon class="cls-4" points="843.97 322.28 843.97 320.92 846.05 321.14 845.37 322.46 843.97 322.28"/><path class="cls-4" d="M926.05,606.82v-1.44h2.37l-.57,1.27-1,1.16Z" transform="translate(-82 -279.92)"/><path class="cls-6" d="M937.85,601.82a5.62,5.62,0,0,0-.92.08c-.41.05-.88.14-1.39.25a15.71,15.71,0,0,0-1.6.41,12.48,12.48,0,0,0-1.58.59l4,2.34.72-.26c1-.34,2-.63,2.88-.87a13.54,13.54,0,0,1,2.61-.43,9.27,9.27,0,0,1,2.41.17,7.52,7.52,0,0,1,2.29.89,4.58,4.58,0,0,1,1.74,1.53,2,2,0,0,1,.26,1.57,3.5,3.5,0,0,1-.9,1.56,9.91,9.91,0,0,1-1.84,1.44l2.57,1.48-1.44.83-2.59-1.49a22.12,22.12,0,0,1-3.86,1.44,25.53,25.53,0,0,1-4.24.79l-1.36-2.43c.38,0,.76,0,1.13-.08.57-.07,1.14-.17,1.7-.29s1.28-.3,2-.5a17.18,17.18,0,0,0,2-.72l-4-2.32-.52.18-.55.17c-1,.33-1.93.59-2.77.78a12.73,12.73,0,0,1-2.38.32,7.65,7.65,0,0,1-2.08-.2,6.81,6.81,0,0,1-1.94-.78,4.83,4.83,0,0,1-1.68-1.43,2.35,2.35,0,0,1-.45-1.56,2.86,2.86,0,0,1,.66-1.57,6.75,6.75,0,0,1,1.63-1.48l-2.38-1.38,1.4-.8,2.36,1.36a17.21,17.21,0,0,1,3.47-1.28,23.89,23.89,0,0,1,3.46-.62ZM931,606.05a2.89,2.89,0,0,0,1.75.38,11.19,11.19,0,0,0,2.41-.54l-3.79-2.15C930,604.62,929.85,605.4,931,606.05Zm13.26,1.11a3,3,0,0,0-1.89-.34,15.73,15.73,0,0,0-2.64.58l3.75,2.16Q945.89,608.11,944.25,607.16Z" transform="translate(-82 -279.92)"/></g></g><g id="phone_heart" data-name="phone heart"><g id="Слой_2" data-name="Слой 2"><g id="Слой_1-2" data-name="Слой 1-2"><g id="Mobile"><path class="cls-7" d="M496.93,831.78,399.3,775.39c-8.27-4.78-7.23-13.12,2.35-18.63L637.44,620.62c9.55-5.48,24-6.11,32.27-1.34l97.62,56.39c8.27,4.77,7.24,13.11-2.35,18.62L529.19,830.44C519.64,836,505.2,836.55,496.93,831.78Z" transform="translate(-82 -279.92)"/><polygon class="cls-7" points="311.72 487.28 311.72 478.29 322.26 482.27 311.72 487.28"/><polygon class="cls-7" points="690.92 403.52 690.92 394.87 682.54 400.28 690.92 403.52"/><path class="cls-8" d="M496.93,824.17,399.3,767.79c-8.27-4.77-7.23-13.11,2.35-18.63L637.44,613c9.55-5.48,24-6.12,32.27-1.34l97.62,56.39c8.27,4.77,7.24,13.11-2.35,18.63L529.19,822.83C519.64,828.35,505.2,828.94,496.93,824.17Z" transform="translate(-82 -279.92)"/><ellipse class="cls-9" cx="410.18" cy="777.78" rx="1.05" ry="1.81" transform="translate(-415.94 29.37) rotate(-30)"/><ellipse class="cls-9" cx="414.88" cy="780.49" rx="1.05" ry="1.81" transform="translate(-416.66 32.08) rotate(-30)"/><ellipse class="cls-9" cx="419.58" cy="783.21" rx="1.05" ry="1.81" transform="translate(-417.39 34.8) rotate(-30)"/><ellipse class="cls-9" cx="424.28" cy="785.92" rx="1.05" ry="1.81" transform="translate(-418.12 37.51) rotate(-30)"/><ellipse class="cls-9" cx="464.96" cy="810.24" rx="1.05" ry="1.82" transform="translate(-423.9 59.51) rotate(-29.89)"/><ellipse class="cls-9" cx="469.32" cy="811.93" rx="1.05" ry="1.81" transform="translate(-425.09 63.52) rotate(-30)"/><ellipse class="cls-9" cx="474.02" cy="814.65" rx="1.05" ry="1.81" transform="translate(-425.82 66.23) rotate(-30)"/><ellipse class="cls-9" cx="478.72" cy="817.36" rx="1.05" ry="1.81" transform="translate(-426.54 68.94) rotate(-30)"/><path class="cls-9" d="M450.91,803.26,438,795.81a3.55,3.55,0,0,1-1.48-2.82h0c0-1.1.66-1.57,1.48-1.12l12.91,7.44a3.59,3.59,0,0,1,1.48,2.84h0C452.39,803.24,451.73,803.74,450.91,803.26Z" transform="translate(-82 -279.92)"/><path class="cls-9" d="M743.38,704.84l-12,6.93c-.78.43-1.38,0-1.38-1h0a3.3,3.3,0,0,1,1.38-2.62l12-6.93c.78-.44,1.37,0,1.37,1h0A3.34,3.34,0,0,1,743.38,704.84Z" transform="translate(-82 -279.92)"/><path class="cls-9" d="M725,715.46l-12,6.93c-.78.43-1.38,0-1.38-1h0a3.32,3.32,0,0,1,1.38-2.63l12-6.94c.78-.44,1.37,0,1.37,1h0A3.32,3.32,0,0,1,725,715.46Z" transform="translate(-82 -279.92)"/><path class="cls-10" d="M496.93,822.79,399.3,766.4c-8.27-4.78-7.23-13.12,2.35-18.63L637.44,611.63c9.55-5.48,24-6.11,32.27-1.34l97.62,56.39c8.27,4.77,7.24,13.11-2.35,18.62L529.19,821.45C519.64,827,505.2,827.56,496.93,822.79Z" transform="translate(-82 -279.92)"/><path class="cls-11" d="M756.86,668.91l-38.11-22-.1.05c-4.5,2.6-11.8,2.6-16.3,0s-4.51-6.82,0-9.4l.09,0-38.11-22c-5.79-3.34-15.18-3.34-21,0L413.67,748.1c-5.79,3.33-5.79,8.75,0,12.1l92.53,53.42c5.79,3.35,15.18,3.35,21,0L756.86,681C762.65,677.67,762.65,672.25,756.86,668.91Z" transform="translate(-82 -279.92)"/><path class="cls-12" d="M756.86,681,527.17,813.62c-5.23,3-13.41,3.31-19.21.86a12.78,12.78,0,0,1-1.74-.86L413.68,760.2a9.8,9.8,0,0,1-3.25-2.82c-2.19-3.14-1.11-6.78,3.25-9.28L643.36,615.48c5.79-3.34,15.17-3.34,21,0l38.11,22-.09.06c-4.51,2.6-4.51,6.8,0,9.4s11.81,2.6,16.3,0l.09-.05,38.12,22C762.65,672.26,762.65,677.67,756.86,681Z" transform="translate(-82 -279.92)"/><ellipse class="cls-13" cx="625.99" cy="363.77" rx="4.38" ry="2.53"/><path class="cls-14" d="M706.7,644.42a.8.8,0,0,1-.53-1,.78.78,0,0,1,.53-.53,3,3,0,0,1,2.59,0,.79.79,0,0,1,.54,1,.81.81,0,0,1-.54.54A3,3,0,0,1,706.7,644.42Z" transform="translate(-82 -279.92)"/></g><path class="cls-15" d="M659.7,717.44,578,670.26c-4.74-2.74-4.15-7.53,1.34-10.69l55-31.72c5.48-3.13,13.78-3.51,18.53-.78l81.71,47.18c4.75,2.74,4.15,7.52-1.33,10.69l-55,31.73C672.74,719.83,664.45,720.18,659.7,717.44Z" transform="translate(-82 -279.92)"/><path class="cls-15" d="M576.3,765.58l-81.69-47.16c-4.75-2.74-4.15-7.52,1.33-10.69L550.89,676c5.48-3.13,13.78-3.51,18.53-.78l81.69,47.16c4.74,2.75,4.15,7.53-1.34,10.7L594.82,764.8C589.34,768,581.05,768.33,576.3,765.58Z" transform="translate(-82 -279.92)"/><path class="cls-15" d="M566.37,781.25,511.42,813a17.7,17.7,0,0,1-3.46,1.51,12.78,12.78,0,0,1-1.74-.86L413.68,760.2a9.8,9.8,0,0,1-3.25-2.82,12.94,12.94,0,0,1,2.1-1.5l55-31.72c5.48-3.14,13.78-3.51,18.53-.79l81.71,47.18C572.44,773.29,571.85,778.08,566.37,781.25Z" transform="translate(-82 -279.92)"/><polygon class="cls-15" points="641.69 382 640.04 381.04 642.8 379.44 644.45 380.4 641.69 382"/><polygon class="cls-15" points="643.9 383.27 642.24 382.32 646.11 380.09 647.77 381.04 643.9 383.27"/><polygon class="cls-15" points="646.11 384.55 644.45 383.6 649.98 380.4 651.64 381.36 646.11 384.55"/><polygon class="cls-15" points="648.32 385.83 646.67 384.87 654.41 380.4 656.07 381.36 648.32 385.83"/><polygon class="cls-15" points="655.51 389.98 652.93 388.49 658.09 385.51 660.67 386.99 655.51 389.98"/><polygon class="cls-15" points="658.95 391.96 656.37 390.47 661.53 387.5 664.11 388.98 658.95 391.96"/><polygon class="cls-15" points="662.39 393.95 659.81 392.46 664.97 389.48 667.55 390.97 662.39 393.95"/><path class="cls-16" d="M619.68,599l-80.81-46.65c-2.19-1.26-4.18-1.47-5.7-.79h0a4.42,4.42,0,0,0-.6.34l-8.44,4.7,6.14,8.61v61c0,5.48,3.86,12.16,8.62,14.88l31.65,18.27,3.86,9.94-4,17.58,8.93-5L588,669.48l27.41,15.83,1,8.22,8.85-4.94c1.84-.78,3-2.78,3-5.8V613.94C628.28,608.45,624.43,601.78,619.68,599Z" transform="translate(-82 -279.92)"/><path class="cls-17" d="M610.74,604l-80.8-46.65c-4.75-2.74-8.62-.51-8.62,5v68.92c0,5.48,3.86,12.15,8.62,14.87l31.65,18.28,8.75,22.55,8.75-12.45,31.65,18.28c4.76,2.74,8.62.51,8.62-5V618.9C619.34,613.42,615.51,606.75,610.74,604Z" transform="translate(-82 -279.92)"/><path class="cls-11" d="M587.54,626.73c-.52-6.84-4.54-13.91-9.56-16.82-3.34-1.93-6.41-1.62-8.13.72-1.71-4.36-4.65-8.1-7.94-10-5-2.9-9-.46-9.56,5.79a14.54,14.54,0,0,0,.31,4.46,36.09,36.09,0,0,0,4.9,12.24l12.29,20,12.53-5.66a9.15,9.15,0,0,0,4.89-6.6A12.41,12.41,0,0,0,587.54,626.73Z" transform="translate(-82 -279.92)"/></g></g></g><g id="credit_card" data-name="credit card"><g id="Слой_1-2-2" data-name="Слой 1-2"><g id="Coin"><ellipse class="cls-2" cx="724.72" cy="153.15" rx="35.12" ry="20.27"/><polygon class="cls-2" points="689.61 153.46 689.61 144.22 696.55 150.4 689.61 153.46"/><polygon class="cls-2" points="759.84 144.46 759.84 153.15 756.29 156.92 754.55 146.97 759.84 144.46"/><ellipse class="cls-3" cx="724.72" cy="144.46" rx="35.12" ry="20.27"/><path class="cls-4" d="M831.82,425c-.36,3.4-2.79,6.77-7.32,9.39-9.82,5.67-25.74,5.67-35.56,0-4.52-2.62-7-6-7.3-9.39-.43-4,2-8.09,7.3-11.14,9.82-5.67,25.74-5.67,35.56,0C829.79,416.93,832.24,421,831.82,425Z" transform="translate(-82 -279.92)"/><path class="cls-5" d="M831.82,425c-.36,3.4-2.79,6.77-7.32,9.39-9.82,5.67-25.74,5.67-35.56,0-4.52-2.62-7-6-7.3-9.39.34-3.42,2.78-6.79,7.3-9.4,9.82-5.68,25.74-5.68,35.56,0C829,418.23,831.46,421.6,831.82,425Z" transform="translate(-82 -279.92)"/><path class="cls-4" d="M806.35,420.26a5.79,5.79,0,0,0-.92.07l-1.38.25c-.52.11-1,.25-1.61.41a12.44,12.44,0,0,0-1.57.61l4,2.33.72-.26c1-.34,2-.63,2.87-.87a13.77,13.77,0,0,1,2.62-.43,9.19,9.19,0,0,1,2.4.16,8,8,0,0,1,2.31.9,4.58,4.58,0,0,1,1.74,1.53,2.07,2.07,0,0,1,.25,1.57,3.47,3.47,0,0,1-.94,1.56,9.89,9.89,0,0,1-1.85,1.44L817.6,431l-1.4.82-2.59-1.5a22.32,22.32,0,0,1-3.85,1.44,25.87,25.87,0,0,1-4.25.8l-1.33-2.4c.38,0,.76,0,1.13-.08.57-.07,1.14-.17,1.7-.29s1.28-.3,2-.51a15.43,15.43,0,0,0,2-.71l-4-2.33-.53.19-.54.16c-1,.34-2,.59-2.79.79a12.52,12.52,0,0,1-2.36.32,8.15,8.15,0,0,1-2.09-.2,7.44,7.44,0,0,1-1.94-.78,5,5,0,0,1-1.68-1.44,2.4,2.4,0,0,1-.46-1.55,2.85,2.85,0,0,1,.67-1.57,7,7,0,0,1,1.63-1.49l-2.38-1.38,1.41-.8,2.35,1.36a17.09,17.09,0,0,1,3.46-1.27,25.5,25.5,0,0,1,3.47-.63Zm-6.86,4.24a3,3,0,0,0,1.75.37,12.27,12.27,0,0,0,2.4-.54l-3.77-2.16c-1.39.89-1.51,1.67-.38,2.33Zm13.26,1.1a3,3,0,0,0-1.89-.34,14.62,14.62,0,0,0-2.6.6L812,428c1.57-1,1.83-1.78.74-2.41Z" transform="translate(-82 -279.92)"/><path class="cls-4" d="M804.18,430.17v-1.36l1.54,1-.67,1Z" transform="translate(-82 -279.92)"/><polygon class="cls-4" points="735.63 151.11 735.63 149.75 732.29 150 734.21 151.31 735.63 151.11"/><polygon class="cls-4" points="735.91 146.11 735.91 144.73 733.41 145.64 735.91 146.11"/><path class="cls-4" d="M807.54,426l.83-.8,2.93,2-.18.59s-2.19-.92-2.26-1Z" transform="translate(-82 -279.92)"/><path class="cls-4" d="M799.87,421.67l3.9,2.2.79-.57s-.49-.56-.52-.61a4.9,4.9,0,0,0-1.21-1c-.29-.06-2.16-.88-2.16-.88Z" transform="translate(-82 -279.92)"/><polygon class="cls-4" points="724.35 140.34 724.35 138.98 722.56 138.4 722.18 139.46 722.28 139.95 724.35 140.34"/><polygon class="cls-4" points="712.47 139.35 712.47 138 714.54 138.22 713.88 139.54 712.47 139.35"/><path class="cls-4" d="M794.54,423.9v-1.44h2.38l-.58,1.27-1,1.16Z" transform="translate(-82 -279.92)"/><path class="cls-6" d="M806.35,418.9a7.26,7.26,0,0,0-.92.07c-.41.06-.87.15-1.38.26a15.87,15.87,0,0,0-1.61.41,12.34,12.34,0,0,0-1.57.59l4,2.33.72-.25c1-.34,2-.63,2.87-.87a13.77,13.77,0,0,1,2.62-.43,9.19,9.19,0,0,1,2.4.16,7.66,7.66,0,0,1,2.31.9,4.58,4.58,0,0,1,1.74,1.53,2.07,2.07,0,0,1,.25,1.57,3.53,3.53,0,0,1-.94,1.56,10.32,10.32,0,0,1-1.85,1.44l2.58,1.5-1.4.8L813.63,429a22.12,22.12,0,0,1-3.86,1.44,25.46,25.46,0,0,1-4.25.79l-1.35-2.43a10.73,10.73,0,0,0,1.13-.08c.51-.06,1.07-.16,1.69-.29s1.28-.31,2-.51a13.76,13.76,0,0,0,2-.72l-4-2.32-.52.18-.55.18a27.91,27.91,0,0,1-2.78.77,11.85,11.85,0,0,1-2.37.32,8.06,8.06,0,0,1-2.08-.19,7.2,7.2,0,0,1-2-.79,5.06,5.06,0,0,1-1.68-1.44,2.45,2.45,0,0,1-.45-1.55,2.91,2.91,0,0,1,.67-1.58,7.19,7.19,0,0,1,1.63-1.48L794.47,418l1.41-.82,2.35,1.37a17.09,17.09,0,0,1,3.46-1.27,25.5,25.5,0,0,1,3.47-.63Zm-6.86,4.23a2.89,2.89,0,0,0,1.75.38,11.58,11.58,0,0,0,2.4-.54l-3.77-2.15c-1.39.88-1.51,1.65-.38,2.31Zm13.26,1.11a3,3,0,0,0-1.89-.34,14.8,14.8,0,0,0-2.64.58l3.76,2.16q2.4-1.45.77-2.4Z" transform="translate(-82 -279.92)"/></g><g id="Coin-2"><ellipse class="cls-2" cx="724.72" cy="141.78" rx="35.12" ry="20.27"/><polygon class="cls-2" points="689.61 142.08 689.61 132.85 696.55 139.02 689.61 142.08"/><polygon class="cls-2" points="759.84 133.09 759.84 141.78 756.29 145.54 754.55 135.59 759.84 133.09"/><ellipse class="cls-3" cx="724.72" cy="133.09" rx="35.12" ry="20.27"/><path class="cls-4" d="M831.82,413.63c-.36,3.42-2.79,6.78-7.32,9.39-9.82,5.67-25.74,5.67-35.56,0-4.52-2.61-7-6-7.3-9.39-.43-4,2-8.08,7.3-11.13,9.82-5.68,25.74-5.68,35.56,0C829.79,405.55,832.24,409.64,831.82,413.63Z" transform="translate(-82 -279.92)"/><path class="cls-5" d="M831.82,413.63c-.36,3.42-2.79,6.78-7.32,9.39-9.82,5.67-25.74,5.67-35.56,0-4.52-2.61-7-6-7.3-9.39.34-3.42,2.78-6.77,7.3-9.39,9.82-5.68,25.74-5.68,35.56,0C829,406.86,831.46,410.22,831.82,413.63Z" transform="translate(-82 -279.92)"/><path class="cls-4" d="M806.35,408.88a7.3,7.3,0,0,0-.92.08c-.41.06-.87.14-1.38.25s-1,.25-1.61.41a11,11,0,0,0-1.57.6l4,2.33.72-.25c1-.35,2-.63,2.87-.87a13.77,13.77,0,0,1,2.62-.43,8.77,8.77,0,0,1,2.4.16,7.41,7.41,0,0,1,2.31.9,4.56,4.56,0,0,1,1.74,1.52,2.08,2.08,0,0,1,.25,1.58,3.58,3.58,0,0,1-.94,1.56,9.84,9.84,0,0,1-1.85,1.43l2.57,1.49-1.4.8L813.61,419a21.49,21.49,0,0,1-3.85,1.43,25.84,25.84,0,0,1-4.25.79l-1.36-2.42a10.54,10.54,0,0,0,1.13-.09,16.85,16.85,0,0,0,1.7-.29c.63-.14,1.28-.3,2-.5a14.09,14.09,0,0,0,2-.72l-4-2.32-.53.18-.54.17a27.53,27.53,0,0,1-2.79.78,12.52,12.52,0,0,1-2.36.32,8.19,8.19,0,0,1-2.09-.2,7.11,7.11,0,0,1-1.94-.78,5,5,0,0,1-1.68-1.44,2.54,2.54,0,0,1-.46-1.56,2.92,2.92,0,0,1,.67-1.57,7.64,7.64,0,0,1,1.63-1.48l-2.35-1.37,1.41-.82,2.35,1.36a17.71,17.71,0,0,1,3.46-1.27,27.14,27.14,0,0,1,3.47-.63Zm-6.86,4.24a2.82,2.82,0,0,0,1.75.37,11,11,0,0,0,2.4-.54l-3.77-2.15c-1.39.89-1.51,1.66-.38,2.32Zm13.26,1.11a3,3,0,0,0-1.89-.34,15.71,15.71,0,0,0-2.64.57l3.76,2.16c1.6-1,1.86-1.76.77-2.39Z" transform="translate(-82 -279.92)"/><path class="cls-4" d="M804.18,418.79v-1.36l1.54,1-.67,1Z" transform="translate(-82 -279.92)"/><polygon class="cls-4" points="735.63 139.74 735.63 138.37 732.29 138.63 734.21 139.94 735.63 139.74"/><polygon class="cls-4" points="735.91 134.74 735.91 133.36 733.41 134.26 735.91 134.74"/><path class="cls-4" d="M807.54,414.59l.83-.8,2.93,2-.18.59s-2.19-.92-2.26-1Z" transform="translate(-82 -279.92)"/><path class="cls-4" d="M799.87,410.29l3.9,2.21.79-.57s-.49-.57-.52-.62a5.37,5.37,0,0,0-1.21-1c-.29-.05-2.16-.88-2.16-.88Z" transform="translate(-82 -279.92)"/><polygon class="cls-4" points="724.35 128.97 724.35 127.6 722.56 127.02 722.18 128.09 722.28 128.58 724.35 128.97"/><polygon class="cls-4" points="712.47 127.98 712.47 126.62 714.54 126.84 713.88 128.16 712.47 127.98"/><path class="cls-4" d="M794.54,412.52v-1.44h2.38l-.58,1.27-1,1.16Z" transform="translate(-82 -279.92)"/><path class="cls-6" d="M806.35,407.52a5.82,5.82,0,0,0-.92.08c-.41.06-.87.14-1.38.25s-1,.24-1.61.41a11,11,0,0,0-1.57.6l4,2.33.72-.26c1-.33,2-.63,2.87-.87a13.77,13.77,0,0,1,2.62-.43,9.19,9.19,0,0,1,2.4.17,7.74,7.74,0,0,1,2.31.89,4.7,4.7,0,0,1,1.78,1.5,2,2,0,0,1,.25,1.58,3.56,3.56,0,0,1-1,1.59,9.52,9.52,0,0,1-1.85,1.43l2.57,1.49-1.4.81-2.58-1.5a21.34,21.34,0,0,1-3.86,1.44,25.48,25.48,0,0,1-4.25.8l-1.35-2.43a10.75,10.75,0,0,0,1.13-.09A13.88,13.88,0,0,0,807,417c.62-.13,1.28-.3,2-.5a13.76,13.76,0,0,0,2-.72l-4-2.32-.52.19-.55.16c-1,.33-1.94.59-2.78.79a12.61,12.61,0,0,1-2.37.31,8.06,8.06,0,0,1-2.08-.19,7.2,7.2,0,0,1-2-.79,4.92,4.92,0,0,1-1.68-1.43,2.48,2.48,0,0,1-.45-1.56,2.88,2.88,0,0,1,.67-1.57,7,7,0,0,1,1.63-1.48l-2.38-1.38,1.4-.8,2.35,1.36a17.21,17.21,0,0,1,3.47-1.28,24,24,0,0,1,3.47-.62Zm-6.86,4.24a3,3,0,0,0,1.75.37,11,11,0,0,0,2.4-.54l-3.77-2.15c-1.39.88-1.51,1.66-.38,2.32Zm13.26,1.1a3.1,3.1,0,0,0-1.89-.34,15.75,15.75,0,0,0-2.64.59l3.76,2.15q2.4-1.45.77-2.4Z" transform="translate(-82 -279.92)"/></g><g id="Coin-3"><ellipse class="cls-2" cx="726.99" cy="128.88" rx="35.12" ry="20.27"/><polygon class="cls-2" points="691.89 129.19 691.89 119.95 698.82 126.14 691.89 129.19"/><polygon class="cls-2" points="762.11 120.19 762.11 128.88 758.57 132.65 756.83 122.7 762.11 120.19"/><ellipse class="cls-3" cx="726.99" cy="120.2" rx="35.12" ry="20.27"/><path class="cls-4" d="M834.09,400.74c-.36,3.42-2.79,6.78-7.31,9.4-9.82,5.66-25.74,5.66-35.57,0-4.52-2.62-7-6-7.3-9.4-.43-4,2-8.07,7.3-11.12,9.83-5.68,25.75-5.68,35.57,0C832.07,392.67,834.51,396.75,834.09,400.74Z" transform="translate(-82 -279.92)"/><path class="cls-5" d="M834.09,400.74c-.36,3.42-2.79,6.78-7.31,9.4-9.82,5.66-25.74,5.66-35.57,0-4.52-2.62-7-6-7.3-9.4.35-3.41,2.78-6.77,7.3-9.39,9.83-5.68,25.75-5.68,35.57,0C831.27,394,833.73,397.33,834.09,400.74Z" transform="translate(-82 -279.92)"/><path class="cls-4" d="M808.63,396a4.69,4.69,0,0,0-.92.07c-.41.05-.88.14-1.39.25s-1.05.24-1.6.41a11.16,11.16,0,0,0-1.58.6l4,2.33.72-.26c1-.33,2-.63,2.88-.87a14.36,14.36,0,0,1,2.61-.43,9.3,9.3,0,0,1,2.41.17,7.52,7.52,0,0,1,2.29.89,4.58,4.58,0,0,1,1.74,1.53,2,2,0,0,1,.26,1.58,3.6,3.6,0,0,1-1,1.56,9.91,9.91,0,0,1-1.84,1.44l2.57,1.48-1.4.81-2.59-1.5A20.62,20.62,0,0,1,812,407.5a24.57,24.57,0,0,1-4.24.8l-1.36-2.43a10.94,10.94,0,0,0,1.14-.09,16.54,16.54,0,0,0,1.69-.28c.62-.14,1.28-.31,2-.51a14.09,14.09,0,0,0,2-.72l-4-2.31-.52.18-.55.17c-1,.33-1.93.59-2.77.78a12.73,12.73,0,0,1-2.38.32,7.65,7.65,0,0,1-2.08-.2,6.87,6.87,0,0,1-2-.78,5,5,0,0,1-1.67-1.44,2.32,2.32,0,0,1-.45-1.55,2.91,2.91,0,0,1,.66-1.57,7,7,0,0,1,1.67-1.5L796.75,395l1.41-.81,2.35,1.36a17.8,17.8,0,0,1,3.47-1.27,24,24,0,0,1,3.47-.62Zm-6.84,4.22a3,3,0,0,0,1.74.39,12.36,12.36,0,0,0,2.41-.54l-3.78-2.16Q800.06,399.25,801.79,400.22Zm13.26,1.11a3.1,3.1,0,0,0-1.89-.34,14.83,14.83,0,0,0-2.64.59l3.75,2.15c1.59-1,1.85-1.77.76-2.4Z" transform="translate(-82 -279.92)"/><path class="cls-4" d="M806.45,405.9a12.3,12.3,0,0,0,0-1.36l1.55,1-.67,1Z" transform="translate(-82 -279.92)"/><polygon class="cls-4" points="737.9 126.84 737.9 125.48 734.56 125.73 736.48 127.04 737.9 126.84"/><polygon class="cls-4" points="738.18 121.84 738.18 120.47 735.68 121.38 738.18 121.84"/><path class="cls-4" d="M809.83,401.69l.83-.8,2.94,2-.19.6s-2.16-.92-2.26-1Z" transform="translate(-82 -279.92)"/><path class="cls-4" d="M802.15,397.4l3.89,2.21.8-.58s-.49-.56-.52-.62a5.17,5.17,0,0,0-1.22-1c-.28,0-2.15-.88-2.15-.88Z" transform="translate(-82 -279.92)"/><polygon class="cls-4" points="726.63 116.07 726.63 114.72 724.84 114.13 724.46 115.2 724.55 115.69 726.63 116.07"/><polygon class="cls-4" points="714.75 115.09 714.75 113.73 716.82 113.95 716.15 115.27 714.75 115.09"/><path class="cls-4" d="M796.82,399.63V398.2h2.38l-.58,1.26-1,1.14Z" transform="translate(-82 -279.92)"/><path class="cls-6" d="M808.63,394.64a4.69,4.69,0,0,0-.92.07c-.41.06-.88.14-1.39.25s-1.05.24-1.6.41a11.16,11.16,0,0,0-1.58.6l4,2.33.72-.25c1-.35,2-.64,2.88-.88a14.36,14.36,0,0,1,2.61-.43,9.32,9.32,0,0,1,2.41.16,7.81,7.81,0,0,1,2.29.9,4.67,4.67,0,0,1,1.74,1.53,2,2,0,0,1,.26,1.58,3.57,3.57,0,0,1-1,1.55,9.91,9.91,0,0,1-1.84,1.44l2.57,1.48-1.4.81-2.59-1.5a22.12,22.12,0,0,1-3.86,1.44,26.61,26.61,0,0,1-4.24.79l-1.36-2.42a10.94,10.94,0,0,0,1.14-.09c.5-.06,1.06-.16,1.69-.29s1.28-.31,2-.51a14.09,14.09,0,0,0,2-.72l-4-2.31-.52.18-.55.16c-.91.31-1.84.57-2.77.79A12.72,12.72,0,0,1,803,402a8.06,8.06,0,0,1-2.08-.19,6.89,6.89,0,0,1-2-.79,4.79,4.79,0,0,1-1.67-1.43,2.38,2.38,0,0,1-.45-1.56,2.76,2.76,0,0,1,.66-1.57,6.75,6.75,0,0,1,1.63-1.48l-2.34-1.35,1.41-.81,2.35,1.36a16.6,16.6,0,0,1,3.47-1.27,25.5,25.5,0,0,1,3.47-.63Zm-6.84,4.22a2.88,2.88,0,0,0,1.74.38,10.93,10.93,0,0,0,2.41-.54l-3.78-2.16C800.76,397.43,800.64,398.21,801.79,398.86ZM815,400a3,3,0,0,0-1.89-.34,14.78,14.78,0,0,0-2.64.57l3.75,2.16Q816.67,400.92,815,400Z" transform="translate(-82 -279.92)"/></g><g id="Coin-4"><ellipse class="cls-2" cx="726.24" cy="115.99" rx="35.12" ry="20.27"/><polygon class="cls-2" points="691.13 116.3 691.13 107.06 698.07 113.24 691.13 116.3"/><polygon class="cls-2" points="761.36 107.31 761.36 116 757.81 119.76 756.07 109.81 761.36 107.31"/><ellipse class="cls-3" cx="726.24" cy="107.31" rx="35.12" ry="20.27"/><path class="cls-4" d="M833.34,387.85c-.36,3.42-2.79,6.78-7.32,9.4-9.82,5.66-25.74,5.66-35.56,0-4.53-2.62-7-6-7.31-9.4-.42-4,2-8.08,7.31-11.13,9.82-5.67,25.74-5.67,35.56,0C831.31,379.77,833.76,383.86,833.34,387.85Z" transform="translate(-82 -279.92)"/><path class="cls-5" d="M833.34,387.85c-.36,3.42-2.79,6.78-7.32,9.4-9.82,5.66-25.74,5.66-35.56,0-4.53-2.62-7-6-7.31-9.4.35-3.41,2.78-6.78,7.31-9.39,9.82-5.67,25.74-5.67,35.56,0C830.56,381.07,833,384.44,833.34,387.85Z" transform="translate(-82 -279.92)"/><path class="cls-4" d="M807.87,383.1a5.72,5.72,0,0,0-.92.08c-.42.06-.88.14-1.39.24s-1,.25-1.6.41a12.58,12.58,0,0,0-1.58.61l4,2.33.72-.25c1-.35,2-.64,2.88-.87a13.56,13.56,0,0,1,2.61-.44,9.29,9.29,0,0,1,2.41.16,8,8,0,0,1,2.3.9,4.58,4.58,0,0,1,1.74,1.53,2.08,2.08,0,0,1,.25,1.58,3.49,3.49,0,0,1-.94,1.55,9.89,9.89,0,0,1-1.85,1.44l2.57,1.49-1.4.8-2.6-1.49a21.15,21.15,0,0,1-3.84,1.44,27,27,0,0,1-4.25.8L805.66,393c.38,0,.76,0,1.13-.08s1.07-.16,1.7-.3,1.28-.3,2-.5a14.09,14.09,0,0,0,2-.72l-4-2.32-.53.18-.54.17q-1.53.49-2.79.78a12.52,12.52,0,0,1-2.36.32,8.23,8.23,0,0,1-2.1-.2,7,7,0,0,1-1.93-.78,5,5,0,0,1-1.68-1.44,2.54,2.54,0,0,1-.46-1.56,2.88,2.88,0,0,1,.67-1.57,7.24,7.24,0,0,1,1.64-1.48L796,382.11l1.4-.82,2.36,1.36a17.8,17.8,0,0,1,3.47-1.27,25.33,25.33,0,0,1,3.46-.62ZM801,387.34a3,3,0,0,0,1.76.37,11,11,0,0,0,2.4-.54L801.38,385Q799.31,386.35,801,387.34Zm13.27,1.12a3,3,0,0,0-1.9-.33,15.17,15.17,0,0,0-2.64.57l3.77,2.16Q815.9,389.39,814.27,388.46Z" transform="translate(-82 -279.92)"/><path class="cls-4" d="M805.7,393c0-.1,0-1.37,0-1.37l1.54,1-.67,1Z" transform="translate(-82 -279.92)"/><polygon class="cls-4" points="737.14 113.95 737.14 112.59 733.8 112.84 735.73 114.15 737.14 113.95"/><polygon class="cls-4" points="737.43 108.95 737.43 107.57 734.93 108.48 737.43 108.95"/><path class="cls-4" d="M809.07,388.8l.83-.8,2.93,2-.18.6s-2.19-.93-2.26-1Z" transform="translate(-82 -279.92)"/><path class="cls-4" d="M801.39,384.51l3.89,2.21.8-.58s-.49-.57-.52-.62a4.94,4.94,0,0,0-1.22-1c-.29-.06-2.16-.89-2.16-.89Z" transform="translate(-82 -279.92)"/><polygon class="cls-4" points="725.87 103.18 725.87 101.82 724.08 101.24 723.7 102.31 723.79 102.8 725.87 103.18"/><polygon class="cls-4" points="713.99 102.2 713.99 100.83 716.06 101.06 715.39 102.38 713.99 102.2"/><path class="cls-4" d="M796,386.74V385.3h2.38l-.58,1.27-1,1.17Z" transform="translate(-82 -279.92)"/><path class="cls-6" d="M807.87,381.74a5.7,5.7,0,0,0-.92.07l-1.39.25c-.52.11-1,.25-1.6.41a11.21,11.21,0,0,0-1.58.61l4,2.33.72-.26c1-.34,2-.63,2.88-.87a13.54,13.54,0,0,1,2.61-.43A9.26,9.26,0,0,1,815,384a8,8,0,0,1,2.3.9,4.66,4.66,0,0,1,1.74,1.53,2.06,2.06,0,0,1,.25,1.57,3.47,3.47,0,0,1-.94,1.56,10.32,10.32,0,0,1-1.85,1.44l2.57,1.48-1.4.82-2.6-1.5a21.92,21.92,0,0,1-3.84,1.44,27,27,0,0,1-4.25.8l-1.36-2.43a10.54,10.54,0,0,0,1.13-.09,16.31,16.31,0,0,0,1.7-.29c.62-.14,1.28-.3,2-.5a14.09,14.09,0,0,0,2-.72l-4-2.28-.52.19-.55.16c-1,.33-1.94.59-2.78.79a12.61,12.61,0,0,1-2.37.31,8.18,8.18,0,0,1-2.09-.19,7.07,7.07,0,0,1-1.93-.79,5,5,0,0,1-1.69-1.43,2.48,2.48,0,0,1-.45-1.56,2.94,2.94,0,0,1,.66-1.57,7.5,7.5,0,0,1,1.64-1.49L796,380.79l1.4-.8,2.35,1.35a17.8,17.8,0,0,1,3.47-1.27,24,24,0,0,1,3.47-.62ZM801,386a3,3,0,0,0,1.76.37,12.27,12.27,0,0,0,2.4-.54l-3.78-2.16Q799.31,385,801,386Zm13.27,1.1a3.06,3.06,0,0,0-1.9-.34,16.18,16.18,0,0,0-2.64.58l3.77,2.16C815.1,388.51,815.36,387.74,814.27,387.08Z" transform="translate(-82 -279.92)"/></g><path class="cls-18" d="M829.22,592l-130.5-75.33c-1.81-1-1.58-2.87.51-4.06l72.92-42.1a7.83,7.83,0,0,1,7.05-.3l130.47,75.35c1.8,1,1.58,2.87-.51,4.07l-72.89,42.09A7.77,7.77,0,0,1,829.22,592Z" transform="translate(-82 -279.92)"/><path class="cls-19" d="M913.93,542.74l-1.36.49L782.22,468a7.86,7.86,0,0,0-7.05.29l-72.92,42.1a5,5,0,0,0-.84.61l-.88-.72v2.39h0a2.06,2.06,0,0,0,1.22,1.77l130.49,75.37a7.86,7.86,0,0,0,7-.3l72.92-42.08c1.18-.72,1.76-1.56,1.72-2.38h0Z" transform="translate(-82 -279.92)"/><path class="cls-20" d="M832.24,587.48,701.75,512.16c-1.82-1-1.59-2.88.5-4.06L775.18,466a7.81,7.81,0,0,1,7-.3L912.71,541c1.81,1,1.58,2.87-.5,4.07l-72.92,42.09A7.8,7.8,0,0,1,832.24,587.48Z" transform="translate(-82 -279.92)"/><polygon class="cls-19" points="663.19 244.52 638.14 230.07 643.94 226.72 668.98 241.17 663.19 244.52"/><polygon class="cls-19" points="713.1 215.11 688.06 200.65 693.85 197.31 718.89 211.76 713.1 215.11"/><polygon class="cls-19" points="693.51 262.04 668.49 247.58 674.28 244.24 699.31 258.69 693.51 262.04"/><polygon class="cls-19" points="723.86 279.55 698.82 265.09 704.61 261.75 729.65 276.2 723.86 279.55"/><polygon class="cls-19" points="754.19 297.06 729.16 282.61 734.95 279.26 759.98 293.72 754.19 297.06"/><ellipse class="cls-21" cx="800.44" cy="261.74" rx="10.57" ry="6.1"/><ellipse class="cls-21" cx="792.25" cy="257.01" rx="10.57" ry="6.1"/></g></g><g id="more_misc_coins" data-name="more misc coins"><g id="Coin-8"><ellipse class="cls-2" cx="783.26" cy="361.69" rx="39.12" ry="22.59"/><polygon class="cls-2" points="744.16 362.04 744.16 351.75 751.88 358.63 744.16 362.04"/><polygon class="cls-2" points="822.36 352.02 822.36 361.69 818.41 365.89 816.48 354.81 822.36 352.02"/><ellipse class="cls-3" cx="783.26" cy="352.02" rx="39.12" ry="22.59"/><path class="cls-4" d="M893.21,632.62c-.4,3.8-3.11,7.54-8.15,10.46-10.94,6.31-28.67,6.31-39.6,0-5-2.92-7.75-6.67-8.14-10.46-.48-4.46,2.24-9,8.14-12.41,10.93-6.31,28.66-6.31,39.6,0C891,623.64,893.7,628.19,893.21,632.62Z" transform="translate(-82 -279.92)"/><path class="cls-5" d="M893.21,632.62c-.4,3.8-3.11,7.54-8.15,10.46-10.94,6.31-28.67,6.31-39.6,0-5-2.92-7.75-6.67-8.14-10.46.39-3.82,3.1-7.55,8.14-10.47,10.93-6.32,28.66-6.32,39.6,0C890.1,625.09,892.81,628.83,893.21,632.62Z" transform="translate(-82 -279.92)"/><path class="cls-4" d="M864.85,627.35a5.05,5.05,0,0,0-1,.08c-.46.07-1,.16-1.55.28s-1.16.27-1.77.45a15.55,15.55,0,0,0-1.76.67l4.49,2.6.82-.28c1.13-.39,2.21-.71,3.22-1a14.57,14.57,0,0,1,2.93-.48,9.88,9.88,0,0,1,2.66.18,8.84,8.84,0,0,1,2.57,1,5,5,0,0,1,1.93,1.71,2.27,2.27,0,0,1,.29,1.76,3.91,3.91,0,0,1-1,1.73,11.14,11.14,0,0,1-2.06,1.62l2.86,1.65-1.56.9L873,638.57a23.77,23.77,0,0,1-4.3,1.63,29.28,29.28,0,0,1-4.72.88l-1.51-2.67a6.59,6.59,0,0,0,1.25-.1,15.41,15.41,0,0,0,1.9-.33c.69-.15,1.43-.33,2.19-.56a17,17,0,0,0,2.2-.81L865.5,634l-.59.22-.61.18c-1.12.36-2.16.66-3.1.87a14.05,14.05,0,0,1-2.66.35,8.23,8.23,0,0,1-4.5-1.08,5.72,5.72,0,0,1-1.87-1.62,2.73,2.73,0,0,1-.51-1.73,3.24,3.24,0,0,1,.75-1.75,7.9,7.9,0,0,1,1.82-1.64l-2.67-1.54,1.56-.9,2.67,1.52a18.94,18.94,0,0,1,3.85-1.42,29.9,29.9,0,0,1,3.87-.7Zm-7.65,4.71a3.24,3.24,0,0,0,1.95.42,12.89,12.89,0,0,0,2.67-.6l-4.14-2.44C856.08,630.46,855.93,631.28,857.2,632.06ZM872,633.29a3.44,3.44,0,0,0-2.11-.38,16.34,16.34,0,0,0-2.93.66l4.19,2.41c1.77-1.09,2.06-2,.85-2.69Z" transform="translate(-82 -279.92)"/><path class="cls-4" d="M862.43,638.38v-1.52l1.72,1.11-.75,1.15Z" transform="translate(-82 -279.92)"/><polygon class="cls-4" points="795.4 359.42 795.4 357.9 791.68 358.19 793.83 359.65 795.4 359.42"/><polygon class="cls-4" points="795.72 353.86 795.72 352.32 792.93 353.32 795.72 353.86"/><path class="cls-4" d="M866.18,633.7l.93-.9,3.27,2.26-.21.67s-2.43-1-2.51-1.08Z" transform="translate(-82 -279.92)"/><path class="cls-4" d="M857.68,628.91l4.34,2.47.89-.66s-.55-.61-.59-.68a5.78,5.78,0,0,0-1.33-1.13,18.31,18.31,0,0,1-2.39-1Z" transform="translate(-82 -279.92)"/><polygon class="cls-4" points="782.85 347.43 782.85 345.91 780.86 345.27 780.43 346.45 780.54 347 782.85 347.43"/><polygon class="cls-4" points="769.61 346.33 769.61 344.81 771.92 345.07 771.18 346.53 769.61 346.33"/><path class="cls-4" d="M851.7,631.4v-1.58h2.67l-.69,1.46-1.15,1.34Z" transform="translate(-82 -279.92)"/><path class="cls-6" d="M864.85,625.83a8.76,8.76,0,0,0-1,.08,8.38,8.38,0,0,0-1.55.28c-.57.12-1.16.28-1.77.46a12.79,12.79,0,0,0-1.76.67l4.49,2.59.82-.28c1.13-.39,2.21-.71,3.22-1a14.57,14.57,0,0,1,2.93-.48,10.31,10.31,0,0,1,2.66.18,8.48,8.48,0,0,1,2.57,1,5,5,0,0,1,1.93,1.7,2.27,2.27,0,0,1,.29,1.76,4,4,0,0,1-1,1.73,11.14,11.14,0,0,1-2.06,1.62l2.86,1.65-1.56.91L873,637.06a23.73,23.73,0,0,1-4.3,1.62,27.87,27.87,0,0,1-4.72.89l-1.51-2.67c.42,0,.84,0,1.25-.09.58-.07,1.21-.18,1.9-.32s1.43-.35,2.19-.56a15.77,15.77,0,0,0,2.2-.83l-4.47-2.58-.59.2-.61.19a30,30,0,0,1-3.1.87,14.07,14.07,0,0,1-2.66.36,9.68,9.68,0,0,1-2.34-.23,7.93,7.93,0,0,1-2.16-.86,5.57,5.57,0,0,1-1.87-1.61,2.73,2.73,0,0,1-.51-1.73,3.24,3.24,0,0,1,.75-1.75,7.74,7.74,0,0,1,1.82-1.65l-2.67-1.54,1.56-.89,2.67,1.51a19.55,19.55,0,0,1,3.85-1.42,28.26,28.26,0,0,1,3.87-.69Zm-7.65,4.72a3.23,3.23,0,0,0,1.95.41,11.22,11.22,0,0,0,2.67-.6l-4.14-2.42C856.08,629,855.93,629.82,857.2,630.55ZM872,631.78a3.29,3.29,0,0,0-2.11-.38,17.2,17.2,0,0,0-2.93.64l4.19,2.42c1.77-1.09,2.06-2,.85-2.68Z" transform="translate(-82 -279.92)"/></g><g id="Coin-9"><ellipse class="cls-2" cx="777.82" cy="349.66" rx="39.12" ry="22.59"/><polygon class="cls-2" points="738.73 350 738.73 339.7 746.45 346.59 738.73 350"/><polygon class="cls-2" points="816.93 339.97 816.93 349.65 812.99 353.84 811.05 342.77 816.93 339.97"/><ellipse class="cls-3" cx="777.82" cy="339.98" rx="39.12" ry="22.59"/><path class="cls-4" d="M887.74,620.61c-.39,3.8-3.11,7.55-8.14,10.46-10.94,6.31-28.67,6.31-39.61,0-5-2.91-7.75-6.67-8.14-10.46-.46-4.46,2.26-9,8.14-12.39,10.94-6.33,28.67-6.33,39.61,0C885.51,611.59,888.23,616.14,887.74,620.61Z" transform="translate(-82 -279.92)"/><path class="cls-5" d="M887.74,620.61c-.39,3.8-3.11,7.55-8.14,10.46-10.94,6.31-28.67,6.31-39.61,0-5-2.91-7.75-6.67-8.14-10.46.39-3.8,3.1-7.55,8.14-10.46,10.94-6.32,28.67-6.32,39.61,0C884.66,613.05,887.38,616.8,887.74,620.61Z" transform="translate(-82 -279.92)"/><path class="cls-4" d="M859.42,615.27a7,7,0,0,0-1,.1c-.47.06-1,.14-1.55.26s-1.17.28-1.79.47a12.25,12.25,0,0,0-1.74.67l4.49,2.59.8-.28c1.15-.38,2.23-.71,3.25-1a17.73,17.73,0,0,1,2.9-.48,10.39,10.39,0,0,1,2.67.19,8.43,8.43,0,0,1,2.56,1,5.19,5.19,0,0,1,1.94,1.69,2.38,2.38,0,0,1,.28,1.77,3.84,3.84,0,0,1-1.06,1.73,10.81,10.81,0,0,1-2,1.63l2.87,1.64-1.56.91-2.88-1.67a23,23,0,0,1-4.3,1.61,27.16,27.16,0,0,1-4.74.9l-1.5-2.67a11.9,11.9,0,0,0,1.33-.1c.56-.07,1.19-.17,1.88-.32s1.43-.34,2.2-.56a15.6,15.6,0,0,0,2.19-.82l-4.52-2.6-.59.2-.6.18a30.9,30.9,0,0,1-3.15.95,13.3,13.3,0,0,1-2.67.36,8.63,8.63,0,0,1-2.32-.23,7.34,7.34,0,0,1-2.16-.86,5.37,5.37,0,0,1-1.87-1.61,2.67,2.67,0,0,1-.5-1.73,3.18,3.18,0,0,1,.73-1.75,7.78,7.78,0,0,1,1.83-1.65l-2.67-1.54,1.56-.89,2.67,1.51a19.55,19.55,0,0,1,3.85-1.42,29.72,29.72,0,0,1,3.86-.69Zm-7.7,4.75a3.24,3.24,0,0,0,1.95.42,12.28,12.28,0,0,0,2.67-.6l-4.22-2.43C850.64,618.42,850.51,619.28,851.72,620Zm14.77,1.23a3.36,3.36,0,0,0-2.11-.37,17.2,17.2,0,0,0-2.93.64l4.17,2.41c1.84-1.08,2.11-2,.92-2.68Z" transform="translate(-82 -279.92)"/><path class="cls-4" d="M857.06,626.33q0-.75,0-1.5l1.72,1.09-.75,1.15Z" transform="translate(-82 -279.92)"/><polygon class="cls-4" points="789.97 347.37 789.97 345.87 786.25 346.15 788.38 347.6 789.97 347.37"/><polygon class="cls-4" points="790.28 341.81 790.28 340.28 787.5 341.29 790.28 341.81"/><path class="cls-4" d="M860.75,621.65l.92-.89,3.27,2.27-.2.66s-2.44-1-2.52-1.09S860.75,621.65,860.75,621.65Z" transform="translate(-82 -279.92)"/><path class="cls-4" d="M852.2,616.88l4.34,2.45.88-.64s-.54-.63-.58-.69a5.5,5.5,0,0,0-1.33-1.12c-.32-.07-2.38-1-2.38-1Z" transform="translate(-82 -279.92)"/><polygon class="cls-4" points="777.42 335.38 777.42 333.87 775.42 333.22 774.99 334.41 775.1 334.95 777.42 335.38"/><polygon class="cls-4" points="764.18 334.29 764.18 332.78 766.49 333.02 765.74 334.5 764.18 334.29"/><path class="cls-4" d="M846.26,619.36v-1.58h2.67l-.65,1.42-1.15,1.25Z" transform="translate(-82 -279.92)"/><path class="cls-6" d="M859.42,613.79a7,7,0,0,0-1,.08c-.47.07-1,.16-1.55.28s-1.17.27-1.79.46a13.53,13.53,0,0,0-1.74.66l4.49,2.61.8-.3c1.15-.37,2.23-.69,3.25-1a15,15,0,0,1,2.9-.48,10.38,10.38,0,0,1,2.67.18,8.43,8.43,0,0,1,2.56,1,5.13,5.13,0,0,1,1.94,1.7,2.34,2.34,0,0,1,.28,1.75,3.84,3.84,0,0,1-1.06,1.74,10.38,10.38,0,0,1-2,1.62l2.87,1.66-1.56.89L867.52,625a23,23,0,0,1-4.3,1.63,28.27,28.27,0,0,1-4.74.88l-1.5-2.67a11.9,11.9,0,0,0,1.33-.1c.56-.07,1.19-.17,1.88-.32s1.43-.34,2.2-.56a15.6,15.6,0,0,0,2.19-.82l-4.47-2.59-.59.2-.6.19c-1.13.37-2.16.67-3.09.88a15,15,0,0,1-2.67.35,9,9,0,0,1-2.32-.21,8.29,8.29,0,0,1-2.16-.87,5.4,5.4,0,0,1-1.87-1.62,2.62,2.62,0,0,1-.51-1.73,3.26,3.26,0,0,1,.74-1.75,7.94,7.94,0,0,1,1.82-1.65l-2.66-1.52,1.56-.91,2.67,1.52a19.58,19.58,0,0,1,3.85-1.43,29.72,29.72,0,0,1,3.86-.69Zm-7.7,4.71a3.25,3.25,0,0,0,1.95.43,13.59,13.59,0,0,0,2.67-.61l-4.22-2.43Q849.9,617.41,851.72,618.5Zm14.77,1.23a3.38,3.38,0,0,0-2.11-.37,17,17,0,0,0-2.93.65l4.17,2.42c1.84-1.1,2.11-2,.92-2.7Z" transform="translate(-82 -279.92)"/></g><g id="Coin-10"><ellipse class="cls-2" cx="795.55" cy="338.06" rx="39.12" ry="22.59"/><polygon class="cls-2" points="756.46 338.41 756.46 328.11 764.19 334.99 756.46 338.41"/><polygon class="cls-2" points="834.67 328.39 834.67 338.06 830.72 342.25 828.79 331.18 834.67 328.39"/><ellipse class="cls-3" cx="795.55" cy="328.39" rx="39.12" ry="22.59"/><path class="cls-4" d="M905.52,609c-.4,3.81-3.11,7.56-8.15,10.46-10.94,6.31-28.67,6.31-39.6,0-5-2.9-7.77-6.67-8.15-10.46-.44-4.4,2.22-9,8.15-12.4,10.93-6.33,28.66-6.33,39.6,0C903.25,600,906,604.6,905.52,609Z" transform="translate(-82 -279.92)"/><path class="cls-5" d="M905.52,609c-.4,3.81-3.11,7.56-8.15,10.46-10.94,6.31-28.67,6.31-39.6,0-5-2.9-7.77-6.67-8.15-10.46.38-3.8,3.11-7.55,8.15-10.46,10.93-6.32,28.66-6.32,39.6,0C902.41,601.45,905.12,605.2,905.52,609Z" transform="translate(-82 -279.92)"/><path class="cls-4" d="M877.19,603.71a8.78,8.78,0,0,0-1,.09c-.47.07-1,.15-1.55.27s-1.16.28-1.79.46a12.37,12.37,0,0,0-1.75.67l4.5,2.59.8-.28c1.15-.37,2.23-.71,3.24-1a14.38,14.38,0,0,1,2.91-.48,10,10,0,0,1,2.67.17,8.43,8.43,0,0,1,2.56,1,5.05,5.05,0,0,1,1.93,1.71,2.24,2.24,0,0,1,.28,1.75,4,4,0,0,1-1,1.73,11.47,11.47,0,0,1-2,1.63l2.85,1.64-1.56.91-2.88-1.67a23.36,23.36,0,0,1-4.29,1.62,28.17,28.17,0,0,1-4.73.89l-1.5-2.67c.41,0,.83,0,1.25-.09a18.07,18.07,0,0,0,1.88-.32c.69-.15,1.43-.34,2.2-.56a15.77,15.77,0,0,0,2.2-.83l-4.47-2.58-.58.21-.62.18a30.15,30.15,0,0,1-3.09.87,13.4,13.4,0,0,1-2.67.36,8.63,8.63,0,0,1-2.32-.23,7.34,7.34,0,0,1-2.16-.86,5.37,5.37,0,0,1-1.87-1.61,2.62,2.62,0,0,1-.51-1.73,3.26,3.26,0,0,1,.74-1.75,7.94,7.94,0,0,1,1.82-1.65l-2.66-1.54,1.56-.89,2.66,1.51a19.87,19.87,0,0,1,3.86-1.42,29.72,29.72,0,0,1,3.86-.69Zm-7.64,4.72a3.23,3.23,0,0,0,2,.41,12.28,12.28,0,0,0,2.67-.6L870,605.82c-1.58,1-1.71,1.88-.44,2.61Zm14.77,1.23a3.3,3.3,0,0,0-2.11-.38,19.76,19.76,0,0,0-2.94.64l4.18,2.42c1.75-1.07,2-2,.83-2.68Z" transform="translate(-82 -279.92)"/><path class="cls-4" d="M874.74,614.74v-1.51l1.71,1.1-.75,1.16Z" transform="translate(-82 -279.92)"/><polygon class="cls-4" points="807.71 335.78 807.71 334.27 803.99 334.55 806.12 336.01 807.71 335.78"/><polygon class="cls-4" points="808.03 330.22 808.03 328.68 805.24 329.7 808.03 330.22"/><path class="cls-4" d="M878.53,610.06l.92-.88,3.27,2.25-.2.67s-2.44-1-2.52-1.09Z" transform="translate(-82 -279.92)"/><path class="cls-4" d="M869.94,605.28l4.33,2.46.9-.64-.59-.68a4.94,4.94,0,0,0-1.34-1.14c-.3,0-2.37-1-2.37-1Z" transform="translate(-82 -279.92)"/><polygon class="cls-4" points="795.15 323.79 795.15 322.28 793.17 321.63 792.74 322.83 792.83 323.36 795.15 323.79"/><polygon class="cls-4" points="781.92 322.69 781.92 321.19 784.23 321.43 783.48 322.91 781.92 322.69"/><path class="cls-4" d="M864,607.76v-1.57h2.67L866,607.6l-1.14,1.26Z" transform="translate(-82 -279.92)"/><path class="cls-6" d="M877.19,602.2a5,5,0,0,0-1,.08c-.47.07-1,.16-1.55.28s-1.16.27-1.79.45a15.4,15.4,0,0,0-1.75.67l4.5,2.6.8-.29q1.73-.56,3.24-1a15,15,0,0,1,2.91-.43,10.41,10.41,0,0,1,2.67.17,8.82,8.82,0,0,1,2.56,1,5,5,0,0,1,1.93,1.7,2.27,2.27,0,0,1,.28,1.76,4,4,0,0,1-1,1.73,10.76,10.76,0,0,1-2,1.62l2.85,1.66-1.56.89-2.88-1.67A22.69,22.69,0,0,1,881,615.1a28.15,28.15,0,0,1-4.73.88l-1.5-2.67c.41,0,.83,0,1.25-.1.63-.08,1.26-.18,1.88-.32s1.43-.33,2.2-.56a15.72,15.72,0,0,0,2.2-.82l-4.47-2.59-.58.2-.62.19c-1.13.37-2.16.67-3.09.88a15,15,0,0,1-2.67.35,8.62,8.62,0,0,1-2.32-.22,7.93,7.93,0,0,1-2.16-.86,5.4,5.4,0,0,1-1.87-1.62,2.62,2.62,0,0,1-.51-1.73,3.34,3.34,0,0,1,.74-1.75,8.15,8.15,0,0,1,1.82-1.65l-2.66-1.52,1.56-.91,2.66,1.52a18.41,18.41,0,0,1,3.86-1.41,26.74,26.74,0,0,1,3.86-.71Zm-7.64,4.71a3.32,3.32,0,0,0,2,.43,15.37,15.37,0,0,0,2.67-.6L870,604.29c-1.58,1-1.71,1.89-.44,2.62Zm14.77,1.23a3.45,3.45,0,0,0-2.11-.38,16.45,16.45,0,0,0-2.94.66l4.18,2.41c1.75-1.09,2-2,.83-2.69Z" transform="translate(-82 -279.92)"/></g><g id="Coin-11"><ellipse class="cls-2" cx="794.57" cy="326.88" rx="39.12" ry="22.59"/><polygon class="cls-2" points="755.47 327.21 755.47 316.93 763.2 323.81 755.47 327.21"/><polygon class="cls-2" points="833.68 317.2 833.68 326.88 829.73 331.07 827.79 320 833.68 317.2"/><ellipse class="cls-3" cx="794.57" cy="317.2" rx="39.12" ry="22.59"/><path class="cls-4" d="M904.52,597.82c-.4,3.81-3.1,7.56-8.15,10.46-10.94,6.31-28.65,6.31-39.59,0-5-2.9-7.76-6.67-8.14-10.46-.48-4.45,2.24-9,8.14-12.39,10.94-6.32,28.65-6.32,39.59,0C902.23,588.82,905,593.37,904.52,597.82Z" transform="translate(-82 -279.92)"/><path class="cls-5" d="M904.52,597.82c-.4,3.81-3.1,7.56-8.15,10.46-10.94,6.31-28.65,6.31-39.59,0-5-2.9-7.76-6.67-8.14-10.46.38-3.8,3.09-7.55,8.14-10.46,10.94-6.32,28.65-6.32,39.59,0C901.42,590.27,904.12,594,904.52,597.82Z" transform="translate(-82 -279.92)"/><path class="cls-4" d="M876.16,592.59a7.18,7.18,0,0,0-1,.1,8.25,8.25,0,0,0-1.54.26c-.58.12-1.17.28-1.78.47a12.49,12.49,0,0,0-1.76.67l4.5,2.59.81-.28c1.15-.39,2.21-.71,3.23-1a18,18,0,0,1,2.92-.48,10.42,10.42,0,0,1,2.67.19,8.43,8.43,0,0,1,2.56,1,5,5,0,0,1,1.93,1.69,2.3,2.3,0,0,1,.3,1.77,4,4,0,0,1-1.06,1.73,10.33,10.33,0,0,1-2,1.61l2.85,1.66-1.56.91-2.88-1.67a22.53,22.53,0,0,1-4.28,1.61,27.33,27.33,0,0,1-4.74.9l-1.5-2.67a10.7,10.7,0,0,0,1.25-.1,9.57,9.57,0,0,0,1.89-.32c.7-.14,1.43-.34,2.19-.56a15.27,15.27,0,0,0,2.2-.82l-4.4-2.69-.59.2-.61.19c-1,.34-2,.63-3.1.87a14,14,0,0,1-2.66.36,9.05,9.05,0,0,1-2.38-.2,7.65,7.65,0,0,1-2.16-.87,5.64,5.64,0,0,1-1.87-1.6,2.83,2.83,0,0,1-.5-1.73,3.13,3.13,0,0,1,.74-1.75,8.22,8.22,0,0,1,1.82-1.66l-2.67-1.53,1.56-.89,2.67,1.5a19.52,19.52,0,0,1,3.85-1.41,27.07,27.07,0,0,1,3.87-.69Zm-7.64,4.73a3.29,3.29,0,0,0,1.94.41,12.15,12.15,0,0,0,2.67-.6l-4.25-2.49c-1.49,1-1.63,1.88-.36,2.61Zm14.76,1.22a3.33,3.33,0,0,0-2.1-.37,17.31,17.31,0,0,0-2.94.64l4.19,2.42c1.78-1.16,2.07-2.06.85-2.75Z" transform="translate(-82 -279.92)"/><path class="cls-4" d="M873.75,603.56v-1.51l1.72,1.1-.75,1.14Z" transform="translate(-82 -279.92)"/><polygon class="cls-4" points="806.71 324.6 806.71 323.09 802.99 323.37 805.14 324.83 806.71 324.6"/><polygon class="cls-4" points="807.03 319.04 807.03 317.5 804.25 318.52 807.03 319.04"/><path class="cls-4" d="M877.49,598.88l.94-.9,3.27,2.27-.22.67s-2.42-1-2.5-1.09Z" transform="translate(-82 -279.92)"/><path class="cls-4" d="M869,594.1l4.32,2.5.89-.64s-.54-.63-.58-.7a5.86,5.86,0,0,0-1.34-1.12c-.31,0-2.37-1-2.37-1Z" transform="translate(-82 -279.92)"/><polygon class="cls-4" points="794.16 312.61 794.16 311.1 792.17 310.44 791.75 311.63 791.85 312.18 794.16 312.61"/><polygon class="cls-4" points="780.93 311.51 780.93 310 783.23 310.25 782.5 311.71 780.93 311.51"/><path class="cls-4" d="M863,596.6V595h2.67l-.64,1.42-1.15,1.25Z" transform="translate(-82 -279.92)"/><path class="cls-6" d="M876.16,591a6,6,0,0,0-1,.08c-.45.07-1,.16-1.54.28s-1.17.27-1.78.45a15.55,15.55,0,0,0-1.76.67l4.5,2.6.81-.29c1.15-.37,2.21-.69,3.23-1a14.36,14.36,0,0,1,2.92-.48,10.41,10.41,0,0,1,2.67.17,8.43,8.43,0,0,1,2.56,1,5,5,0,0,1,1.93,1.71A2.25,2.25,0,0,1,889,598a3.84,3.84,0,0,1-1.06,1.73,10.81,10.81,0,0,1-2,1.63l2.85,1.65-1.56.9-2.88-1.67a24.34,24.34,0,0,1-4.28,1.63,29.31,29.31,0,0,1-4.74.88l-1.5-2.67A10.55,10.55,0,0,0,875,602a17.79,17.79,0,0,0,1.89-.32c.7-.14,1.43-.33,2.19-.56a15.67,15.67,0,0,0,2.2-.81l-4.4-2.62-.59.2-.61.19a32.15,32.15,0,0,1-3.1.88,14.91,14.91,0,0,1-2.66.35,9.67,9.67,0,0,1-2.34-.22,7.8,7.8,0,0,1-2.16-.88,5.41,5.41,0,0,1-1.88-1.58,2.78,2.78,0,0,1-.51-1.74,3.28,3.28,0,0,1,.75-1.75,8.35,8.35,0,0,1,1.81-1.65l-2.66-1.52,1.56-.91,2.66,1.52a19,19,0,0,1,3.86-1.42,29.9,29.9,0,0,1,3.87-.7Zm-7.64,4.71a3.22,3.22,0,0,0,1.94.41,11.11,11.11,0,0,0,2.67-.6l-4.25-2.43c-1.49,1-1.63,1.89-.36,2.62ZM883.28,597a3.41,3.41,0,0,0-2.1-.38,19.49,19.49,0,0,0-2.94.64l4.19,2.43c1.78-1.09,2.07-2,.85-2.69Z" transform="translate(-82 -279.92)"/></g><g id="Coin-12"><ellipse class="cls-2" cx="784.98" cy="315.29" rx="39.12" ry="22.59"/><polygon class="cls-2" points="745.88 315.62 745.88 305.33 753.62 312.22 745.88 315.62"/><polygon class="cls-2" points="824.1 305.6 824.1 315.29 820.13 319.48 818.2 308.4 824.1 305.6"/><ellipse class="cls-3" cx="784.98" cy="305.6" rx="39.12" ry="22.59"/><path class="cls-4" d="M894.93,586.23c-.4,3.8-3.11,7.55-8.15,10.46-10.93,6.31-28.66,6.31-39.6,0-5-2.91-7.75-6.67-8.14-10.46-.48-4.46,2.24-9,8.14-12.39,10.94-6.33,28.67-6.33,39.6,0C892.68,577.22,895.4,581.77,894.93,586.23Z" transform="translate(-82 -279.92)"/><path class="cls-5" d="M894.93,586.23c-.4,3.8-3.11,7.55-8.15,10.46-10.93,6.31-28.66,6.31-39.6,0-5-2.91-7.75-6.67-8.14-10.46.39-3.8,3.1-7.55,8.14-10.46,10.94-6.32,28.67-6.32,39.6,0C891.82,578.68,894.53,582.43,894.93,586.23Z" transform="translate(-82 -279.92)"/><path class="cls-4" d="M866.57,580.93a7,7,0,0,0-1,.1,8.48,8.48,0,0,0-1.55.26c-.57.12-1.16.28-1.77.47a12,12,0,0,0-1.76.67L865,585l.82-.28c1.14-.38,2.21-.71,3.24-1a17.67,17.67,0,0,1,2.91-.48,10.31,10.31,0,0,1,2.66.19,8.23,8.23,0,0,1,2.57,1,5.19,5.19,0,0,1,1.94,1.69,2.27,2.27,0,0,1,.28,1.76,3.8,3.8,0,0,1-1,1.74,10.94,10.94,0,0,1-2.05,1.61l2.85,1.66-1.56.9-2.88-1.66a22.79,22.79,0,0,1-4.28,1.61,27.33,27.33,0,0,1-4.74.9L864.15,592a12.08,12.08,0,0,0,1.34-.1,18.53,18.53,0,0,0,1.88-.32c.69-.14,1.42-.34,2.2-.56a17,17,0,0,0,2.19-.82l-4.47-2.58-.59.2-.61.19c-1,.34-2.05.63-3.1.87a14.91,14.91,0,0,1-2.67.36A9.13,9.13,0,0,1,858,589a7.59,7.59,0,0,1-2.15-.87,5.47,5.47,0,0,1-1.88-1.6,2.77,2.77,0,0,1-.51-1.73,3.21,3.21,0,0,1,.75-1.75,8.17,8.17,0,0,1,1.81-1.66l-2.66-1.53,1.56-.89,2.66,1.5a19.93,19.93,0,0,1,3.87-1.41,28.12,28.12,0,0,1,3.86-.69Zm-7.65,4.73a3.35,3.35,0,0,0,2,.41,12.15,12.15,0,0,0,2.67-.6l-4.2-2.43c-1.55,1-1.67,1.88-.43,2.62Zm14.77,1.22a3.35,3.35,0,0,0-2.11-.37,18.46,18.46,0,0,0-2.93.64l4.19,2.42c1.78-1.08,2.07-2,.85-2.69Z" transform="translate(-82 -279.92)"/><path class="cls-4" d="M864.15,592v-1.51l1.72,1.09-.74,1.15Z" transform="translate(-82 -279.92)"/><polygon class="cls-4" points="797.12 313.01 797.12 311.5 793.41 311.78 795.55 313.23 797.12 313.01"/><polygon class="cls-4" points="797.44 307.44 797.44 305.91 794.65 306.92 797.44 307.44"/><path class="cls-4" d="M867.9,587.26l.93-.9,3.27,2.27-.2.67s-2.44-1-2.52-1.1Z" transform="translate(-82 -279.92)"/><path class="cls-4" d="M859.36,582.51,863.7,585l.88-.64s-.55-.62-.59-.69a5.51,5.51,0,0,0-1.33-1.12c-.31-.06-2.38-1-2.38-1Z" transform="translate(-82 -279.92)"/><polygon class="cls-4" points="784.57 301.01 784.57 299.5 782.58 298.85 782.15 300.04 782.26 300.59 784.57 301.01"/><polygon class="cls-4" points="771.35 299.92 771.35 298.41 773.65 298.65 772.91 300.12 771.35 299.92"/><path class="cls-4" d="M853.43,585v-1.57h2.66l-.64,1.41-1.14,1.25Z" transform="translate(-82 -279.92)"/><path class="cls-6" d="M866.57,579.43a5.05,5.05,0,0,0-1,.08c-.45.06-1,.16-1.55.28s-1.16.26-1.77.45a13.85,13.85,0,0,0-1.76.67l4.49,2.6.82-.29c1.14-.38,2.21-.7,3.24-1a15.78,15.78,0,0,1,2.91-.48,10.77,10.77,0,0,1,2.66.18,8.23,8.23,0,0,1,2.57,1,5.07,5.07,0,0,1,1.94,1.71,2.23,2.23,0,0,1,.28,1.74,3.72,3.72,0,0,1-1,1.74,11.47,11.47,0,0,1-2.05,1.63l2.85,1.65-1.56.89-2.88-1.66a23.54,23.54,0,0,1-4.28,1.62,28.45,28.45,0,0,1-4.74.88l-1.51-2.66c.45,0,.89,0,1.34-.11a18.53,18.53,0,0,0,1.88-.32c.69-.15,1.42-.34,2.2-.56a16.9,16.9,0,0,0,2.19-.81l-4.47-2.59-.59.2-.61.18a29.51,29.51,0,0,1-3.1.88,14.15,14.15,0,0,1-2.67.35,9.11,9.11,0,0,1-2.33-.21,8.36,8.36,0,0,1-2.15-.87A5.61,5.61,0,0,1,854,585a2.78,2.78,0,0,1-.51-1.74,3.44,3.44,0,0,1,.75-1.75,8.35,8.35,0,0,1,1.81-1.65l-2.66-1.52,1.56-.91,2.66,1.52a19.33,19.33,0,0,1,3.87-1.42,28.15,28.15,0,0,1,3.86-.7Zm-7.65,4.71a3.26,3.26,0,0,0,2,.41,12.15,12.15,0,0,0,2.67-.6l-4.2-2.43c-1.55,1-1.67,1.88-.43,2.62Zm14.77,1.22a3.42,3.42,0,0,0-2.11-.37,18.46,18.46,0,0,0-2.93.64l4.19,2.43c1.78-1.1,2.07-2,.85-2.7Z" transform="translate(-82 -279.92)"/></g></g><g id="laptop"><g id="laptop-2" data-name="laptop"><g id="Слой_1-2-3" data-name="Слой 1-2"><g id="Laptop-3" data-name="Laptop"><path class="cls-7" d="M1501.62,834.28,1118.06,612.83c-5.38-3.11-9.73-11.43-9.73-18.6V297.53c0-7.17,4.35-10.47,9.73-7.36l383.56,221.45c5.38,3.11,9.75,11.43,9.75,18.6V826.85C1511.37,834.09,1507,837.39,1501.62,834.28Z" transform="translate(-82 -279.92)"/><polygon class="cls-7" points="1421.6 557.42 1425.86 554.98 1424.01 542.37 1421.6 557.42"/><path class="cls-7" d="M1107.64,292l4.19-2.41,6,3.36s-6.41,1-6.56.93S1107.64,292,1107.64,292Z" transform="translate(-82 -279.92)"/><path class="cls-22" d="M1498.11,836.31,1114.55,614.87c-5.38-3.11-9.75-11.45-9.75-18.61V299.57c0-7.18,4.37-10.47,9.75-7.38l383.56,221.46c5.38,3.09,9.75,11.43,9.75,18.61V829C1507.86,836.13,1503.49,839.42,1498.11,836.31Z" transform="translate(-82 -279.92)"/><path class="cls-23" d="M1497.43,836.7,1113.88,615.25c-5.38-3.11-9.75-11.44-9.75-18.6V299.94c0-7.16,4.37-10.46,9.75-7.37L1497.43,514c5.38,3.09,9.74,11.43,9.74,18.6v296.7C1507.17,836.51,1502.81,839.81,1497.43,836.7Z" transform="translate(-82 -279.92)"/><path class="cls-24" d="M1501.91,818.66,1109.05,591.82l.21-290.69c0-3,2.08-4.19,4.67-2.69l383.55,221.45a10.36,10.36,0,0,1,4.68,8.08Z" transform="translate(-82 -279.92)"/><path class="cls-25" d="M1501.79,818.66l-392.9-226.82.2-290.78c0-3,2.1-4.18,4.67-2.69L1497.32,519.9A10.28,10.28,0,0,1,1502,528Z" transform="translate(-82 -279.92)"/><path class="cls-26" d="M1208.22,1009.11,824.58,787.65c-5.38-3.09-4.71-8.52,1.51-12.12L1083,627.19c6.22-3.58,15.62-4,21-.86l383.56,221.44c5.37,3.11,4.7,8.53-1.52,12.12l-256.94,148.35C1222.93,1011.82,1213.51,1012.21,1208.22,1009.11Z" transform="translate(-82 -279.92)"/><path class="cls-7" d="M1216.52,1004.07,833,782.63c-5.38-3.11-4.71-8.52,1.51-12.12l256.94-148.35c6.2-3.58,15.6-4,21-.87L1496,842.75c5.38,3.09,4.71,8.52-1.51,12.12l-256.94,148.34C1231.3,1006.79,1221.9,1007.18,1216.52,1004.07Z" transform="translate(-82 -279.92)"/><polygon class="cls-7" points="747.34 497.7 747.34 490.47 755.45 493.87 747.34 497.7"/><polygon class="cls-7" points="1417.6 568.22 1417.6 561.16 1411.59 563.23 1415.57 569.08 1417.6 568.22"/><path class="cls-22" d="M1216.52,998,833,776.54c-5.38-3.11-4.71-8.54,1.51-12.12l256.94-148.34c6.2-3.6,15.6-4,21-.88L1496,836.65c5.38,3.11,4.71,8.54-1.51,12.12L1237.52,997.11C1231.3,1000.71,1221.9,1001.1,1216.52,998Z" transform="translate(-82 -279.92)"/><path class="cls-23" d="M1216.52,997.05,833,775.6c-5.38-3.11-4.71-8.54,1.51-12.12l256.94-148.41c6.2-3.6,15.6-4,21-.88L1496,835.71c5.38,3.11,4.71,8.54-1.51,12.12L1237.52,996.17C1231.3,999.77,1221.9,1000.16,1216.52,997.05Z" transform="translate(-82 -279.92)"/><path class="cls-13" d="M1084.3,665.17l-17.85-10.32c-1.47-.84-1.28-2.3.4-3.27l17-9.84a6.32,6.32,0,0,1,5.68-.23l17.85,10.3c1.45.84,1.28,2.32-.42,3.36l-17,9.84A6.34,6.34,0,0,1,1084.3,665.17Z" transform="translate(-82 -279.92)"/><path class="cls-13" d="M1109.57,679.76l-17.85-10.3c-1.46-.84-1.27-2.32.41-3.36l17-9.85a6.29,6.29,0,0,1,5.68-.24l17.87,10.32c1.46.84,1.28,2.31-.4,3.28l-17,9.83A6.3,6.3,0,0,1,1109.57,679.76Z" transform="translate(-82 -279.92)"/><path class="cls-13" d="M1135.16,694.54l-17.87-10.32c-1.45-.84-1.28-2.31.42-3.28l17-9.83a6.29,6.29,0,0,1,5.68-.24l17.85,10.3c1.47.84,1.28,2.32-.4,3.28l-17,9.85A6.35,6.35,0,0,1,1135.16,694.54Z" transform="translate(-82 -279.92)"/><path class="cls-13" d="M1160.15,709l-17.87-10.31c-1.44-.84-1.27-2.31.42-3.27l17-9.85a6.33,6.33,0,0,1,5.7-.24l17.85,10.32c1.46.84,1.27,2.31-.41,3.36l-17,9.84A6.31,6.31,0,0,1,1160.15,709Z" transform="translate(-82 -279.92)"/><path class="cls-13" d="M1185.43,723.56l-17.87-10.32c-1.44-.84-1.26-2.3.42-3.27l17-9.84a6.25,6.25,0,0,1,5.68-.23l17.85,10.3c1.46.84,1.27,2.3-.41,3.36l-17,9.85A6.35,6.35,0,0,1,1185.43,723.56Z" transform="translate(-82 -279.92)"/><path class="cls-13" d="M1210.71,738.15l-17.85-10.3c-1.46-.84-1.28-2.32.4-3.36l17-9.83a6.31,6.31,0,0,1,5.69-.24l17.86,10.3c1.45.84,1.26,2.32-.42,3.37l-17,9.83A6.32,6.32,0,0,1,1210.71,738.15Z" transform="translate(-82 -279.92)"/><path class="cls-13" d="M1236,752.76l-17.85-10.32c-1.47-.84-1.28-2.3.4-3.28l17-9.8a6.35,6.35,0,0,1,5.68-.23l17.87,10.32c1.45.84,1.28,2.3-.42,3.28l-17,9.83A6.32,6.32,0,0,1,1236,752.76Z" transform="translate(-82 -279.92)"/><path class="cls-13" d="M1261.27,767.35,1243.42,757c-1.47-.84-1.28-2.3.4-3.28l17-9.83a6.29,6.29,0,0,1,5.68-.24L1284.41,754c1.46.84,1.28,2.32-.4,3.36l-17,9.76A6.31,6.31,0,0,1,1261.27,767.35Z" transform="translate(-82 -279.92)"/><path class="cls-13" d="M1286.56,781.94l-17.83-10.31c-1.46-.84-1.28-2.31.4-3.27l17-9.85a6.28,6.28,0,0,1,5.68-.24l17.86,10.32c1.47.84,1.28,2.31-.4,3.36l-17.06,9.75A6.3,6.3,0,0,1,1286.56,781.94Z" transform="translate(-82 -279.92)"/><path class="cls-13" d="M1311.84,796.59l-17.9-10.37c-1.44-.84-1.28-2.3.42-3.27l17.06-9.89a6.36,6.36,0,0,1,5.7-.23L1335,783.15c1.46.84,1.28,2.32-.4,3.36l-17.1,9.8A6.28,6.28,0,0,1,1311.84,796.59Z" transform="translate(-82 -279.92)"/><path class="cls-13" d="M1337.12,811.13l-17.87-10.3c-1.44-.84-1.26-2.32.42-3.28l17-9.85a6.32,6.32,0,0,1,5.68-.23l17.85,10.32c1.46.84,1.28,2.3-.41,3.36l-17,9.83A6.28,6.28,0,0,1,1337.12,811.13Z" transform="translate(-82 -279.92)"/><path class="cls-13" d="M1362.4,825.74l-17.85-10.32c-1.46-.84-1.28-2.3.4-3.28l17-9.83a6.26,6.26,0,0,1,5.68-.24l17.85,10.31c1.46.84,1.27,2.3-.41,3.27l-17,9.85A6.35,6.35,0,0,1,1362.4,825.74Z" transform="translate(-82 -279.92)"/><path class="cls-13" d="M1387.68,840.3,1369.83,830c-1.46-.84-1.28-2.32.4-3.36l17-9.83a6.28,6.28,0,0,1,5.68-.24l17.86,10.31c1.45.84,1.26,2.32-.42,3.36l-17,9.83A6.32,6.32,0,0,1,1387.68,840.3Z" transform="translate(-82 -279.92)"/><path class="cls-13" d="M1425.14,862l-30-17.34c-1.46-.85-1.28-2.31.4-3.28l17-9.85a6.37,6.37,0,0,1,5.69-.24l30,17.35c1.46.84,1.28,2.32-.4,3.28l-17,9.85A6.31,6.31,0,0,1,1425.14,862Z" transform="translate(-82 -279.92)"/><path class="cls-13" d="M1097.29,701l-17.85-10.27c-1.46-.84-1.28-2.3.4-3.27l17-9.84a6.36,6.36,0,0,1,5.7-.23l17.85,10.3c1.46.84,1.28,2.32-.4,3.36l-17,9.77A6.3,6.3,0,0,1,1097.29,701Z" transform="translate(-82 -279.92)"/><path class="cls-13" d="M1122.62,715.6l-17.85-10.32c-1.46-.84-1.28-2.31.4-3.28l17-9.83a6.31,6.31,0,0,1,5.69-.24l17.86,10.3c1.45.85,1.28,2.32-.42,3.28l-17,9.85A6.33,6.33,0,0,1,1122.62,715.6Z" transform="translate(-82 -279.92)"/><path class="cls-13" d="M1148,730.22,1130.1,719.9c-1.47-.84-1.28-2.3.4-3.36l17-9.83a6.29,6.29,0,0,1,5.68-.24l17.87,10.3c1.45.84,1.26,2.32-.42,3.28l-17,9.85A6.32,6.32,0,0,1,1148,730.22Z" transform="translate(-82 -279.92)"/><path class="cls-13" d="M1173.28,744.84l-17.87-10.32c-1.45-.84-1.26-2.3.42-3.27l17.09-9.84a6.26,6.26,0,0,1,5.68-.23l17.85,10.3c1.47.84,1.28,2.3-.4,3.28l-17,9.85A6.36,6.36,0,0,1,1173.28,744.84Z" transform="translate(-82 -279.92)"/><path class="cls-13" d="M1198.4,759.35,1180.54,749c-1.46-.84-1.28-2.3.4-3.28l17-9.85a6.37,6.37,0,0,1,5.69-.23L1221.53,746c1.46.84,1.28,2.3-.4,3.27l-17,9.85A6.37,6.37,0,0,1,1198.4,759.35Z" transform="translate(-82 -279.92)"/><path class="cls-13" d="M1223.72,774l-17.85-10.32c-1.47-.84-1.28-2.3.4-3.28l17.08-9.85a6.38,6.38,0,0,1,5.68-.23l17.85,10.32c1.44.84,1.28,2.3-.42,3.36l-17,9.83A6.32,6.32,0,0,1,1223.72,774Z" transform="translate(-82 -279.92)"/><path class="cls-13" d="M1249.05,788.58l-17.85-10.31c-1.47-.84-1.28-2.3.4-3.36l17-9.85a6.35,6.35,0,0,1,5.68-.23l17.85,10.32c1.47.84,1.28,2.3-.4,3.28l-17,9.83A6.32,6.32,0,0,1,1249.05,788.58Z" transform="translate(-82 -279.92)"/><path class="cls-13" d="M1274.38,803.2l-17.87-10.3c-1.45-.84-1.28-2.32.42-3.28l17-9.83a6.31,6.31,0,0,1,5.69-.24l17.85,10.32c1.47.84,1.28,2.3-.4,3.28l-17,9.83A6.32,6.32,0,0,1,1274.38,803.2Z" transform="translate(-82 -279.92)"/><path class="cls-13" d="M1299.71,817.82l-17.87-10.3c-1.46-.84-1.28-2.32.4-3.28l17-9.85a6.31,6.31,0,0,1,5.68-.23l17.86,10.32c1.47.84,1.28,2.3-.4,3.28l-17,9.83A6.32,6.32,0,0,1,1299.71,817.82Z" transform="translate(-82 -279.92)"/><path class="cls-13" d="M1325,832.45l-17.85-10.31c-1.46-.84-1.28-2.32.4-3.36l17-9.83a6.28,6.28,0,0,1,5.68-.24L1348.16,819c1.45.84,1.28,2.31-.42,3.28l-17,9.83A6.36,6.36,0,0,1,1325,832.45Z" transform="translate(-82 -279.92)"/><path class="cls-13" d="M1350.35,847l-17.85-10.3c-1.46-.85-1.28-2.32.4-3.37l17-9.83a6.31,6.31,0,0,1,5.69-.23l17.85,10.3c1.46.86,1.27,2.32-.41,3.36l-17,9.83A6.29,6.29,0,0,1,1350.35,847Z" transform="translate(-82 -279.92)"/><path class="cls-13" d="M1375.68,861.69l-17.87-10.3c-1.44-.84-1.28-2.32.42-3.36l17-9.84A6.34,6.34,0,0,1,1381,838l17.85,10.3c1.46.84,1.27,2.32-.41,3.36l-17.06,9.84A6.31,6.31,0,0,1,1375.68,861.69Z" transform="translate(-82 -279.92)"/><path class="cls-13" d="M1072,686.35l-30-17.34c-1.46-.84-1.28-2.31.4-3.37l17.05-9.83a6.28,6.28,0,0,1,5.68-.23l30,17.33c1.47.84,1.28,2.31-.4,3.36l-17,9.83A6.32,6.32,0,0,1,1072,686.35Z" transform="translate(-82 -279.92)"/><path class="cls-13" d="M1423.92,862.9l-17.85-10.32a5.83,5.83,0,0,0-5.3,0l-18,10.41a1.69,1.69,0,0,0,0,3.06l1.42.8a1.5,1.5,0,0,1,0,2.83l-19.08,11c-1.46.86-1.48,2.22,0,3.06l11.36,6.58a6,6,0,0,0,5.3,0L1399.56,880l3.68-2.12,2.66-1.55,2.67-1.52,15.35-8.86C1425.36,865.1,1425.38,863.83,1423.92,862.9Z" transform="translate(-82 -279.92)"/><path class="cls-13" d="M986.36,721.82l-17.87-10.31c-1.45-.84-1.28-2.32.4-3.27l17.05-9.85a6.31,6.31,0,0,1,5.69-.24l17.85,10.32c1.47.84,1.28,2.3-.4,3.36l-17,9.83A6.32,6.32,0,0,1,986.36,721.82Z" transform="translate(-82 -279.92)"/><path class="cls-13" d="M1011.57,736.37,993.73,726c-1.46-.84-1.27-2.32.41-3.36l17-9.85a6.32,6.32,0,0,1,5.68-.24l17.87,10.33c1.46.84,1.28,2.3-.4,3.27l-17,9.94A6.29,6.29,0,0,1,1011.57,736.37Z" transform="translate(-82 -279.92)"/><path class="cls-13" d="M1036.78,750.93l-17.85-10.31c-1.46-.84-1.28-2.32.4-3.27l17.05-9.85a6.28,6.28,0,0,1,5.68-.24l17.86,10.32c1.47.84,1.28,2.3-.4,3.28l-17,9.83A6.33,6.33,0,0,1,1036.78,750.93Z" transform="translate(-82 -279.92)"/><path class="cls-13" d="M1251.5,874.89l-17.87-10.32c-1.46-.84-1.27-2.31.41-3.28l17-9.83a6.29,6.29,0,0,1,5.68-.24l17.87,10.3c1.46.84,1.28,2.32-.4,3.28l-17,9.85A6.32,6.32,0,0,1,1251.5,874.89Z" transform="translate(-82 -279.92)"/><path class="cls-13" d="M1276.7,889.44l-17.85-10.32c-1.47-.84-1.28-2.3.4-3.36l17-9.83a6.29,6.29,0,0,1,5.68-.24L1299.84,876c1.46.84,1.28,2.31-.4,3.27l-17,9.85A6.28,6.28,0,0,1,1276.7,889.44Z" transform="translate(-82 -279.92)"/><path class="cls-13" d="M1301.91,904l-17.85-10.32c-1.46-.84-1.28-2.31.4-3.28l17-9.77a6.34,6.34,0,0,1,5.69-.23l17.86,10.32c1.45.84,1.28,2.32-.42,3.28l-17,9.85A6.42,6.42,0,0,1,1301.91,904Z" transform="translate(-82 -279.92)"/><path class="cls-13" d="M1327.12,918.55l-17.85-10.32c-1.46-.84-1.28-2.3.4-3.27l17-9.84a6.25,6.25,0,0,1,5.68-.23l17.86,10.3c1.45.84,1.26,2.3-.42,3.28l-17,9.85A6.35,6.35,0,0,1,1327.12,918.55Z" transform="translate(-82 -279.92)"/><path class="cls-13" d="M1068.51,769.23l-24.35-14.05c-1.46-.84-1.28-2.32.4-3.36l17-9.83a6.31,6.31,0,0,1,5.69-.24l24.35,14.07c1.46.84,1.28,2.3-.4,3.36l-17,9.83A6.29,6.29,0,0,1,1068.51,769.23Z" transform="translate(-82 -279.92)"/><path class="cls-13" d="M1226.29,860.33l-24.36-14.07c-1.46-.84-1.27-2.3.41-3.28l17-9.83a6.32,6.32,0,0,1,5.68-.23l24.36,14.1c1.46.84,1.27,2.32-.41,3.28l-17,9.85A6.32,6.32,0,0,1,1226.29,860.33Z" transform="translate(-82 -279.92)"/><path class="cls-13" d="M1194.57,842l-118.71-68.55c-1.46-.84-1.28-2.32.4-3.27l17-9.85a6.31,6.31,0,0,1,5.69-.24l118.73,68.54c1.46.84,1.27,2.32-.41,3.28l-17,9.85A6.33,6.33,0,0,1,1194.57,842Z" transform="translate(-82 -279.92)"/><path class="cls-13" d="M1079.67,719.09l-17.86-10.32c-1.45-.84-1.26-2.3.42-3.27l17-9.75a6.29,6.29,0,0,1,5.68-.24l17.85,10.31c1.46.84,1.28,2.31-.4,3.27l-17.05,9.85A6.28,6.28,0,0,1,1079.67,719.09Z" transform="translate(-82 -279.92)"/><path class="cls-13" d="M1104.92,733.67l-17.85-10.31c-1.46-.84-1.28-2.32.4-3.28l17-9.84a6.28,6.28,0,0,1,5.68-.24l17.86,10.32c1.47.84,1.28,2.3-.4,3.28l-17,9.83A6.36,6.36,0,0,1,1104.92,733.67Z" transform="translate(-82 -279.92)"/><path class="cls-13" d="M1130.18,748.26l-17.87-10.33c-1.44-.84-1.26-2.3.42-3.36l17-9.83a6.29,6.29,0,0,1,5.68-.23l17.85,10.3c1.46.84,1.28,2.32-.4,3.28L1136,748A6.35,6.35,0,0,1,1130.18,748.26Z" transform="translate(-82 -279.92)"/><path class="cls-13" d="M1155.43,762.83l-17.8-10.31c-1.47-.84-1.28-2.32.4-3.27l17-9.8a6.29,6.29,0,0,1,5.68-.24l17.87,10.32c1.45.84,1.28,2.31-.4,3.28l-17,9.78A6.33,6.33,0,0,1,1155.43,762.83Z" transform="translate(-82 -279.92)"/><path class="cls-13" d="M1180.69,777.42l-17.85-10.32c-1.45-.84-1.26-2.31.42-3.28l17-9.83a6.29,6.29,0,0,1,5.68-.24l17.85,10.3c1.47.84,1.28,2.31-.4,3.28l-17.06,9.85A6.35,6.35,0,0,1,1180.69,777.42Z" transform="translate(-82 -279.92)"/><path class="cls-13" d="M1205.93,792l-17.88-10.3c-1.46-.84-1.28-2.32.4-3.37l17-9.83a6.32,6.32,0,0,1,5.68-.23l17.87,10.3c1.44.86,1.27,2.32-.42,3.36l-17.05,9.83A6.35,6.35,0,0,1,1205.93,792Z" transform="translate(-82 -279.92)"/><path class="cls-13" d="M1231.2,806.58l-17.94-10.32c-1.44-.84-1.27-2.3.42-3.28l17.11-9.83a6.29,6.29,0,0,1,5.68-.25l17.85,10.33c1.47.84,1.28,2.31-.4,3.28l-17,9.85A6.38,6.38,0,0,1,1231.2,806.58Z" transform="translate(-82 -279.92)"/><path class="cls-13" d="M1256.44,821.15l-17.85-10.3c-1.46-.84-1.28-2.32.41-3.36l17-9.84a6.32,6.32,0,0,1,5.68-.23l17.87,10.3c1.44.84,1.27,2.32-.42,3.36l-17,9.84A6.36,6.36,0,0,1,1256.44,821.15Z" transform="translate(-82 -279.92)"/><path class="cls-13" d="M1281.7,835.74l-17.86-10.32c-1.45-.84-1.28-2.3.42-3.28l17-9.85a6.39,6.39,0,0,1,5.7-.23l17.85,10.32c1.46.84,1.28,2.3-.4,3.36l-17,9.83A6.3,6.3,0,0,1,1281.7,835.74Z" transform="translate(-82 -279.92)"/><path class="cls-13" d="M1307,850.38l-17.85-10.3c-1.46-.86-1.28-2.32.4-3.36l17-9.87a6.29,6.29,0,0,1,5.68-.24l17.86,10.32c1.45.84,1.27,2.32-.42,3.37l-17,9.83A6.32,6.32,0,0,1,1307,850.38Z" transform="translate(-82 -279.92)"/><path class="cls-13" d="M1332.21,864.89l-17.86-10.31c-1.45-.84-1.28-2.3.4-3.28l17-9.84a6.39,6.39,0,0,1,5.7-.24l17.85,10.32c1.46.84,1.28,2.3-.4,3.28l-17,9.83A6.32,6.32,0,0,1,1332.21,864.89Z" transform="translate(-82 -279.92)"/><path class="cls-13" d="M1357.46,879.47l-17.85-10.32c-1.46-.84-1.28-2.3.4-3.27l17-9.84a6.34,6.34,0,0,1,5.69-.23l17.86,10.3c1.45.84,1.26,2.32-.42,3.28l-17,9.85A6.29,6.29,0,0,1,1357.46,879.47Z" transform="translate(-82 -279.92)"/><path class="cls-13" d="M1054.41,704.5l-37-21.31c-1.46-.84-1.27-2.32.41-3.36l17-9.83a6.29,6.29,0,0,1,5.68-.24l37,21.33c1.46.84,1.28,2.3-.4,3.28l-17.05,9.83A6.32,6.32,0,0,1,1054.41,704.5Z" transform="translate(-82 -279.92)"/><path class="cls-13" d="M1042.63,726l-17.85-10.3c-1.46-.86-1.28-2.32.4-3.36l17-9.84a6.34,6.34,0,0,1,5.69-.23l17.86,10.3c1.45.84,1.26,2.32-.42,3.36l-17,9.84A6.32,6.32,0,0,1,1042.63,726Z" transform="translate(-82 -279.92)"/><path class="cls-13" d="M1067.87,740.57,1050,730.27c-1.46-.84-1.27-2.32.41-3.36l17-9.85a6.32,6.32,0,0,1,5.68-.24L1091,727.14c1.46.84,1.28,2.31-.4,3.28l-17,9.83A6.3,6.3,0,0,1,1067.87,740.57Z" transform="translate(-82 -279.92)"/><path class="cls-13" d="M1093.14,755.16l-17.87-10.32c-1.46-.84-1.28-2.3.4-3.27l17-9.84a6.34,6.34,0,0,1,5.69-.25l17.85,10.32c1.47.84,1.28,2.3-.4,3.36l-17,9.85A6.35,6.35,0,0,1,1093.14,755.16Z" transform="translate(-82 -279.92)"/><path class="cls-13" d="M1118.38,769.7l-17.87-10.32c-1.44-.84-1.26-2.3.43-3.28l17-9.83a6.29,6.29,0,0,1,5.68-.23l17.85,10.3c1.46.84,1.28,2.32-.4,3.36l-17,9.83A6.28,6.28,0,0,1,1118.38,769.7Z" transform="translate(-82 -279.92)"/><path class="cls-13" d="M1143.63,784.31,1125.86,774c-1.46-.84-1.28-2.31.4-3.27l17-9.85a6.29,6.29,0,0,1,5.68-.24L1166.86,771c1.44.84,1.26,2.31-.42,3.28l-17,9.83A6.27,6.27,0,0,1,1143.63,784.31Z" transform="translate(-82 -279.92)"/><path class="cls-13" d="M1168.87,798.9l-17.8-10.32c-1.46-.84-1.27-2.31.41-3.36l17-9.85a6.35,6.35,0,0,1,5.68-.24l17.87,10.32c1.44.84,1.28,2.3-.42,3.28l-17.05,9.93A6.39,6.39,0,0,1,1168.87,798.9Z" transform="translate(-82 -279.92)"/><path class="cls-13" d="M1194.14,813.4l-17.85-10.25c-1.47-.84-1.28-2.3.4-3.28l17-9.83a6.32,6.32,0,0,1,5.68-.24l17.87,10.31c1.46.84,1.28,2.32-.4,3.36l-17.06,9.76A6.28,6.28,0,0,1,1194.14,813.4Z" transform="translate(-82 -279.92)"/><path class="cls-13" d="M1219.38,828l-17.88-10.3c-1.45-.84-1.28-2.32.42-3.36l17-9.84a6.36,6.36,0,0,1,5.7-.23l17.85,10.3c1.46.86,1.28,2.32-.4,3.36L1225,827.81A6.32,6.32,0,0,1,1219.38,828Z" transform="translate(-82 -279.92)"/><path class="cls-13" d="M1244.63,842.61l-17.92-10.3c-1.46-.84-1.28-2.3.4-3.28l17.05-9.85a6.38,6.38,0,0,1,5.68-.23l17.85,10.32c1.46.84,1.27,2.3-.41,3.28l-17,9.83A6.23,6.23,0,0,1,1244.63,842.61Z" transform="translate(-82 -279.92)"/><path class="cls-13" d="M1269.87,857.2,1252,846.88c-1.46-.84-1.28-2.3.41-3.27l17-9.84a6.32,6.32,0,0,1,5.68-.23l17.87,10.3c1.44.84,1.26,2.32-.42,3.28l-17,9.85A6.29,6.29,0,0,1,1269.87,857.2Z" transform="translate(-82 -279.92)"/><path class="cls-13" d="M1295.12,871.78l-17.85-10.31c-1.47-.84-1.28-2.32.4-3.36l17-9.83a6.34,6.34,0,0,1,5.69-.24l17.86,10.31c1.46.84,1.28,2.32-.4,3.36l-17,9.83A6.33,6.33,0,0,1,1295.12,871.78Z" transform="translate(-82 -279.92)"/><path class="cls-13" d="M1351.63,904.4l-49.12-28.35c-1.46-.84-1.27-2.32.41-3.28l17-9.85a6.39,6.39,0,0,1,5.7-.24L1374.77,891c1.45.84,1.26,2.32-.42,3.36l-17,9.77A6.32,6.32,0,0,1,1351.63,904.4Z" transform="translate(-82 -279.92)"/><path class="cls-13" d="M1017.38,711.43l-24.3-14c-1.46-.84-1.28-2.3.4-3.36l17-9.84a6.34,6.34,0,0,1,5.69-.25l24.34,14.07c1.46.84,1.28,2.3-.4,3.36l-17.05,9.85A6.36,6.36,0,0,1,1017.38,711.43Z" transform="translate(-82 -279.92)"/><path class="cls-13" d="M1450.51,847.3l-358.6-207c-1.46-.84-1.28-2.32.4-3.36l8.52-4.91a6.31,6.31,0,0,1,5.69-.23l358.59,207.1c1.47.84,1.28,2.31-.4,3.28l-8.52,4.86A6.29,6.29,0,0,1,1450.51,847.3Z" transform="translate(-82 -279.92)"/><path class="cls-7" d="M1228.39,870.85a5.36,5.36,0,0,1-2.47,2.57l-98.68,57a12.13,12.13,0,0,1-10.94.44L947.7,833.57a3.64,3.64,0,0,1-1.68-1.78c-.63-1.5.23-3.24,2.47-4.54l98.68-57a12.19,12.19,0,0,1,10.94-.45l168.6,97.37A3,3,0,0,1,1228.39,870.85Z" transform="translate(-82 -279.92)"/><path class="cls-27" d="M1228.39,870.85a5.36,5.36,0,0,1-2.47,2.57l-98.68,57a12.13,12.13,0,0,1-10.94.44L947.7,833.57a3.64,3.64,0,0,1-1.68-1.78,5.45,5.45,0,0,1,2.47-2.57l98.68-57a12.16,12.16,0,0,1,10.94-.46l168.6,97.29A3.73,3.73,0,0,1,1228.39,870.85Z" transform="translate(-82 -279.92)"/><path class="cls-13" d="M1477.8,831.61l-358.66-207a6.33,6.33,0,0,1-2.64-5.05v-4.2c0-2,1.18-2.84,2.64-2l358.66,207a6.32,6.32,0,0,1,2.64,5v4.22C1480.51,831.56,1479.27,832.45,1477.8,831.61Z" transform="translate(-82 -279.92)"/></g></g></g><path class="cls-16" d="M1338.5,541.41l-80.8-46.66c-2.2-1.26-4.18-1.46-5.7-.78h0a4.53,4.53,0,0,0-.61.34L1243,499l6.14,8.61v61c0,5.48,3.85,12.15,8.61,14.88l31.66,18.27,3.85,9.94-4,17.58,8.94-5,8.73-12.46,27.41,15.84,1,8.21,8.85-4.93c1.84-.78,3-2.78,3-5.8V556.3C1347.1,550.82,1343.26,544.15,1338.5,541.41Z" transform="translate(-82 -279.92)"/><path class="cls-17" d="M1329.57,546.37l-80.81-46.65c-4.74-2.74-8.61-.52-8.61,5V573.6c0,5.48,3.85,12.16,8.61,14.88l31.66,18.27,8.74,22.56,8.75-12.45,31.66,18.27c4.75,2.74,8.61.52,8.61-5v-68.9C1338.17,555.79,1334.34,549.11,1329.57,546.37Z" transform="translate(-82 -279.92)"/><path class="cls-11" d="M1306.36,569.1c-.51-6.85-4.53-13.92-9.55-16.82-3.35-1.93-6.42-1.62-8.14.72-1.71-4.36-4.64-8.1-7.94-10-5-2.9-9-.47-9.55,5.78a14.6,14.6,0,0,0,.3,4.47,36.25,36.25,0,0,0,4.9,12.24l12.3,20,12.53-5.66a9.15,9.15,0,0,0,4.89-6.59A12.15,12.15,0,0,0,1306.36,569.1Z" transform="translate(-82 -279.92)"/><ellipse class="cls-23" cx="481.83" cy="170.49" rx="42.56" ry="24.58"/><polygon class="cls-23" points="424.85 86.46 439.74 172.19 524.29 172.19 538.82 87.08 424.85 86.46"/><ellipse class="cls-28" cx="481.83" cy="85.39" rx="57.04" ry="32.93"/><path class="cls-29" d="M563.83,391c-14,0-27-3.07-36.7-8.67-8.31-4.79-13.07-11-13.07-17s4.76-12.21,13.07-17c9.68-5.6,22.73-8.68,36.7-8.68s27,3.08,36.7,8.68c8.32,4.78,13.08,11,13.08,17s-4.69,12.27-13.08,17C590.85,387.94,577.9,391,563.83,391Z" transform="translate(-82 -279.92)"/><path class="cls-30" d="M588.37,339.37a72.06,72.06,0,0,0-24.2-59.29h0l-.16-.16v.31a72.09,72.09,0,0,0-24.22,59.32l-32.63-3.15c13.77,51.88,57,47.41,57,47.41v-.1c3.27.25,43.6,2.33,56.79-47.43Z" transform="translate(-82 -279.92)"/><path class="cls-31" d="M564.17,383.81s-2.95-40.39-57.14-67.59C507,316.22,494.19,383.33,564.17,383.81Z" transform="translate(-82 -279.92)"/><path class="cls-31" d="M563.83,383.81s3-40.39,57.15-67.59C621,316.22,633.82,383.33,563.83,383.81Z" transform="translate(-82 -279.92)"/></g></svg>
