<svg id="Layer_1" data-name="Layer 1" xmlns="http://www.w3.org/2000/svg" viewBox="0 0 306 306"><defs><style>.cls-1{fill:#bcbcbc;}.cls-2{fill:#fff;}</style></defs><title>next-arrow</title><circle class="cls-1" cx="153" cy="153" r="153"/><path class="cls-2" d="M172.08,293.93q6.63-5,15.41-11.43t17.74-13.26q9-6.8,17.73-13.26t15.42-11.44q-5.64-4.64-14.26-11.27t-17.9-13.92q-9.28-7.29-17.9-13.93t-14.25-11.27a17.15,17.15,0,0,1-4.31-10.94,12.16,12.16,0,0,1,3.65-9,12.56,12.56,0,0,1,9.28-3.64,21.11,21.11,0,0,1,7.29,1.65,90.07,90.07,0,0,1,7.46,5.81q5.79,4.8,14.09,11.1t17.4,13.59q9.12,7.29,17.4,13.59t14.09,10.94l7.46,6q6.3,5,6.3,11.6,0,5.64-5.31,10.94-8.28,6-18.72,13.76T229.1,285.31q-10.62,8-20.89,15.58t-18.56,13.59a19.74,19.74,0,0,1-8.29,2,12.89,12.89,0,0,1-9.28-3.48,11.62,11.62,0,0,1-3.65-8.78A17.22,17.22,0,0,1,172.08,293.93Z" transform="translate(-62 -89)"/></svg>
